%TF.GenerationSoftware,KiCad,Pcbnew,9.0.7*%
%TF.CreationDate,2026-03-14T16:29:58-05:00*%
%TF.ProjectId,RP2040 Devboard,52503230-3430-4204-9465-76626f617264,rev?*%
%TF.SameCoordinates,Original*%
%TF.FileFunction,Legend,Top*%
%TF.FilePolarity,Positive*%
%FSLAX46Y46*%
G04 Gerber Fmt 4.6, Leading zero omitted, Abs format (unit mm)*
G04 Created by KiCad (PCBNEW 9.0.7) date 2026-03-14 16:29:58*
%MOMM*%
%LPD*%
G01*
G04 APERTURE LIST*
%ADD10C,0.150000*%
%ADD11C,0.100000*%
%ADD12C,0.120000*%
%ADD13C,0.000000*%
G04 APERTURE END LIST*
D10*
X138239693Y-44793019D02*
X138239693Y-45507304D01*
X138239693Y-45507304D02*
X138192074Y-45650161D01*
X138192074Y-45650161D02*
X138096836Y-45745400D01*
X138096836Y-45745400D02*
X137953979Y-45793019D01*
X137953979Y-45793019D02*
X137858741Y-45793019D01*
X138620646Y-44793019D02*
X139239693Y-44793019D01*
X139239693Y-44793019D02*
X138906360Y-45173971D01*
X138906360Y-45173971D02*
X139049217Y-45173971D01*
X139049217Y-45173971D02*
X139144455Y-45221590D01*
X139144455Y-45221590D02*
X139192074Y-45269209D01*
X139192074Y-45269209D02*
X139239693Y-45364447D01*
X139239693Y-45364447D02*
X139239693Y-45602542D01*
X139239693Y-45602542D02*
X139192074Y-45697780D01*
X139192074Y-45697780D02*
X139144455Y-45745400D01*
X139144455Y-45745400D02*
X139049217Y-45793019D01*
X139049217Y-45793019D02*
X138763503Y-45793019D01*
X138763503Y-45793019D02*
X138668265Y-45745400D01*
X138668265Y-45745400D02*
X138620646Y-45697780D01*
D11*
X125652884Y-55133419D02*
X125652884Y-55942942D01*
X125652884Y-55942942D02*
X125700503Y-56038180D01*
X125700503Y-56038180D02*
X125748122Y-56085800D01*
X125748122Y-56085800D02*
X125843360Y-56133419D01*
X125843360Y-56133419D02*
X126033836Y-56133419D01*
X126033836Y-56133419D02*
X126129074Y-56085800D01*
X126129074Y-56085800D02*
X126176693Y-56038180D01*
X126176693Y-56038180D02*
X126224312Y-55942942D01*
X126224312Y-55942942D02*
X126224312Y-55133419D01*
X126652884Y-55228657D02*
X126700503Y-55181038D01*
X126700503Y-55181038D02*
X126795741Y-55133419D01*
X126795741Y-55133419D02*
X127033836Y-55133419D01*
X127033836Y-55133419D02*
X127129074Y-55181038D01*
X127129074Y-55181038D02*
X127176693Y-55228657D01*
X127176693Y-55228657D02*
X127224312Y-55323895D01*
X127224312Y-55323895D02*
X127224312Y-55419133D01*
X127224312Y-55419133D02*
X127176693Y-55561990D01*
X127176693Y-55561990D02*
X126605265Y-56133419D01*
X126605265Y-56133419D02*
X127224312Y-56133419D01*
D10*
X125742893Y-44793019D02*
X125742893Y-45507304D01*
X125742893Y-45507304D02*
X125695274Y-45650161D01*
X125695274Y-45650161D02*
X125600036Y-45745400D01*
X125600036Y-45745400D02*
X125457179Y-45793019D01*
X125457179Y-45793019D02*
X125361941Y-45793019D01*
X126171465Y-44888257D02*
X126219084Y-44840638D01*
X126219084Y-44840638D02*
X126314322Y-44793019D01*
X126314322Y-44793019D02*
X126552417Y-44793019D01*
X126552417Y-44793019D02*
X126647655Y-44840638D01*
X126647655Y-44840638D02*
X126695274Y-44888257D01*
X126695274Y-44888257D02*
X126742893Y-44983495D01*
X126742893Y-44983495D02*
X126742893Y-45078733D01*
X126742893Y-45078733D02*
X126695274Y-45221590D01*
X126695274Y-45221590D02*
X126123846Y-45793019D01*
X126123846Y-45793019D02*
X126742893Y-45793019D01*
D11*
X130177265Y-61927800D02*
X130320122Y-61975419D01*
X130320122Y-61975419D02*
X130558217Y-61975419D01*
X130558217Y-61975419D02*
X130653455Y-61927800D01*
X130653455Y-61927800D02*
X130701074Y-61880180D01*
X130701074Y-61880180D02*
X130748693Y-61784942D01*
X130748693Y-61784942D02*
X130748693Y-61689704D01*
X130748693Y-61689704D02*
X130701074Y-61594466D01*
X130701074Y-61594466D02*
X130653455Y-61546847D01*
X130653455Y-61546847D02*
X130558217Y-61499228D01*
X130558217Y-61499228D02*
X130367741Y-61451609D01*
X130367741Y-61451609D02*
X130272503Y-61403990D01*
X130272503Y-61403990D02*
X130224884Y-61356371D01*
X130224884Y-61356371D02*
X130177265Y-61261133D01*
X130177265Y-61261133D02*
X130177265Y-61165895D01*
X130177265Y-61165895D02*
X130224884Y-61070657D01*
X130224884Y-61070657D02*
X130272503Y-61023038D01*
X130272503Y-61023038D02*
X130367741Y-60975419D01*
X130367741Y-60975419D02*
X130605836Y-60975419D01*
X130605836Y-60975419D02*
X130748693Y-61023038D01*
X131082027Y-60975419D02*
X131320122Y-61975419D01*
X131320122Y-61975419D02*
X131510598Y-61261133D01*
X131510598Y-61261133D02*
X131701074Y-61975419D01*
X131701074Y-61975419D02*
X131939170Y-60975419D01*
X132843931Y-61975419D02*
X132272503Y-61975419D01*
X132558217Y-61975419D02*
X132558217Y-60975419D01*
X132558217Y-60975419D02*
X132462979Y-61118276D01*
X132462979Y-61118276D02*
X132367741Y-61213514D01*
X132367741Y-61213514D02*
X132272503Y-61261133D01*
X127811884Y-67579419D02*
X127811884Y-68388942D01*
X127811884Y-68388942D02*
X127859503Y-68484180D01*
X127859503Y-68484180D02*
X127907122Y-68531800D01*
X127907122Y-68531800D02*
X128002360Y-68579419D01*
X128002360Y-68579419D02*
X128192836Y-68579419D01*
X128192836Y-68579419D02*
X128288074Y-68531800D01*
X128288074Y-68531800D02*
X128335693Y-68484180D01*
X128335693Y-68484180D02*
X128383312Y-68388942D01*
X128383312Y-68388942D02*
X128383312Y-67579419D01*
X129288074Y-67912752D02*
X129288074Y-68579419D01*
X129049979Y-67531800D02*
X128811884Y-68246085D01*
X128811884Y-68246085D02*
X129430931Y-68246085D01*
X130605884Y-68468419D02*
X130605884Y-69277942D01*
X130605884Y-69277942D02*
X130653503Y-69373180D01*
X130653503Y-69373180D02*
X130701122Y-69420800D01*
X130701122Y-69420800D02*
X130796360Y-69468419D01*
X130796360Y-69468419D02*
X130986836Y-69468419D01*
X130986836Y-69468419D02*
X131082074Y-69420800D01*
X131082074Y-69420800D02*
X131129693Y-69373180D01*
X131129693Y-69373180D02*
X131177312Y-69277942D01*
X131177312Y-69277942D02*
X131177312Y-68468419D01*
X132177312Y-69468419D02*
X131605884Y-69468419D01*
X131891598Y-69468419D02*
X131891598Y-68468419D01*
X131891598Y-68468419D02*
X131796360Y-68611276D01*
X131796360Y-68611276D02*
X131701122Y-68706514D01*
X131701122Y-68706514D02*
X131605884Y-68754133D01*
X130669360Y-84232228D02*
X130669360Y-84708419D01*
X130336027Y-83708419D02*
X130669360Y-84232228D01*
X130669360Y-84232228D02*
X131002693Y-83708419D01*
X131859836Y-84708419D02*
X131288408Y-84708419D01*
X131574122Y-84708419D02*
X131574122Y-83708419D01*
X131574122Y-83708419D02*
X131478884Y-83851276D01*
X131478884Y-83851276D02*
X131383646Y-83946514D01*
X131383646Y-83946514D02*
X131288408Y-83994133D01*
X132169598Y-48250019D02*
X132169598Y-48964304D01*
X132169598Y-48964304D02*
X132121979Y-49107161D01*
X132121979Y-49107161D02*
X132026741Y-49202400D01*
X132026741Y-49202400D02*
X131883884Y-49250019D01*
X131883884Y-49250019D02*
X131788646Y-49250019D01*
X133169598Y-49250019D02*
X132598170Y-49250019D01*
X132883884Y-49250019D02*
X132883884Y-48250019D01*
X132883884Y-48250019D02*
X132788646Y-48392876D01*
X132788646Y-48392876D02*
X132693408Y-48488114D01*
X132693408Y-48488114D02*
X132598170Y-48535733D01*
D10*
X126909819Y-94073333D02*
X127624104Y-94073333D01*
X127624104Y-94073333D02*
X127766961Y-94120952D01*
X127766961Y-94120952D02*
X127862200Y-94216190D01*
X127862200Y-94216190D02*
X127909819Y-94359047D01*
X127909819Y-94359047D02*
X127909819Y-94454285D01*
X127243152Y-93168571D02*
X127909819Y-93168571D01*
X126862200Y-93406666D02*
X127576485Y-93644761D01*
X127576485Y-93644761D02*
X127576485Y-93025714D01*
D12*
%TO.C,C6*%
X134260000Y-65159836D02*
X134260000Y-64944164D01*
X134980000Y-65159836D02*
X134980000Y-64944164D01*
%TO.C,C12*%
X132101000Y-65977836D02*
X132101000Y-65762164D01*
X132821000Y-65977836D02*
X132821000Y-65762164D01*
%TO.C,C1*%
X135784000Y-68560836D02*
X135784000Y-68345164D01*
X136504000Y-68560836D02*
X136504000Y-68345164D01*
%TO.C,R7*%
X125624000Y-64154164D02*
X125624000Y-64369836D01*
X126344000Y-64154164D02*
X126344000Y-64369836D01*
%TO.C,U2*%
X127492500Y-55130000D02*
X127542500Y-55130000D01*
X127492500Y-56950000D02*
X127492500Y-55130000D01*
X127542500Y-56950000D02*
X127492500Y-56950000D01*
X129442500Y-56950000D02*
X128662500Y-56950000D01*
X130562500Y-55130000D02*
X130612500Y-55130000D01*
X130612500Y-55130000D02*
X130612500Y-56950000D01*
X130612500Y-56950000D02*
X130562500Y-56950000D01*
X130892500Y-54830000D02*
X130562500Y-54590000D01*
X130892500Y-54350000D01*
X130892500Y-54830000D01*
G36*
X130892500Y-54830000D02*
G01*
X130562500Y-54590000D01*
X130892500Y-54350000D01*
X130892500Y-54830000D01*
G37*
%TO.C,C13*%
X129193080Y-58557500D02*
X128911920Y-58557500D01*
X129193080Y-59577500D02*
X128911920Y-59577500D01*
%TO.C,C16*%
X133810836Y-83460000D02*
X133595164Y-83460000D01*
X133810836Y-84180000D02*
X133595164Y-84180000D01*
%TO.C,R2*%
X130860000Y-53072164D02*
X130860000Y-53287836D01*
X131580000Y-53072164D02*
X131580000Y-53287836D01*
%TO.C,J1*%
X127675000Y-44850000D02*
X127675000Y-42950000D01*
X127675000Y-48750000D02*
X127675000Y-46750000D01*
X137075000Y-42950000D02*
X127675000Y-42950000D01*
X137075000Y-44850000D02*
X137075000Y-42950000D01*
X137075000Y-48750000D02*
X137075000Y-46750000D01*
%TO.C,SW1*%
X129375000Y-60025000D02*
X133515000Y-60025000D01*
X129375000Y-60325000D02*
X129375000Y-60025000D01*
X129375000Y-63165000D02*
X129375000Y-62865000D01*
X133515000Y-60025000D02*
X133515000Y-60325000D01*
X133515000Y-62865000D02*
X133515000Y-63165000D01*
X133515000Y-63165000D02*
X129375000Y-63165000D01*
%TO.C,Y1*%
X134691000Y-79863000D02*
X130571000Y-79863000D01*
X134691000Y-83283000D02*
X134691000Y-79863000D01*
%TO.C,R1*%
X133410000Y-53092164D02*
X133410000Y-53307836D01*
X134130000Y-53092164D02*
X134130000Y-53307836D01*
%TO.C,R3*%
X133752000Y-68253436D02*
X133752000Y-68037764D01*
X134472000Y-68253436D02*
X134472000Y-68037764D01*
%TO.C,C14*%
X128944420Y-52449000D02*
X129225580Y-52449000D01*
X128944420Y-53469000D02*
X129225580Y-53469000D01*
%TO.C,C3*%
X137405164Y-70633000D02*
X137620836Y-70633000D01*
X137405164Y-71353000D02*
X137620836Y-71353000D01*
%TO.C,C10*%
X134768000Y-68715836D02*
X134768000Y-68500164D01*
X135488000Y-68715836D02*
X135488000Y-68500164D01*
%TO.C,U1*%
X128765000Y-70240000D02*
X129415000Y-70240000D01*
X128765000Y-70890000D02*
X128765000Y-70240000D01*
X128765000Y-77460000D02*
X128765000Y-76810000D01*
X129415000Y-77460000D02*
X128765000Y-77460000D01*
X135335000Y-70240000D02*
X135985000Y-70240000D01*
X135985000Y-70240000D02*
X135985000Y-70890000D01*
X135985000Y-76810000D02*
X135985000Y-77460000D01*
X135985000Y-77460000D02*
X135335000Y-77460000D01*
X128235000Y-71250000D02*
X127905000Y-71490000D01*
X127905000Y-71010000D01*
X128235000Y-71250000D01*
G36*
X128235000Y-71250000D02*
G01*
X127905000Y-71490000D01*
X127905000Y-71010000D01*
X128235000Y-71250000D01*
G37*
%TO.C,C17*%
X129714164Y-63775000D02*
X129929836Y-63775000D01*
X129714164Y-64495000D02*
X129929836Y-64495000D01*
%TO.C,R6*%
X127770836Y-63775000D02*
X127555164Y-63775000D01*
X127770836Y-64495000D02*
X127555164Y-64495000D01*
%TO.C,C8*%
X127770836Y-69490000D02*
X127555164Y-69490000D01*
X127770836Y-70210000D02*
X127555164Y-70210000D01*
%TO.C,C15*%
X129307000Y-80498836D02*
X129307000Y-80283164D01*
X130027000Y-80498836D02*
X130027000Y-80283164D01*
%TO.C,J4*%
X128455000Y-95120000D02*
X128455000Y-93740000D01*
X129835000Y-95120000D02*
X128455000Y-95120000D01*
X131105000Y-92360000D02*
X136295000Y-92360000D01*
X131105000Y-95120000D02*
X131105000Y-92360000D01*
X131105000Y-95120000D02*
X136295000Y-95120000D01*
X136295000Y-95120000D02*
X136295000Y-92360000D01*
%TO.C,U3*%
X127846432Y-64905000D02*
X130642000Y-64905000D01*
X130642000Y-67175000D02*
X127422000Y-67175000D01*
X127552000Y-64900000D02*
X127412000Y-64710000D01*
X127692000Y-64710000D01*
X127552000Y-64900000D01*
G36*
X127552000Y-64900000D02*
G01*
X127412000Y-64710000D01*
X127692000Y-64710000D01*
X127552000Y-64900000D01*
G37*
D13*
%TO.C,G\u002A\u002A\u002A*%
G36*
X136990873Y-84788369D02*
G01*
X136986434Y-84792808D01*
X136981995Y-84788369D01*
X136986434Y-84783930D01*
X136990873Y-84788369D01*
G37*
G36*
X137277106Y-79819491D02*
G01*
X137329584Y-79840639D01*
X137381048Y-79879108D01*
X137400399Y-79898411D01*
X137441772Y-79954398D01*
X137468800Y-80018809D01*
X137481491Y-80092025D01*
X137479855Y-80174425D01*
X137463898Y-80266387D01*
X137433628Y-80368292D01*
X137411507Y-80427158D01*
X137373239Y-80522710D01*
X137404341Y-80693498D01*
X137414857Y-80750566D01*
X137425198Y-80805451D01*
X137434617Y-80854285D01*
X137442369Y-80893202D01*
X137447530Y-80917555D01*
X137455474Y-80955912D01*
X137462564Y-80995739D01*
X137465538Y-81015638D01*
X137471802Y-81051567D01*
X137479814Y-81072147D01*
X137490999Y-81079782D01*
X137502726Y-81078334D01*
X137508206Y-81074602D01*
X137513646Y-81065757D01*
X137519528Y-81049939D01*
X137526331Y-81025288D01*
X137534535Y-80989944D01*
X137544621Y-80942046D01*
X137557070Y-80879735D01*
X137566578Y-80831019D01*
X137578973Y-80766163D01*
X137590187Y-80705595D01*
X137599767Y-80651921D01*
X137607258Y-80607746D01*
X137612206Y-80575677D01*
X137614158Y-80558320D01*
X137614166Y-80557995D01*
X137611170Y-80537479D01*
X137602498Y-80504934D01*
X137589435Y-80464668D01*
X137573790Y-80422332D01*
X137548693Y-80356465D01*
X137530324Y-80302948D01*
X137530308Y-80302890D01*
X137648763Y-80302890D01*
X137653230Y-80361141D01*
X137657057Y-80386818D01*
X137662983Y-80420219D01*
X137667447Y-80438648D01*
X137671892Y-80444649D01*
X137677760Y-80440767D01*
X137683524Y-80433483D01*
X137694515Y-80416282D01*
X137710295Y-80388377D01*
X137727911Y-80355046D01*
X137732539Y-80345922D01*
X137734876Y-80340484D01*
X137798772Y-80340484D01*
X137803211Y-80344923D01*
X137807650Y-80340484D01*
X137803211Y-80336045D01*
X137798772Y-80340484D01*
X137734876Y-80340484D01*
X137757968Y-80286755D01*
X137770178Y-80237165D01*
X137769087Y-80197815D01*
X137754612Y-80169368D01*
X137754334Y-80169072D01*
X137729388Y-80153182D01*
X137702714Y-80153970D01*
X137677544Y-80171067D01*
X137671334Y-80178556D01*
X137658065Y-80207951D01*
X137650458Y-80250611D01*
X137648763Y-80302890D01*
X137530308Y-80302890D01*
X137517853Y-80258063D01*
X137510449Y-80218093D01*
X137507285Y-80179319D01*
X137507450Y-80151487D01*
X137569305Y-80151487D01*
X137570218Y-80175016D01*
X137573191Y-80214798D01*
X137577357Y-80250014D01*
X137582027Y-80275395D01*
X137584346Y-80282777D01*
X137590035Y-80294577D01*
X137591638Y-80292239D01*
X137589707Y-80274204D01*
X137589066Y-80269460D01*
X137590346Y-80225887D01*
X137603555Y-80180696D01*
X137626065Y-80140192D01*
X137655233Y-80110689D01*
X137694513Y-80091899D01*
X137732287Y-80088805D01*
X137766743Y-80099352D01*
X137796072Y-80121483D01*
X137818460Y-80153140D01*
X137832097Y-80192268D01*
X137835172Y-80236810D01*
X137825872Y-80284709D01*
X137820740Y-80298598D01*
X137807195Y-80331606D01*
X137829092Y-80304972D01*
X137843410Y-80283498D01*
X137860547Y-80251971D01*
X137876977Y-80216919D01*
X137878148Y-80214175D01*
X137899360Y-80147128D01*
X137905719Y-80083141D01*
X137897528Y-80024262D01*
X137875092Y-79972539D01*
X137838714Y-79930018D01*
X137835636Y-79927425D01*
X137793018Y-79902390D01*
X137747933Y-79894407D01*
X137702156Y-79903288D01*
X137657464Y-79928842D01*
X137635130Y-79948771D01*
X137603698Y-79988021D01*
X137582860Y-80032764D01*
X137571700Y-80086189D01*
X137569305Y-80151487D01*
X137507450Y-80151487D01*
X137507530Y-80138025D01*
X137508000Y-80127412D01*
X137518172Y-80046918D01*
X137540262Y-79979266D01*
X137574674Y-79923784D01*
X137621814Y-79879794D01*
X137674480Y-79849907D01*
X137729444Y-79833369D01*
X137781846Y-79834160D01*
X137832316Y-79852413D01*
X137881481Y-79888261D01*
X137888668Y-79895053D01*
X137924060Y-79936106D01*
X137947034Y-79980197D01*
X137959243Y-80031739D01*
X137962374Y-80091899D01*
X137958611Y-80148813D01*
X137947399Y-80201868D01*
X137927418Y-80253604D01*
X137897347Y-80306563D01*
X137855866Y-80363286D01*
X137801653Y-80426316D01*
X137772038Y-80458168D01*
X137737392Y-80495140D01*
X137713037Y-80522673D01*
X137696796Y-80543967D01*
X137686492Y-80562224D01*
X137679946Y-80580645D01*
X137675428Y-80600216D01*
X137665886Y-80647552D01*
X137655102Y-80701477D01*
X137643590Y-80759373D01*
X137631864Y-80818623D01*
X137620438Y-80876607D01*
X137609829Y-80930708D01*
X137600548Y-80978308D01*
X137593113Y-81016788D01*
X137588036Y-81043530D01*
X137585832Y-81055915D01*
X137585781Y-81056401D01*
X137593910Y-81058474D01*
X137615651Y-81059083D01*
X137646917Y-81058171D01*
X137659826Y-81057453D01*
X137729518Y-81057890D01*
X137805794Y-81066342D01*
X137880925Y-81081568D01*
X137947186Y-81102332D01*
X137952150Y-81104307D01*
X138036415Y-81147258D01*
X138114349Y-81203998D01*
X138183661Y-81271941D01*
X138242059Y-81348506D01*
X138287253Y-81431109D01*
X138316439Y-81515086D01*
X138328152Y-81562180D01*
X138394396Y-81590978D01*
X138488023Y-81636328D01*
X138575676Y-81687862D01*
X138655488Y-81743986D01*
X138725588Y-81803106D01*
X138784106Y-81863629D01*
X138829174Y-81923961D01*
X138858921Y-81982510D01*
X138861192Y-81988814D01*
X138868973Y-82022511D01*
X138864599Y-82043388D01*
X138847970Y-82051511D01*
X138818984Y-82046943D01*
X138788681Y-82035047D01*
X138749845Y-82019256D01*
X138709045Y-82007158D01*
X138663610Y-81998460D01*
X138610873Y-81992865D01*
X138548162Y-81990078D01*
X138472809Y-81989803D01*
X138394400Y-81991391D01*
X138195445Y-81996948D01*
X138145173Y-82043492D01*
X138087471Y-82088696D01*
X138018693Y-82129387D01*
X137945500Y-82161897D01*
X137906933Y-82174633D01*
X137832163Y-82188643D01*
X137749791Y-82191440D01*
X137665383Y-82183586D01*
X137584502Y-82165641D01*
X137512715Y-82138168D01*
X137504500Y-82134009D01*
X137463059Y-82112340D01*
X137447872Y-82149726D01*
X137437623Y-82186468D01*
X137430705Y-82234404D01*
X137427467Y-82287221D01*
X137428261Y-82338609D01*
X137433436Y-82382256D01*
X137434653Y-82387921D01*
X137448065Y-82431828D01*
X137468940Y-82484167D01*
X137494467Y-82538889D01*
X137521833Y-82589943D01*
X137546926Y-82629471D01*
X137582965Y-82676546D01*
X137624071Y-82723309D01*
X137671631Y-82770909D01*
X137727030Y-82820492D01*
X137791651Y-82873208D01*
X137866880Y-82930205D01*
X137954103Y-82992631D01*
X138054704Y-83061634D01*
X138124490Y-83108281D01*
X138223919Y-83174758D01*
X138310045Y-83233666D01*
X138384829Y-83286508D01*
X138450231Y-83334787D01*
X138508213Y-83380008D01*
X138560734Y-83423673D01*
X138609755Y-83467286D01*
X138657237Y-83512350D01*
X138677431Y-83532310D01*
X138779769Y-83640275D01*
X138868561Y-83746978D01*
X138947047Y-83856938D01*
X139018471Y-83974675D01*
X139081777Y-84095884D01*
X139143460Y-84233664D01*
X139193653Y-84372347D01*
X139233222Y-84515308D01*
X139263033Y-84665922D01*
X139283953Y-84827562D01*
X139291190Y-84911384D01*
X139296268Y-85093307D01*
X139285463Y-85280031D01*
X139259276Y-85469513D01*
X139218206Y-85659707D01*
X139162754Y-85848568D01*
X139093418Y-86034051D01*
X139010700Y-86214109D01*
X138941533Y-86342022D01*
X138836662Y-86506818D01*
X138715638Y-86666882D01*
X138579697Y-86821095D01*
X138430069Y-86968339D01*
X138267989Y-87107494D01*
X138094690Y-87237442D01*
X137911404Y-87357065D01*
X137719364Y-87465243D01*
X137683150Y-87483824D01*
X137642330Y-87504560D01*
X137609872Y-87522030D01*
X137583453Y-87538531D01*
X137560749Y-87556361D01*
X137539436Y-87577816D01*
X137517191Y-87605195D01*
X137491689Y-87640795D01*
X137460607Y-87686912D01*
X137428216Y-87735870D01*
X137294995Y-87952109D01*
X137178687Y-88171945D01*
X137079576Y-88394821D01*
X137037794Y-88503818D01*
X137013996Y-88572346D01*
X136992542Y-88640010D01*
X136974250Y-88703758D01*
X136959938Y-88760536D01*
X136950427Y-88807294D01*
X136946535Y-88840977D01*
X136946484Y-88844112D01*
X136947971Y-88877217D01*
X136952191Y-88925135D01*
X136958781Y-88985197D01*
X136967381Y-89054734D01*
X136977630Y-89131073D01*
X136989166Y-89211547D01*
X137001628Y-89293483D01*
X137014654Y-89374212D01*
X137027884Y-89451065D01*
X137030768Y-89467083D01*
X137036738Y-89500283D01*
X137044919Y-89546221D01*
X137054468Y-89600144D01*
X137064543Y-89657297D01*
X137070895Y-89693472D01*
X137099750Y-89852241D01*
X137132154Y-90020226D01*
X137166950Y-90191829D01*
X137202981Y-90361449D01*
X137239091Y-90523488D01*
X137267144Y-90643420D01*
X137283807Y-90712061D01*
X137297750Y-90766051D01*
X137310163Y-90808057D01*
X137322239Y-90840748D01*
X137335169Y-90866791D01*
X137350145Y-90888854D01*
X137368357Y-90909606D01*
X137390998Y-90931714D01*
X137399372Y-90939511D01*
X137430242Y-90966920D01*
X137458331Y-90988348D01*
X137487786Y-91006030D01*
X137522753Y-91022207D01*
X137567378Y-91039114D01*
X137612615Y-91054602D01*
X137666521Y-91071741D01*
X137715360Y-91085000D01*
X137766066Y-91096016D01*
X137825576Y-91106430D01*
X137844882Y-91109479D01*
X137872507Y-91119456D01*
X137885000Y-91137817D01*
X137881983Y-91162529D01*
X137876285Y-91170988D01*
X137864751Y-91174651D01*
X137842944Y-91174229D01*
X137821855Y-91172178D01*
X137760258Y-91162180D01*
X137689324Y-91145407D01*
X137615235Y-91123713D01*
X137544173Y-91098951D01*
X137482319Y-91072973D01*
X137468525Y-91066257D01*
X137409057Y-91036235D01*
X137436382Y-91070238D01*
X137473625Y-91108505D01*
X137525565Y-91149709D01*
X137589785Y-91192048D01*
X137634053Y-91217714D01*
X137667312Y-91236555D01*
X137695615Y-91253400D01*
X137714590Y-91265613D01*
X137718863Y-91268845D01*
X137725461Y-91271637D01*
X137739158Y-91273968D01*
X137761271Y-91275872D01*
X137793119Y-91277385D01*
X137836019Y-91278540D01*
X137891289Y-91279372D01*
X137960248Y-91279917D01*
X138044213Y-91280208D01*
X138144502Y-91280280D01*
X138153893Y-91280277D01*
X138264799Y-91280366D01*
X138359059Y-91280750D01*
X138437783Y-91281475D01*
X138502079Y-91282585D01*
X138553055Y-91284125D01*
X138591821Y-91286139D01*
X138619485Y-91288673D01*
X138637156Y-91291771D01*
X138645942Y-91295478D01*
X138646953Y-91299838D01*
X138646778Y-91300141D01*
X138634018Y-91306425D01*
X138603856Y-91312500D01*
X138556646Y-91318334D01*
X138492740Y-91323894D01*
X138412492Y-91329148D01*
X138316255Y-91334062D01*
X138247112Y-91336988D01*
X138177083Y-91339325D01*
X138093402Y-91341389D01*
X137997276Y-91343185D01*
X137889912Y-91344719D01*
X137772520Y-91345998D01*
X137646306Y-91347027D01*
X137512477Y-91347813D01*
X137372242Y-91348360D01*
X137226808Y-91348676D01*
X137077383Y-91348766D01*
X136925174Y-91348636D01*
X136771389Y-91348292D01*
X136617236Y-91347740D01*
X136463922Y-91346985D01*
X136312655Y-91346035D01*
X136164643Y-91344895D01*
X136021092Y-91343570D01*
X135883211Y-91342067D01*
X135752208Y-91340391D01*
X135629290Y-91338549D01*
X135515664Y-91336547D01*
X135412539Y-91334390D01*
X135321122Y-91332084D01*
X135242620Y-91329636D01*
X135178241Y-91327051D01*
X135129193Y-91324336D01*
X135096683Y-91321495D01*
X135096495Y-91321472D01*
X135071259Y-91316979D01*
X135063194Y-91311995D01*
X135071731Y-91306772D01*
X135096301Y-91301560D01*
X135136333Y-91296610D01*
X135157250Y-91294701D01*
X135193453Y-91291561D01*
X135222764Y-91288824D01*
X135240801Y-91286909D01*
X135244124Y-91286415D01*
X135253883Y-91286144D01*
X135279974Y-91285857D01*
X135320972Y-91285560D01*
X135375454Y-91285260D01*
X135441993Y-91284962D01*
X135519167Y-91284672D01*
X135605551Y-91284397D01*
X135699720Y-91284141D01*
X135800250Y-91283911D01*
X135886440Y-91283747D01*
X136522098Y-91282637D01*
X136466826Y-91241088D01*
X136402307Y-91183092D01*
X136345947Y-91113768D01*
X136308932Y-91051809D01*
X136284420Y-91002980D01*
X136253673Y-91050297D01*
X136208375Y-91105726D01*
X136148319Y-91156679D01*
X136076375Y-91200789D01*
X136062771Y-91207631D01*
X136028388Y-91223577D01*
X136005426Y-91231729D01*
X135989910Y-91233135D01*
X135979293Y-91229644D01*
X135962258Y-91216057D01*
X135960680Y-91201131D01*
X135975066Y-91184134D01*
X136005922Y-91164329D01*
X136034267Y-91149976D01*
X136100677Y-91113953D01*
X136151671Y-91075828D01*
X136189584Y-91033636D01*
X136207743Y-91004203D01*
X136218074Y-90983306D01*
X136224942Y-90964289D01*
X136229045Y-90942727D01*
X136231084Y-90914199D01*
X136231758Y-90874281D01*
X136231803Y-90852053D01*
X136231332Y-90808539D01*
X136230033Y-90757097D01*
X136228078Y-90701298D01*
X136225637Y-90644713D01*
X136222880Y-90590913D01*
X136219980Y-90543469D01*
X136217106Y-90505952D01*
X136214431Y-90481933D01*
X136213956Y-90479177D01*
X136212203Y-90463597D01*
X136209983Y-90434509D01*
X136207587Y-90396141D01*
X136205409Y-90354884D01*
X136201329Y-90281983D01*
X136195745Y-90198666D01*
X136189188Y-90112158D01*
X136182192Y-90029684D01*
X136178567Y-89990886D01*
X136176844Y-89971303D01*
X136173971Y-89936512D01*
X136170148Y-89889011D01*
X136165573Y-89831298D01*
X136160443Y-89765869D01*
X136154959Y-89695222D01*
X136151746Y-89653521D01*
X136136008Y-89460920D01*
X136119691Y-89285391D01*
X136102726Y-89126256D01*
X136085046Y-88982839D01*
X136080372Y-88948393D01*
X136072944Y-88890052D01*
X136069227Y-88844213D01*
X136069377Y-88826766D01*
X136129416Y-88826766D01*
X136131458Y-88850061D01*
X136134488Y-88874859D01*
X136139027Y-88913369D01*
X136144617Y-88961656D01*
X136150802Y-89015782D01*
X136156153Y-89063133D01*
X136162270Y-89117086D01*
X136167983Y-89166577D01*
X136172895Y-89208244D01*
X136176610Y-89238724D01*
X136178632Y-89254011D01*
X136180999Y-89274489D01*
X136183987Y-89307169D01*
X136187112Y-89346531D01*
X136188588Y-89367205D01*
X136191383Y-89403934D01*
X136194119Y-89432928D01*
X136196406Y-89450393D01*
X136197444Y-89453766D01*
X136198117Y-89445248D01*
X136198619Y-89421137D01*
X136198942Y-89383591D01*
X136199077Y-89334774D01*
X136199013Y-89276845D01*
X136198743Y-89211965D01*
X136198579Y-89185206D01*
X136198156Y-89105734D01*
X136259420Y-89105734D01*
X136259719Y-89155653D01*
X136260328Y-89215191D01*
X136261205Y-89282206D01*
X136262308Y-89354561D01*
X136263593Y-89430114D01*
X136265018Y-89506727D01*
X136266539Y-89582259D01*
X136268115Y-89654571D01*
X136269703Y-89721523D01*
X136271259Y-89780975D01*
X136272741Y-89830788D01*
X136274107Y-89868821D01*
X136275313Y-89892936D01*
X136276127Y-89900746D01*
X136277450Y-89912604D01*
X136279157Y-89939117D01*
X136281087Y-89977188D01*
X136283080Y-90023725D01*
X136284662Y-90066349D01*
X136290345Y-90218631D01*
X136296417Y-90358915D01*
X136302818Y-90486145D01*
X136309489Y-90599266D01*
X136316370Y-90697224D01*
X136323402Y-90778964D01*
X136326648Y-90810624D01*
X136331779Y-90853457D01*
X136337092Y-90883535D01*
X136344123Y-90905804D01*
X136354406Y-90925214D01*
X136368382Y-90945241D01*
X136416295Y-90996198D01*
X136479648Y-91041285D01*
X136556845Y-91079643D01*
X136646292Y-91110413D01*
X136699620Y-91123679D01*
X136741411Y-91132938D01*
X136768867Y-91139910D01*
X136784999Y-91146099D01*
X136792818Y-91153007D01*
X136795336Y-91162140D01*
X136795557Y-91171587D01*
X136792355Y-91186941D01*
X136781242Y-91195766D01*
X136759961Y-91198342D01*
X136726250Y-91194949D01*
X136678771Y-91186060D01*
X136603685Y-91166964D01*
X136532211Y-91142369D01*
X136468657Y-91114027D01*
X136417335Y-91083691D01*
X136405690Y-91075035D01*
X136397293Y-91070444D01*
X136398410Y-91076555D01*
X136407096Y-91090503D01*
X136421409Y-91109424D01*
X136439405Y-91130454D01*
X136452935Y-91144677D01*
X136481347Y-91170136D01*
X136519498Y-91200385D01*
X136561790Y-91231266D01*
X136602629Y-91258619D01*
X136622435Y-91270648D01*
X136632596Y-91273101D01*
X136654504Y-91275211D01*
X136688969Y-91276995D01*
X136736801Y-91278471D01*
X136798813Y-91279658D01*
X136875814Y-91280572D01*
X136968616Y-91281233D01*
X137078028Y-91281657D01*
X137127960Y-91281766D01*
X137615728Y-91282637D01*
X137566671Y-91253096D01*
X137475567Y-91190287D01*
X137399539Y-91120231D01*
X137336787Y-91041211D01*
X137323560Y-91020814D01*
X137299406Y-90984754D01*
X137281940Y-90964921D01*
X137270968Y-90961175D01*
X137266298Y-90973378D01*
X137266091Y-90979160D01*
X137260872Y-91000338D01*
X137247113Y-91030149D01*
X137227661Y-91063602D01*
X137205364Y-91095708D01*
X137187420Y-91117039D01*
X137155051Y-91147449D01*
X137118258Y-91176047D01*
X137081234Y-91200109D01*
X137048175Y-91216910D01*
X137023274Y-91223726D01*
X137023149Y-91223731D01*
X137003286Y-91222340D01*
X136994764Y-91212795D01*
X136992542Y-91200921D01*
X136992803Y-91186944D01*
X136999662Y-91175801D01*
X137016504Y-91164033D01*
X137041634Y-91150732D01*
X137104051Y-91110913D01*
X137154306Y-91061396D01*
X137186602Y-91011401D01*
X137196942Y-90988258D01*
X137203331Y-90966093D01*
X137206602Y-90939606D01*
X137207590Y-90903496D01*
X137207473Y-90878687D01*
X137206794Y-90853085D01*
X137205038Y-90827004D01*
X137201823Y-90798302D01*
X137196767Y-90764839D01*
X137189487Y-90724474D01*
X137179603Y-90675064D01*
X137166730Y-90614470D01*
X137150488Y-90540550D01*
X137133797Y-90465860D01*
X137102809Y-90329023D01*
X137070128Y-90186869D01*
X137036240Y-90041399D01*
X137001633Y-89894616D01*
X136966792Y-89748524D01*
X136932206Y-89605124D01*
X136901770Y-89480400D01*
X136964239Y-89480400D01*
X136967487Y-89487708D01*
X136970158Y-89486319D01*
X136971220Y-89475783D01*
X136970158Y-89474481D01*
X136964880Y-89475700D01*
X136964239Y-89480400D01*
X136901770Y-89480400D01*
X136898359Y-89466420D01*
X136865740Y-89334414D01*
X136834835Y-89211109D01*
X136806131Y-89098509D01*
X136780113Y-88998614D01*
X136757270Y-88913430D01*
X136750824Y-88890012D01*
X136738312Y-88841655D01*
X136730640Y-88801050D01*
X136727791Y-88763353D01*
X136728361Y-88751820D01*
X136785131Y-88751820D01*
X136787229Y-88771248D01*
X136792214Y-88797250D01*
X136800498Y-88832523D01*
X136812495Y-88879763D01*
X136827355Y-88936840D01*
X136845381Y-89006165D01*
X136865354Y-89083489D01*
X136885573Y-89162205D01*
X136904342Y-89235707D01*
X136917310Y-89286862D01*
X136930406Y-89337959D01*
X136942170Y-89382343D01*
X136951889Y-89417451D01*
X136958854Y-89440724D01*
X136962353Y-89449602D01*
X136962497Y-89449589D01*
X136962700Y-89439812D01*
X136959730Y-89418139D01*
X136956163Y-89398982D01*
X136945468Y-89341847D01*
X136934731Y-89276209D01*
X136924281Y-89204961D01*
X136914450Y-89130994D01*
X136905566Y-89057202D01*
X136897961Y-88986476D01*
X136891963Y-88921708D01*
X136887904Y-88865791D01*
X136886113Y-88821616D01*
X136886910Y-88792179D01*
X136891191Y-88769595D01*
X136900331Y-88733670D01*
X136913354Y-88687829D01*
X136929280Y-88635498D01*
X136947133Y-88580105D01*
X136949297Y-88573598D01*
X137026382Y-88362694D01*
X137113732Y-88162539D01*
X137213457Y-87968818D01*
X137327667Y-87777217D01*
X137372772Y-87707872D01*
X137396405Y-87672255D01*
X137416617Y-87641700D01*
X137431277Y-87619435D01*
X137438257Y-87608686D01*
X137438285Y-87608640D01*
X137433210Y-87607783D01*
X137414997Y-87612850D01*
X137386861Y-87622847D01*
X137366094Y-87630983D01*
X137213743Y-87688805D01*
X137054332Y-87742429D01*
X136988540Y-87762595D01*
X136939440Y-87777355D01*
X136902697Y-87790260D01*
X136876688Y-87804046D01*
X136859789Y-87821447D01*
X136850376Y-87845196D01*
X136846825Y-87878029D01*
X136847512Y-87922681D01*
X136850813Y-87981884D01*
X136851502Y-87993333D01*
X136854979Y-88096864D01*
X136853798Y-88206995D01*
X136848302Y-88319631D01*
X136838832Y-88430679D01*
X136825729Y-88536046D01*
X136809335Y-88631636D01*
X136792027Y-88706012D01*
X136787942Y-88721899D01*
X136785506Y-88736270D01*
X136785131Y-88751820D01*
X136728361Y-88751820D01*
X136729751Y-88723726D01*
X136736505Y-88677327D01*
X136748037Y-88619314D01*
X136749954Y-88610355D01*
X136764074Y-88538490D01*
X136774907Y-88467923D01*
X136783014Y-88393672D01*
X136788959Y-88310755D01*
X136792607Y-88233039D01*
X136794530Y-88162983D01*
X136794756Y-88099534D01*
X136793403Y-88044504D01*
X136790592Y-87999705D01*
X136786442Y-87966949D01*
X136781073Y-87948049D01*
X136774604Y-87944815D01*
X136773630Y-87945702D01*
X136758681Y-87964332D01*
X136736501Y-87995314D01*
X136708980Y-88035767D01*
X136678009Y-88082808D01*
X136645478Y-88133557D01*
X136613277Y-88185132D01*
X136583298Y-88234652D01*
X136576382Y-88246356D01*
X136491016Y-88396484D01*
X136418329Y-88534775D01*
X136358120Y-88661618D01*
X136339876Y-88703574D01*
X136312896Y-88768866D01*
X136292737Y-88822721D01*
X136278402Y-88869645D01*
X136268897Y-88914145D01*
X136263226Y-88960727D01*
X136260394Y-89013897D01*
X136259475Y-89067572D01*
X136259420Y-89105734D01*
X136198156Y-89105734D01*
X136198134Y-89101679D01*
X136198359Y-89032999D01*
X136199756Y-88976259D01*
X136202825Y-88928551D01*
X136208069Y-88886967D01*
X136215988Y-88848600D01*
X136227084Y-88810541D01*
X136241860Y-88769884D01*
X136260815Y-88723720D01*
X136284452Y-88669142D01*
X136289615Y-88657348D01*
X136355558Y-88516815D01*
X136432620Y-88369880D01*
X136518064Y-88221238D01*
X136609150Y-88075587D01*
X136703138Y-87937622D01*
X136735323Y-87893225D01*
X136761033Y-87857760D01*
X136776759Y-87834260D01*
X136783526Y-87820758D01*
X136782359Y-87815289D01*
X136775823Y-87815503D01*
X136723372Y-87826242D01*
X136659586Y-87837305D01*
X136588436Y-87848186D01*
X136513894Y-87858380D01*
X136439929Y-87867380D01*
X136370513Y-87874680D01*
X136309616Y-87879775D01*
X136261209Y-87882159D01*
X136251659Y-87882272D01*
X136191613Y-87882357D01*
X136204567Y-87913361D01*
X136217249Y-87956062D01*
X136226765Y-88015525D01*
X136233040Y-88091028D01*
X136236001Y-88181847D01*
X136236242Y-88219773D01*
X136228821Y-88374487D01*
X136206054Y-88524180D01*
X136167185Y-88673541D01*
X136158820Y-88699542D01*
X136144196Y-88745190D01*
X136134959Y-88778646D01*
X136130302Y-88804355D01*
X136129416Y-88826766D01*
X136069377Y-88826766D01*
X136069557Y-88805949D01*
X136074271Y-88770329D01*
X136083707Y-88732424D01*
X136098202Y-88687304D01*
X136098238Y-88687198D01*
X136142339Y-88534490D01*
X136169457Y-88384693D01*
X136179755Y-88236112D01*
X136173398Y-88087054D01*
X136163916Y-88011089D01*
X136157462Y-87975259D01*
X136149860Y-87942675D01*
X136143255Y-87921777D01*
X136132022Y-87894611D01*
X135933328Y-87884076D01*
X135689986Y-87864013D01*
X135457074Y-87830061D01*
X135233680Y-87781996D01*
X135018895Y-87719592D01*
X134811808Y-87642626D01*
X134638199Y-87564136D01*
X134592774Y-87541844D01*
X134581496Y-87536312D01*
X134718690Y-87536312D01*
X134724537Y-87539449D01*
X134744064Y-87547914D01*
X134774435Y-87560516D01*
X134812812Y-87576065D01*
X134824637Y-87580797D01*
X135058034Y-87664918D01*
X135292493Y-87731359D01*
X135528395Y-87780183D01*
X135766122Y-87811453D01*
X136006054Y-87825232D01*
X136248573Y-87821582D01*
X136274444Y-87820176D01*
X136497092Y-87798811D01*
X136721873Y-87760814D01*
X136946880Y-87706841D01*
X137170207Y-87637551D01*
X137389946Y-87553601D01*
X137604190Y-87455649D01*
X137811033Y-87344352D01*
X138002967Y-87224150D01*
X138101131Y-87154407D01*
X138202678Y-87075654D01*
X138304557Y-86990637D01*
X138403720Y-86902103D01*
X138497117Y-86812801D01*
X138581699Y-86725477D01*
X138654416Y-86642879D01*
X138671671Y-86621679D01*
X138798659Y-86448532D01*
X138910155Y-86266773D01*
X139006022Y-86076711D01*
X139086120Y-85878654D01*
X139150311Y-85672911D01*
X139198457Y-85459788D01*
X139201884Y-85440903D01*
X139209788Y-85384890D01*
X139216409Y-85315149D01*
X139221640Y-85235673D01*
X139225369Y-85150452D01*
X139227490Y-85063476D01*
X139227892Y-84978737D01*
X139226466Y-84900225D01*
X139223103Y-84831931D01*
X139219592Y-84792808D01*
X139189373Y-84601223D01*
X139143226Y-84417041D01*
X139081380Y-84240706D01*
X139004066Y-84072658D01*
X138911512Y-83913339D01*
X138803948Y-83763190D01*
X138681605Y-83622653D01*
X138544713Y-83492170D01*
X138541378Y-83489275D01*
X138500266Y-83454017D01*
X138461636Y-83421778D01*
X138423543Y-83391149D01*
X138384042Y-83360720D01*
X138341187Y-83329081D01*
X138293035Y-83294825D01*
X138237640Y-83256541D01*
X138173058Y-83212820D01*
X138097344Y-83162253D01*
X138012785Y-83106227D01*
X137910981Y-83037699D01*
X137823261Y-82975780D01*
X137747890Y-82919010D01*
X137683134Y-82865931D01*
X137627259Y-82815082D01*
X137578531Y-82765005D01*
X137535215Y-82714240D01*
X137513560Y-82686155D01*
X137455832Y-82598163D01*
X137411757Y-82508321D01*
X137381733Y-82418438D01*
X137366159Y-82330328D01*
X137365430Y-82245802D01*
X137379946Y-82166671D01*
X137392010Y-82132193D01*
X137414494Y-82077275D01*
X137379709Y-82043413D01*
X137324340Y-81977994D01*
X137281266Y-81902903D01*
X137252710Y-81822402D01*
X137245217Y-81785720D01*
X137242721Y-81760975D01*
X137246445Y-81747233D01*
X137257730Y-81738495D01*
X137274755Y-81733460D01*
X137288383Y-81740168D01*
X137300141Y-81760462D01*
X137311559Y-81796184D01*
X137314272Y-81806678D01*
X137332658Y-81866496D01*
X137356429Y-81915620D01*
X137389370Y-81961038D01*
X137410718Y-81984813D01*
X137478900Y-82044615D01*
X137555479Y-82088797D01*
X137640273Y-82117283D01*
X137733097Y-82129995D01*
X137763260Y-82130722D01*
X137856495Y-82121887D01*
X137946752Y-82095802D01*
X138033019Y-82052861D01*
X138114285Y-81993462D01*
X138114688Y-81993115D01*
X138167195Y-81936921D01*
X138239977Y-81936921D01*
X138309250Y-81931065D01*
X138347614Y-81928638D01*
X138396588Y-81926702D01*
X138449029Y-81925494D01*
X138485199Y-81925209D01*
X138525875Y-81924891D01*
X138558704Y-81924022D01*
X138580432Y-81922734D01*
X138587805Y-81921158D01*
X138587748Y-81921082D01*
X138578070Y-81918067D01*
X138553962Y-81912380D01*
X138518435Y-81904679D01*
X138474500Y-81895625D01*
X138442000Y-81889158D01*
X138393920Y-81879716D01*
X138352010Y-81871477D01*
X138319345Y-81865047D01*
X138299000Y-81861029D01*
X138293812Y-81859993D01*
X138285917Y-81866139D01*
X138272835Y-81883369D01*
X138263611Y-81897773D01*
X138239977Y-81936921D01*
X138167195Y-81936921D01*
X138168030Y-81936027D01*
X138211247Y-81867127D01*
X138243178Y-81789934D01*
X138244036Y-81786324D01*
X138315967Y-81786324D01*
X138318742Y-81794057D01*
X138329563Y-81800039D01*
X138351593Y-81806056D01*
X138386183Y-81813514D01*
X138483348Y-81835009D01*
X138563814Y-81855362D01*
X138628582Y-81874852D01*
X138678651Y-81893756D01*
X138686574Y-81897300D01*
X138715182Y-81910418D01*
X138736619Y-81920124D01*
X138746614Y-81924486D01*
X138746813Y-81924552D01*
X138745349Y-81918579D01*
X138740550Y-81908776D01*
X138720127Y-81881368D01*
X138685995Y-81848100D01*
X138640491Y-81810712D01*
X138585952Y-81770947D01*
X138524713Y-81730545D01*
X138459113Y-81691249D01*
X138418982Y-81669114D01*
X138333389Y-81623458D01*
X138328683Y-81687773D01*
X138325508Y-81723281D01*
X138321703Y-81754617D01*
X138318089Y-81775016D01*
X138318079Y-81775055D01*
X138315967Y-81786324D01*
X138244036Y-81786324D01*
X138262657Y-81707964D01*
X138268523Y-81624736D01*
X138261015Y-81550701D01*
X138236193Y-81467570D01*
X138195790Y-81388966D01*
X138141805Y-81316915D01*
X138076238Y-81253443D01*
X138001087Y-81200576D01*
X137918351Y-81160340D01*
X137856479Y-81140647D01*
X137750056Y-81122952D01*
X137641218Y-81122011D01*
X137532260Y-81137460D01*
X137425473Y-81168931D01*
X137323153Y-81216059D01*
X137299812Y-81229481D01*
X137241430Y-81269371D01*
X137179678Y-81320046D01*
X137119578Y-81376800D01*
X137066154Y-81434928D01*
X137028713Y-81483393D01*
X136958436Y-81600690D01*
X136903806Y-81725218D01*
X136864880Y-81855704D01*
X136841714Y-81990878D01*
X136834368Y-82129469D01*
X136842899Y-82270206D01*
X136867364Y-82411816D01*
X136907821Y-82553030D01*
X136964327Y-82692575D01*
X136973042Y-82710914D01*
X136999454Y-82764111D01*
X137025468Y-82812980D01*
X137052350Y-82859114D01*
X137081367Y-82904109D01*
X137113786Y-82949557D01*
X137150872Y-82997053D01*
X137193894Y-83048191D01*
X137244116Y-83104566D01*
X137302807Y-83167771D01*
X137371232Y-83239400D01*
X137450658Y-83321049D01*
X137488345Y-83359467D01*
X137547209Y-83419819D01*
X137604418Y-83479332D01*
X137658247Y-83536151D01*
X137706972Y-83588421D01*
X137748868Y-83634286D01*
X137782211Y-83671892D01*
X137805277Y-83699383D01*
X137810182Y-83705709D01*
X137884736Y-83819493D01*
X137945952Y-83943814D01*
X137992901Y-84076511D01*
X138021450Y-84197266D01*
X138031684Y-84272693D01*
X138037492Y-84360502D01*
X138038886Y-84455884D01*
X138035876Y-84554027D01*
X138028473Y-84650123D01*
X138020287Y-84716309D01*
X138002192Y-84839565D01*
X138024379Y-84871674D01*
X138070822Y-84953022D01*
X138107101Y-85046505D01*
X138132853Y-85149450D01*
X138147714Y-85259186D01*
X138151319Y-85373041D01*
X138143305Y-85488343D01*
X138123702Y-85600708D01*
X138085953Y-85733706D01*
X138033478Y-85871076D01*
X137967767Y-86009960D01*
X137890311Y-86147499D01*
X137802603Y-86280836D01*
X137706133Y-86407113D01*
X137697532Y-86417483D01*
X137535053Y-86598406D01*
X137361055Y-86765990D01*
X137176183Y-86919814D01*
X136981083Y-87059454D01*
X136776400Y-87184487D01*
X136562783Y-87294492D01*
X136340875Y-87389045D01*
X136111324Y-87467725D01*
X136076005Y-87478209D01*
X135917975Y-87519751D01*
X135763620Y-87550870D01*
X135608476Y-87572122D01*
X135448075Y-87584066D01*
X135277953Y-87587260D01*
X135210831Y-87586318D01*
X135127204Y-87584069D01*
X135056908Y-87581103D01*
X134995518Y-87577007D01*
X134938611Y-87571365D01*
X134881764Y-87563765D01*
X134820554Y-87553791D01*
X134774419Y-87545487D01*
X134746236Y-87540457D01*
X134725753Y-87537135D01*
X134718690Y-87536312D01*
X134581496Y-87536312D01*
X134552885Y-87522278D01*
X134521268Y-87506781D01*
X134500659Y-87496693D01*
X134493931Y-87493417D01*
X134490170Y-87499866D01*
X134487861Y-87522533D01*
X134486927Y-87559947D01*
X134487288Y-87610635D01*
X134488867Y-87673125D01*
X134491584Y-87745945D01*
X134495361Y-87827625D01*
X134500119Y-87916691D01*
X134505779Y-88011672D01*
X134512264Y-88111097D01*
X134519493Y-88213492D01*
X134527390Y-88317388D01*
X134535874Y-88421310D01*
X134544867Y-88523789D01*
X134554291Y-88623351D01*
X134554323Y-88623672D01*
X134563201Y-88709177D01*
X134574310Y-88808729D01*
X134587205Y-88918820D01*
X134601444Y-89035945D01*
X134616585Y-89156595D01*
X134632185Y-89277265D01*
X134647801Y-89394446D01*
X134662990Y-89504632D01*
X134677309Y-89604317D01*
X134682655Y-89640204D01*
X134710767Y-89830119D01*
X134735445Y-90004168D01*
X134756655Y-90162075D01*
X134774361Y-90303562D01*
X134788527Y-90428352D01*
X134799119Y-90536169D01*
X134802881Y-90581274D01*
X134804336Y-90641312D01*
X134800868Y-90710195D01*
X134793193Y-90781365D01*
X134782023Y-90848263D01*
X134768075Y-90904331D01*
X134767496Y-90906170D01*
X134736967Y-90980939D01*
X134697698Y-91043420D01*
X134651287Y-91092985D01*
X134599331Y-91129008D01*
X134543425Y-91150860D01*
X134485166Y-91157915D01*
X134426150Y-91149545D01*
X134367975Y-91125124D01*
X134313026Y-91084747D01*
X134268048Y-91033697D01*
X134234227Y-90974687D01*
X134211233Y-90910010D01*
X134198739Y-90841961D01*
X134196416Y-90772832D01*
X134203935Y-90704918D01*
X134220970Y-90640513D01*
X134247190Y-90581910D01*
X134282268Y-90531403D01*
X134325875Y-90491285D01*
X134377683Y-90463852D01*
X134402980Y-90456393D01*
X134454443Y-90451188D01*
X134500631Y-90461313D01*
X134544410Y-90487680D01*
X134567951Y-90508885D01*
X134601341Y-90545692D01*
X134623576Y-90580509D01*
X134638612Y-90620667D01*
X134646777Y-90654918D01*
X134651961Y-90715598D01*
X134643799Y-90775532D01*
X134623731Y-90831136D01*
X134593196Y-90878826D01*
X134553633Y-90915019D01*
X134538762Y-90923870D01*
X134497426Y-90936107D01*
X134451959Y-90934393D01*
X134407005Y-90920214D01*
X134367210Y-90895054D01*
X134337218Y-90860399D01*
X134336509Y-90859212D01*
X134316937Y-90812305D01*
X134311750Y-90765666D01*
X134319639Y-90722117D01*
X134339297Y-90684486D01*
X134369419Y-90655597D01*
X134408697Y-90638274D01*
X134440440Y-90634542D01*
X134475033Y-90640587D01*
X134502993Y-90656505D01*
X134522160Y-90678969D01*
X134530370Y-90704651D01*
X134525461Y-90730226D01*
X134513060Y-90746283D01*
X134499045Y-90757479D01*
X134489932Y-90756065D01*
X134479767Y-90744273D01*
X134464710Y-90723509D01*
X134455746Y-90709652D01*
X134440591Y-90697837D01*
X134420739Y-90699479D01*
X134400659Y-90712832D01*
X134384826Y-90736147D01*
X134384199Y-90737607D01*
X134376368Y-90776589D01*
X134383878Y-90813220D01*
X134404349Y-90844019D01*
X134435402Y-90865509D01*
X134474658Y-90874208D01*
X134477645Y-90874248D01*
X134507565Y-90866330D01*
X134537183Y-90845383D01*
X134561945Y-90815616D01*
X134576977Y-90782438D01*
X134586763Y-90718294D01*
X134581328Y-90657277D01*
X134561371Y-90602170D01*
X134527595Y-90555756D01*
X134517434Y-90546152D01*
X134494794Y-90529150D01*
X134472379Y-90521183D01*
X134441436Y-90519186D01*
X134440354Y-90519186D01*
X134391504Y-90527536D01*
X134348814Y-90551661D01*
X134313206Y-90590372D01*
X134285601Y-90642479D01*
X134266921Y-90706790D01*
X134260280Y-90751724D01*
X134259769Y-90828467D01*
X134273276Y-90900866D01*
X134299826Y-90966055D01*
X134338442Y-91021166D01*
X134358828Y-91041327D01*
X134408195Y-91074843D01*
X134459508Y-91091643D01*
X134511043Y-91092386D01*
X134561073Y-91077729D01*
X134607872Y-91048329D01*
X134649717Y-91004844D01*
X134684880Y-90947931D01*
X134700783Y-90911046D01*
X134711319Y-90880602D01*
X134719180Y-90851092D01*
X134724738Y-90819163D01*
X134728365Y-90781463D01*
X134730431Y-90734639D01*
X134731308Y-90675339D01*
X134731418Y-90634542D01*
X134731228Y-90590120D01*
X134730546Y-90547895D01*
X134729203Y-90506307D01*
X134727029Y-90463793D01*
X134723856Y-90418791D01*
X134719514Y-90369740D01*
X134713835Y-90315079D01*
X134706649Y-90253245D01*
X134697788Y-90182676D01*
X134687082Y-90101812D01*
X134674362Y-90009090D01*
X134659459Y-89902949D01*
X134642204Y-89781826D01*
X134629621Y-89694138D01*
X134598838Y-89476491D01*
X134571283Y-89273789D01*
X134546685Y-89083571D01*
X134524773Y-88903376D01*
X134505277Y-88730742D01*
X134487925Y-88563206D01*
X134472446Y-88398308D01*
X134458570Y-88233584D01*
X134446026Y-88066574D01*
X134438697Y-87959254D01*
X134434822Y-87903758D01*
X134430960Y-87854424D01*
X134427354Y-87813946D01*
X134424250Y-87785017D01*
X134421894Y-87770331D01*
X134421382Y-87769117D01*
X134417737Y-87772844D01*
X134416249Y-87788759D01*
X134414735Y-87806519D01*
X134410383Y-87840040D01*
X134403478Y-87887604D01*
X134394305Y-87947494D01*
X134383149Y-88017991D01*
X134370296Y-88097377D01*
X134356030Y-88183935D01*
X134340637Y-88275947D01*
X134324402Y-88371694D01*
X134307609Y-88469459D01*
X134290544Y-88567523D01*
X134273492Y-88664170D01*
X134256738Y-88757680D01*
X134242333Y-88836744D01*
X134208388Y-89018967D01*
X134176134Y-89186696D01*
X134144881Y-89343035D01*
X134113938Y-89491086D01*
X134082616Y-89633952D01*
X134050222Y-89774735D01*
X134016068Y-89916537D01*
X133979461Y-90062461D01*
X133939713Y-90215610D01*
X133913353Y-90314933D01*
X133852249Y-90530102D01*
X133787620Y-90731898D01*
X133719803Y-90919443D01*
X133649132Y-91091858D01*
X133575944Y-91248266D01*
X133510107Y-91371291D01*
X133464645Y-91441208D01*
X133410970Y-91508016D01*
X133352203Y-91568631D01*
X133291464Y-91619967D01*
X133231873Y-91658938D01*
X133206428Y-91671547D01*
X133144066Y-91693029D01*
X133079475Y-91704755D01*
X133018468Y-91705971D01*
X132982449Y-91700522D01*
X132917105Y-91676197D01*
X132861082Y-91638336D01*
X132815248Y-91589016D01*
X132780470Y-91530314D01*
X132757617Y-91464309D01*
X132747556Y-91393079D01*
X132751154Y-91318701D01*
X132769280Y-91243253D01*
X132779867Y-91215422D01*
X132819840Y-91135410D01*
X132867252Y-91065864D01*
X132920583Y-91007539D01*
X132978311Y-90961191D01*
X133038915Y-90927574D01*
X133100872Y-90907443D01*
X133162662Y-90901553D01*
X133222762Y-90910659D01*
X133279652Y-90935516D01*
X133306486Y-90954142D01*
X133342763Y-90993027D01*
X133370716Y-91043439D01*
X133387868Y-91100141D01*
X133391951Y-91135085D01*
X133386695Y-91200086D01*
X133367017Y-91266271D01*
X133335210Y-91329209D01*
X133293569Y-91384467D01*
X133244389Y-91427617D01*
X133238460Y-91431534D01*
X133186138Y-91456342D01*
X133132788Y-91466443D01*
X133080825Y-91463137D01*
X133032662Y-91447722D01*
X132990715Y-91421498D01*
X132957398Y-91385764D01*
X132935126Y-91341820D01*
X132926314Y-91290964D01*
X132927599Y-91264266D01*
X132941188Y-91209392D01*
X132966548Y-91162689D01*
X133001292Y-91126090D01*
X133043030Y-91101527D01*
X133089374Y-91090935D01*
X133135886Y-91095679D01*
X133174037Y-91113356D01*
X133203539Y-91141330D01*
X133222255Y-91175755D01*
X133228051Y-91212784D01*
X133219740Y-91246671D01*
X133201951Y-91273223D01*
X133182141Y-91286523D01*
X133163281Y-91284821D01*
X133159442Y-91282166D01*
X133148850Y-91265486D01*
X133147701Y-91246267D01*
X133155571Y-91233808D01*
X133163809Y-91219629D01*
X133162269Y-91198496D01*
X133152006Y-91177521D01*
X133146282Y-91171290D01*
X133120569Y-91158668D01*
X133087768Y-91156589D01*
X133055100Y-91165084D01*
X133044553Y-91170873D01*
X133017843Y-91198205D01*
X133000757Y-91235891D01*
X132994381Y-91278717D01*
X132999798Y-91321470D01*
X133008580Y-91343809D01*
X133030144Y-91369404D01*
X133062999Y-91390596D01*
X133100704Y-91403895D01*
X133124498Y-91406651D01*
X133152577Y-91400833D01*
X133187092Y-91385408D01*
X133222321Y-91363708D01*
X133252538Y-91339062D01*
X133265722Y-91324458D01*
X133283434Y-91297546D01*
X133301114Y-91265105D01*
X133306467Y-91253700D01*
X133323913Y-91197426D01*
X133327805Y-91141515D01*
X133319128Y-91088811D01*
X133298870Y-91042160D01*
X133268019Y-91004405D01*
X133227563Y-90978390D01*
X133208622Y-90971831D01*
X133148726Y-90964572D01*
X133088760Y-90974863D01*
X133029234Y-91002508D01*
X132970659Y-91047309D01*
X132944003Y-91073808D01*
X132892369Y-91138045D01*
X132853563Y-91205318D01*
X132827438Y-91273793D01*
X132813846Y-91341634D01*
X132812641Y-91407005D01*
X132823675Y-91468070D01*
X132846799Y-91522995D01*
X132881868Y-91569943D01*
X132928733Y-91607079D01*
X132987248Y-91632567D01*
X132988913Y-91633055D01*
X133052860Y-91642463D01*
X133119102Y-91634579D01*
X133187046Y-91609633D01*
X133256101Y-91567852D01*
X133325673Y-91509466D01*
X133336555Y-91498855D01*
X133384285Y-91444192D01*
X133434167Y-91373353D01*
X133485504Y-91287691D01*
X133537598Y-91188557D01*
X133589754Y-91077301D01*
X133641273Y-90955274D01*
X133691459Y-90823829D01*
X133706760Y-90781029D01*
X133748214Y-90657481D01*
X133791289Y-90518208D01*
X133835512Y-90365117D01*
X133880415Y-90200117D01*
X133925526Y-90025115D01*
X133970374Y-89842019D01*
X134014489Y-89652737D01*
X134057399Y-89459175D01*
X134098635Y-89263242D01*
X134137724Y-89066845D01*
X134163585Y-88929963D01*
X134183790Y-88819484D01*
X134203976Y-88707142D01*
X134223914Y-88594348D01*
X134243373Y-88482514D01*
X134262123Y-88373052D01*
X134279934Y-88267373D01*
X134296577Y-88166890D01*
X134311822Y-88073014D01*
X134325438Y-87987157D01*
X134337195Y-87910731D01*
X134346864Y-87845147D01*
X134354214Y-87791817D01*
X134359015Y-87752153D01*
X134361038Y-87727567D01*
X134360686Y-87720107D01*
X134356250Y-87722253D01*
X134348078Y-87737560D01*
X134341140Y-87754429D01*
X134332669Y-87775902D01*
X134318599Y-87810476D01*
X134300272Y-87854906D01*
X134279026Y-87905948D01*
X134256201Y-87960359D01*
X134251659Y-87971137D01*
X134149686Y-88207730D01*
X134043158Y-88445066D01*
X133932805Y-88681813D01*
X133819357Y-88916640D01*
X133703544Y-89148214D01*
X133586095Y-89375202D01*
X133467739Y-89596273D01*
X133349207Y-89810093D01*
X133231228Y-90015331D01*
X133114532Y-90210654D01*
X132999848Y-90394730D01*
X132887906Y-90566226D01*
X132779437Y-90723811D01*
X132675169Y-90866151D01*
X132643745Y-90907061D01*
X132567408Y-91001917D01*
X132487346Y-91095313D01*
X132406061Y-91184599D01*
X132326054Y-91267126D01*
X132249826Y-91340244D01*
X132179878Y-91401303D01*
X132168413Y-91410596D01*
X132116980Y-91448319D01*
X132060500Y-91483981D01*
X132003323Y-91515239D01*
X131949794Y-91539753D01*
X131904262Y-91555182D01*
X131896675Y-91556935D01*
X131816044Y-91566493D01*
X131742438Y-91560646D01*
X131676913Y-91539970D01*
X131620525Y-91505039D01*
X131574327Y-91456428D01*
X131539375Y-91394713D01*
X131525033Y-91354385D01*
X131516256Y-91293522D01*
X131523228Y-91228573D01*
X131545120Y-91161812D01*
X131581103Y-91095515D01*
X131630349Y-91031957D01*
X131650011Y-91011331D01*
X131714863Y-90954843D01*
X131781197Y-90912193D01*
X131847468Y-90883447D01*
X131912131Y-90868673D01*
X131973640Y-90867938D01*
X132030450Y-90881309D01*
X132081016Y-90908853D01*
X132123792Y-90950637D01*
X132148946Y-90989662D01*
X132159542Y-91018995D01*
X132164697Y-91058489D01*
X132165494Y-91087321D01*
X132164526Y-91125561D01*
X132160227Y-91153665D01*
X132150873Y-91179178D01*
X132139413Y-91201309D01*
X132103584Y-91252716D01*
X132058046Y-91297857D01*
X132006464Y-91334253D01*
X131952507Y-91359424D01*
X131899840Y-91370892D01*
X131887901Y-91371330D01*
X131845890Y-91364432D01*
X131802400Y-91346272D01*
X131764114Y-91320342D01*
X131740193Y-91294113D01*
X131719441Y-91249578D01*
X131710652Y-91200323D01*
X131714901Y-91153315D01*
X131717217Y-91145376D01*
X131739469Y-91101674D01*
X131773355Y-91063839D01*
X131814671Y-91035136D01*
X131859211Y-91018831D01*
X131883441Y-91016330D01*
X131924485Y-91023667D01*
X131958512Y-91043364D01*
X131983725Y-91072076D01*
X131998327Y-91106458D01*
X132000523Y-91143168D01*
X131988516Y-91178861D01*
X131978445Y-91193176D01*
X131955627Y-91213138D01*
X131934393Y-91220585D01*
X131918058Y-91217090D01*
X131909938Y-91204225D01*
X131913348Y-91183563D01*
X131923138Y-91166943D01*
X131935426Y-91146891D01*
X131936573Y-91130824D01*
X131932054Y-91118468D01*
X131916099Y-91097634D01*
X131898590Y-91085367D01*
X131880186Y-91079822D01*
X131861921Y-91083178D01*
X131843362Y-91092157D01*
X131809398Y-91118691D01*
X131787417Y-91152611D01*
X131777766Y-91190163D01*
X131780795Y-91227595D01*
X131796854Y-91261154D01*
X131825290Y-91286503D01*
X131864891Y-91300177D01*
X131909522Y-91299701D01*
X131955939Y-91286636D01*
X132000900Y-91262543D01*
X132041162Y-91228985D01*
X132073481Y-91187522D01*
X132087375Y-91160312D01*
X132099790Y-91112808D01*
X132099997Y-91063547D01*
X132088783Y-91017542D01*
X132066934Y-90979808D01*
X132057500Y-90970005D01*
X132024058Y-90948485D01*
X131981740Y-90933298D01*
X131939122Y-90927516D01*
X131938951Y-90927516D01*
X131887331Y-90935127D01*
X131831456Y-90956346D01*
X131774716Y-90988758D01*
X131720501Y-91029945D01*
X131672200Y-91077492D01*
X131633205Y-91128980D01*
X131617725Y-91156520D01*
X131602410Y-91189933D01*
X131593603Y-91217583D01*
X131589576Y-91247245D01*
X131588601Y-91286693D01*
X131588601Y-91287586D01*
X131589311Y-91325624D01*
X131592429Y-91352292D01*
X131599434Y-91373950D01*
X131611808Y-91396960D01*
X131615445Y-91402912D01*
X131638489Y-91433499D01*
X131666726Y-91462185D01*
X131680562Y-91473240D01*
X131698948Y-91485466D01*
X131715262Y-91493291D01*
X131734195Y-91497692D01*
X131760438Y-91499648D01*
X131798682Y-91500140D01*
X131809494Y-91500148D01*
X131851691Y-91499781D01*
X131881982Y-91497866D01*
X131906216Y-91493183D01*
X131930240Y-91484512D01*
X131959901Y-91470632D01*
X131966496Y-91467384D01*
X132045955Y-91421497D01*
X132131207Y-91359655D01*
X132221632Y-91282459D01*
X132316608Y-91190510D01*
X132415515Y-91084410D01*
X132517732Y-90964761D01*
X132622639Y-90832164D01*
X132624399Y-90829858D01*
X132727688Y-90689405D01*
X132835408Y-90533317D01*
X132946812Y-90362942D01*
X133061153Y-90179630D01*
X133177683Y-89984728D01*
X133295653Y-89779587D01*
X133414318Y-89565553D01*
X133532929Y-89343977D01*
X133650738Y-89116207D01*
X133766998Y-88883592D01*
X133880962Y-88647479D01*
X133991882Y-88409219D01*
X134099010Y-88170160D01*
X134100637Y-88166454D01*
X134128014Y-88103735D01*
X134155893Y-88039230D01*
X134183444Y-87974918D01*
X134209841Y-87912779D01*
X134234253Y-87854793D01*
X134255852Y-87802940D01*
X134273809Y-87759198D01*
X134287297Y-87725548D01*
X134295485Y-87703970D01*
X134296474Y-87700358D01*
X134362981Y-87700358D01*
X134367420Y-87704797D01*
X134371859Y-87700358D01*
X134367420Y-87695919D01*
X134362981Y-87700358D01*
X134296474Y-87700358D01*
X134297545Y-87696443D01*
X134297318Y-87696602D01*
X134291372Y-87704675D01*
X134276798Y-87725129D01*
X134255132Y-87755784D01*
X134227914Y-87794463D01*
X134196680Y-87838989D01*
X134184964Y-87855723D01*
X133969918Y-88152742D01*
X133737636Y-88453840D01*
X133488152Y-88758977D01*
X133221500Y-89068113D01*
X132937714Y-89381206D01*
X132636829Y-89698216D01*
X132560097Y-89776895D01*
X132406409Y-89930304D01*
X132252007Y-90077893D01*
X132098194Y-90218586D01*
X131946272Y-90351305D01*
X131797543Y-90474974D01*
X131653309Y-90588517D01*
X131514872Y-90690858D01*
X131383535Y-90780919D01*
X131260601Y-90857625D01*
X131234232Y-90872933D01*
X131130311Y-90926583D01*
X131031282Y-90966126D01*
X130937945Y-90991504D01*
X130851099Y-91002659D01*
X130771542Y-90999534D01*
X130700074Y-90982071D01*
X130637494Y-90950214D01*
X130598639Y-90918577D01*
X130560312Y-90877131D01*
X130535199Y-90838095D01*
X130520907Y-90795786D01*
X130515041Y-90744522D01*
X130514514Y-90718883D01*
X130515120Y-90677780D01*
X130518019Y-90647734D01*
X130524549Y-90622071D01*
X130536047Y-90594120D01*
X130542112Y-90581274D01*
X130588064Y-90506077D01*
X130649031Y-90440089D01*
X130724623Y-90383691D01*
X130772571Y-90356755D01*
X130844488Y-90327048D01*
X130917577Y-90309260D01*
X130988786Y-90303497D01*
X131055062Y-90309866D01*
X131113355Y-90328475D01*
X131140766Y-90343869D01*
X131184244Y-90382584D01*
X131216955Y-90430942D01*
X131237236Y-90484928D01*
X131243426Y-90540529D01*
X131238235Y-90579261D01*
X131213320Y-90643338D01*
X131174087Y-90700435D01*
X131123300Y-90748416D01*
X131063725Y-90785143D01*
X130998126Y-90808478D01*
X130931628Y-90816296D01*
X130870243Y-90808044D01*
X130815813Y-90784092D01*
X130770393Y-90745440D01*
X130759895Y-90732554D01*
X130743810Y-90709788D01*
X130735248Y-90691195D01*
X130732327Y-90669763D01*
X130733163Y-90638476D01*
X130733416Y-90633915D01*
X130743331Y-90576409D01*
X130766642Y-90529841D01*
X130804476Y-90492308D01*
X130825831Y-90478274D01*
X130876130Y-90456507D01*
X130925079Y-90449542D01*
X130970035Y-90456810D01*
X131008356Y-90477744D01*
X131037399Y-90511776D01*
X131044245Y-90525210D01*
X131056760Y-90568144D01*
X131053001Y-90605538D01*
X131032656Y-90639630D01*
X131027467Y-90645318D01*
X131001389Y-90663997D01*
X130974181Y-90669773D01*
X130950746Y-90662029D01*
X130944173Y-90655806D01*
X130938511Y-90645121D01*
X130943236Y-90634274D01*
X130960497Y-90618424D01*
X130960922Y-90618075D01*
X130983595Y-90591719D01*
X130989171Y-90565045D01*
X130977555Y-90539739D01*
X130965943Y-90528650D01*
X130941241Y-90514195D01*
X130915785Y-90511805D01*
X130884378Y-90521450D01*
X130870065Y-90528135D01*
X130831870Y-90553710D01*
X130808506Y-90586686D01*
X130797858Y-90627487D01*
X130800072Y-90669437D01*
X130816732Y-90703908D01*
X130845720Y-90729817D01*
X130884915Y-90746079D01*
X130932200Y-90751610D01*
X130985455Y-90745325D01*
X131013044Y-90737618D01*
X131058326Y-90715893D01*
X131102465Y-90683214D01*
X131139511Y-90644593D01*
X131159127Y-90614610D01*
X131174574Y-90568001D01*
X131176832Y-90518748D01*
X131166878Y-90471178D01*
X131145693Y-90429617D01*
X131114254Y-90398392D01*
X131109526Y-90395355D01*
X131058102Y-90374073D01*
X130999157Y-90366253D01*
X130935398Y-90370838D01*
X130869532Y-90386774D01*
X130804266Y-90413008D01*
X130742307Y-90448484D01*
X130686361Y-90492149D01*
X130639135Y-90542949D01*
X130608002Y-90590704D01*
X130582469Y-90653961D01*
X130573390Y-90714517D01*
X130579511Y-90770935D01*
X130599574Y-90821778D01*
X130632324Y-90865608D01*
X130676504Y-90900989D01*
X130730859Y-90926482D01*
X130794132Y-90940652D01*
X130865068Y-90942059D01*
X130910035Y-90936316D01*
X130994654Y-90914393D01*
X131088759Y-90877518D01*
X131192299Y-90825717D01*
X131305225Y-90759017D01*
X131427486Y-90677443D01*
X131504260Y-90622142D01*
X131674429Y-90492577D01*
X131842411Y-90356658D01*
X132010247Y-90212575D01*
X132179975Y-90058519D01*
X132353635Y-89892681D01*
X132533267Y-89713252D01*
X132561896Y-89683985D01*
X132672067Y-89570506D01*
X132771888Y-89466501D01*
X132863887Y-89369217D01*
X132950590Y-89275904D01*
X133034525Y-89183809D01*
X133118219Y-89090180D01*
X133204200Y-88992266D01*
X133294993Y-88887315D01*
X133315831Y-88863047D01*
X133416960Y-88744606D01*
X133508031Y-88636708D01*
X133591022Y-88536844D01*
X133667915Y-88442505D01*
X133740689Y-88351182D01*
X133811323Y-88260366D01*
X133881798Y-88167548D01*
X133954093Y-88070219D01*
X134030189Y-87965871D01*
X134096627Y-87873564D01*
X134143152Y-87808620D01*
X134179689Y-87757235D01*
X134205920Y-87719255D01*
X134221531Y-87694527D01*
X134226204Y-87682897D01*
X134219624Y-87684212D01*
X134201473Y-87698318D01*
X134171437Y-87725062D01*
X134129199Y-87764291D01*
X134074442Y-87815850D01*
X134041592Y-87846845D01*
X133948908Y-87932450D01*
X133843734Y-88026378D01*
X133728205Y-88126880D01*
X133604454Y-88232207D01*
X133474617Y-88340610D01*
X133340826Y-88450341D01*
X133205215Y-88559650D01*
X133069920Y-88666789D01*
X132937073Y-88770010D01*
X132808810Y-88867563D01*
X132687263Y-88957699D01*
X132676158Y-88965802D01*
X132456278Y-89123754D01*
X132247479Y-89269104D01*
X132048901Y-89402393D01*
X131859689Y-89524164D01*
X131678985Y-89634957D01*
X131505931Y-89735316D01*
X131339670Y-89825782D01*
X131215724Y-89889048D01*
X131096789Y-89946634D01*
X130990968Y-89994916D01*
X130896603Y-90034448D01*
X130812038Y-90065780D01*
X130735618Y-90089464D01*
X130665684Y-90106054D01*
X130600581Y-90116101D01*
X130538653Y-90120156D01*
X130521820Y-90120294D01*
X130441436Y-90113351D01*
X130371239Y-90093651D01*
X130312226Y-90061859D01*
X130265396Y-90018640D01*
X130231745Y-89964661D01*
X130215336Y-89915723D01*
X130211240Y-89859891D01*
X130222952Y-89801649D01*
X130249243Y-89743581D01*
X130288880Y-89688271D01*
X130340633Y-89638301D01*
X130351596Y-89629728D01*
X130419957Y-89586234D01*
X130490968Y-89558332D01*
X130569764Y-89544033D01*
X130573794Y-89543657D01*
X130647967Y-89543071D01*
X130712686Y-89554863D01*
X130766766Y-89578279D01*
X130809022Y-89612563D01*
X130838271Y-89656961D01*
X130853327Y-89710718D01*
X130854539Y-89722632D01*
X130852020Y-89780356D01*
X130834444Y-89831558D01*
X130800581Y-89879526D01*
X130792503Y-89888235D01*
X130744636Y-89927872D01*
X130690808Y-89955348D01*
X130634008Y-89970542D01*
X130577227Y-89973328D01*
X130523453Y-89963584D01*
X130475678Y-89941186D01*
X130436891Y-89906011D01*
X130434549Y-89903013D01*
X130412963Y-89862167D01*
X130406669Y-89819578D01*
X130413682Y-89777588D01*
X130432012Y-89738535D01*
X130459674Y-89704762D01*
X130494679Y-89678608D01*
X130535041Y-89662414D01*
X130578773Y-89658521D01*
X130623886Y-89669268D01*
X130630513Y-89672222D01*
X130658873Y-89692672D01*
X130681829Y-89721712D01*
X130694881Y-89752960D01*
X130696327Y-89765544D01*
X130690032Y-89792266D01*
X130674430Y-89821568D01*
X130654346Y-89845387D01*
X130644211Y-89852678D01*
X130620369Y-89858847D01*
X130603080Y-89851890D01*
X130594647Y-89835922D01*
X130597373Y-89815057D01*
X130611884Y-89794917D01*
X130626848Y-89776420D01*
X130632691Y-89759656D01*
X130632508Y-89757753D01*
X130621113Y-89740715D01*
X130597988Y-89728224D01*
X130569029Y-89722688D01*
X130549796Y-89723974D01*
X130520210Y-89736705D01*
X130493097Y-89760329D01*
X130473269Y-89789436D01*
X130465532Y-89818616D01*
X130465532Y-89818756D01*
X130473757Y-89848885D01*
X130495931Y-89875449D01*
X130528300Y-89896271D01*
X130567111Y-89909178D01*
X130608612Y-89911993D01*
X130623248Y-89910161D01*
X130676170Y-89894079D01*
X130720754Y-89868022D01*
X130755727Y-89834424D01*
X130779820Y-89795723D01*
X130791762Y-89754354D01*
X130790280Y-89712753D01*
X130774106Y-89673355D01*
X130757628Y-89652615D01*
X130730427Y-89629355D01*
X130700064Y-89614523D01*
X130662388Y-89606969D01*
X130613253Y-89605540D01*
X130590992Y-89606350D01*
X130511315Y-89618057D01*
X130439113Y-89644469D01*
X130376247Y-89684612D01*
X130324574Y-89737511D01*
X130314472Y-89751374D01*
X130285916Y-89805394D01*
X130274076Y-89858112D01*
X130277915Y-89907982D01*
X130296394Y-89953460D01*
X130328476Y-89993000D01*
X130373123Y-90025058D01*
X130429298Y-90048087D01*
X130495961Y-90060543D01*
X130523239Y-90062167D01*
X130588057Y-90058198D01*
X130665774Y-90043392D01*
X130755531Y-90018137D01*
X130856468Y-89982818D01*
X130967726Y-89937823D01*
X131088445Y-89883539D01*
X131217764Y-89820352D01*
X131354826Y-89748649D01*
X131498769Y-89668818D01*
X131648734Y-89581244D01*
X131803863Y-89486315D01*
X131806112Y-89484908D01*
X132071942Y-89313316D01*
X132345211Y-89126746D01*
X132624998Y-88925884D01*
X132910380Y-88711415D01*
X133200435Y-88484023D01*
X133494240Y-88244395D01*
X133634821Y-88126503D01*
X133676167Y-88090943D01*
X133727656Y-88045749D01*
X133786494Y-87993450D01*
X133849889Y-87936577D01*
X133915046Y-87877657D01*
X133979172Y-87819221D01*
X134039474Y-87763796D01*
X134093159Y-87713914D01*
X134126315Y-87682602D01*
X134300835Y-87682602D01*
X134305274Y-87687041D01*
X134309713Y-87682602D01*
X134305274Y-87678163D01*
X134300835Y-87682602D01*
X134126315Y-87682602D01*
X134137433Y-87672102D01*
X134149908Y-87660115D01*
X134182828Y-87627847D01*
X134203275Y-87606623D01*
X134211948Y-87595577D01*
X134209543Y-87593845D01*
X134199035Y-87599210D01*
X133984628Y-87721469D01*
X133765110Y-87840209D01*
X133542998Y-87954247D01*
X133320807Y-88062400D01*
X133101052Y-88163483D01*
X132886248Y-88256313D01*
X132678911Y-88339706D01*
X132481555Y-88412479D01*
X132440890Y-88426549D01*
X132218783Y-88499791D01*
X132007318Y-88563805D01*
X131802574Y-88619518D01*
X131600630Y-88667859D01*
X131397563Y-88709756D01*
X131189453Y-88746137D01*
X130972378Y-88777931D01*
X130936067Y-88782717D01*
X130847713Y-88795109D01*
X130774847Y-88807621D01*
X130715215Y-88820996D01*
X130666559Y-88835979D01*
X130626625Y-88853314D01*
X130593156Y-88873745D01*
X130563895Y-88898018D01*
X130552621Y-88909220D01*
X130518502Y-88954874D01*
X130501809Y-89002336D01*
X130502642Y-89050838D01*
X130521099Y-89099609D01*
X130526794Y-89109139D01*
X130562896Y-89150157D01*
X130611958Y-89179578D01*
X130674274Y-89197538D01*
X130727653Y-89203459D01*
X130797859Y-89201326D01*
X130857770Y-89187475D01*
X130906156Y-89162532D01*
X130941790Y-89127121D01*
X130962861Y-89083857D01*
X130968966Y-89057367D01*
X130967032Y-89036612D01*
X130957188Y-89013069D01*
X130930167Y-88974538D01*
X130893318Y-88950221D01*
X130845564Y-88939501D01*
X130827777Y-88938841D01*
X130775965Y-88944417D01*
X130736073Y-88960552D01*
X130709352Y-88986351D01*
X130697052Y-89020925D01*
X130696361Y-89032660D01*
X130703807Y-89063045D01*
X130725072Y-89083269D01*
X130758544Y-89091956D01*
X130766091Y-89092189D01*
X130791006Y-89090694D01*
X130808623Y-89087002D01*
X130810664Y-89086015D01*
X130819774Y-89071830D01*
X130818103Y-89053922D01*
X130806741Y-89041939D01*
X130796264Y-89029006D01*
X130795644Y-89012135D01*
X130803535Y-88992602D01*
X130818790Y-88985321D01*
X130837834Y-88988557D01*
X130857093Y-89000575D01*
X130872991Y-89019640D01*
X130881954Y-89044017D01*
X130882799Y-89054435D01*
X130875307Y-89093169D01*
X130854965Y-89123474D01*
X130824968Y-89144519D01*
X130788516Y-89155472D01*
X130748806Y-89155502D01*
X130709034Y-89143776D01*
X130672400Y-89119462D01*
X130664106Y-89111319D01*
X130638807Y-89073674D01*
X130629347Y-89033603D01*
X130634439Y-88993381D01*
X130652799Y-88955278D01*
X130683142Y-88921569D01*
X130724181Y-88894525D01*
X130774633Y-88876420D01*
X130799514Y-88871867D01*
X130857794Y-88871734D01*
X130911753Y-88885881D01*
X130958784Y-88912416D01*
X130996286Y-88949445D01*
X131021652Y-88995078D01*
X131031850Y-89040641D01*
X131028048Y-89093077D01*
X131008960Y-89140608D01*
X130976632Y-89182186D01*
X130933112Y-89216763D01*
X130880445Y-89243291D01*
X130820677Y-89260722D01*
X130755856Y-89268007D01*
X130688027Y-89264099D01*
X130624052Y-89249504D01*
X130560861Y-89222024D01*
X130509654Y-89184393D01*
X130471430Y-89138577D01*
X130447188Y-89086540D01*
X130437927Y-89030248D01*
X130444644Y-88971666D01*
X130460580Y-88927806D01*
X130495729Y-88874486D01*
X130546786Y-88828760D01*
X130613568Y-88790718D01*
X130695891Y-88760446D01*
X130793572Y-88738035D01*
X130878360Y-88726273D01*
X131176134Y-88686866D01*
X131479727Y-88631107D01*
X131788497Y-88559182D01*
X132101801Y-88471278D01*
X132418995Y-88367579D01*
X132739436Y-88248273D01*
X133062483Y-88113545D01*
X133186498Y-88058021D01*
X133272935Y-88017745D01*
X133366679Y-87972551D01*
X133465744Y-87923500D01*
X133568144Y-87871655D01*
X133671892Y-87818078D01*
X133775003Y-87763830D01*
X133875490Y-87709975D01*
X133971367Y-87657574D01*
X134060648Y-87607689D01*
X134141346Y-87561383D01*
X134211475Y-87519718D01*
X134269049Y-87483755D01*
X134302250Y-87461514D01*
X134676744Y-87461514D01*
X134682918Y-87464981D01*
X134687028Y-87466217D01*
X134711722Y-87471918D01*
X134749862Y-87479274D01*
X134797294Y-87487608D01*
X134849863Y-87496240D01*
X134903414Y-87504490D01*
X134953792Y-87511681D01*
X134996842Y-87517131D01*
X135002198Y-87517733D01*
X135042898Y-87520782D01*
X135097559Y-87522783D01*
X135162883Y-87523796D01*
X135235573Y-87523883D01*
X135312334Y-87523104D01*
X135389867Y-87521520D01*
X135464876Y-87519193D01*
X135534064Y-87516183D01*
X135594135Y-87512550D01*
X135641791Y-87508357D01*
X135663610Y-87505510D01*
X135798596Y-87482067D01*
X135922151Y-87455855D01*
X136039955Y-87425318D01*
X136157685Y-87388897D01*
X136281023Y-87345033D01*
X136360534Y-87314315D01*
X136577048Y-87219064D01*
X136786156Y-87107976D01*
X136986808Y-86981793D01*
X137177953Y-86841257D01*
X137358542Y-86687111D01*
X137527524Y-86520095D01*
X137604497Y-86435241D01*
X137695469Y-86325409D01*
X137775393Y-86215583D01*
X137847827Y-86100386D01*
X137916334Y-85974441D01*
X137936713Y-85933633D01*
X137985325Y-85828891D01*
X138023164Y-85733623D01*
X138051196Y-85643983D01*
X138070388Y-85556125D01*
X138081707Y-85466203D01*
X138086120Y-85370371D01*
X138086237Y-85338806D01*
X138084263Y-85258727D01*
X138078583Y-85191496D01*
X138068247Y-85132418D01*
X138052300Y-85076801D01*
X138029792Y-85019950D01*
X138015073Y-84988125D01*
X137983072Y-84921539D01*
X137971753Y-84957052D01*
X137964150Y-84980875D01*
X137952931Y-85015985D01*
X137939894Y-85056758D01*
X137932029Y-85081344D01*
X137886436Y-85210615D01*
X137830934Y-85346160D01*
X137768256Y-85482076D01*
X137701135Y-85612455D01*
X137632303Y-85731393D01*
X137628003Y-85738317D01*
X137527135Y-85889225D01*
X137412531Y-86041545D01*
X137287452Y-86191552D01*
X137155161Y-86335522D01*
X137018918Y-86469731D01*
X136881985Y-86590454D01*
X136881388Y-86590948D01*
X136696610Y-86733959D01*
X136500082Y-86867496D01*
X136294731Y-86989920D01*
X136083488Y-87099592D01*
X135869279Y-87194871D01*
X135670514Y-87268944D01*
X135514426Y-87318289D01*
X135363077Y-87359082D01*
X135211943Y-87392215D01*
X135056501Y-87418582D01*
X134892225Y-87439077D01*
X134740296Y-87452699D01*
X134703693Y-87455815D01*
X134683089Y-87458606D01*
X134676744Y-87461514D01*
X134302250Y-87461514D01*
X134303340Y-87460784D01*
X134310434Y-87455989D01*
X134314571Y-87452286D01*
X134313699Y-87449124D01*
X134305766Y-87445949D01*
X134288720Y-87442210D01*
X134260509Y-87437354D01*
X134219080Y-87430829D01*
X134162381Y-87422082D01*
X134155719Y-87421053D01*
X134045108Y-87400281D01*
X133988380Y-87386343D01*
X134487273Y-87386343D01*
X134495690Y-87389231D01*
X134519178Y-87390978D01*
X134555098Y-87391663D01*
X134600807Y-87391369D01*
X134653663Y-87390177D01*
X134711025Y-87388167D01*
X134770251Y-87385421D01*
X134828700Y-87382019D01*
X134883729Y-87378044D01*
X134932699Y-87373575D01*
X134944491Y-87372300D01*
X135158576Y-87340213D01*
X135376057Y-87292042D01*
X135594572Y-87228497D01*
X135811760Y-87150293D01*
X136025258Y-87058140D01*
X136090389Y-87026819D01*
X136269423Y-86933803D01*
X136435248Y-86837263D01*
X136592403Y-86734200D01*
X136745428Y-86621611D01*
X136898862Y-86496497D01*
X136919849Y-86478489D01*
X136965330Y-86438856D01*
X137004141Y-86404294D01*
X137035409Y-86375686D01*
X137058260Y-86353915D01*
X137071819Y-86339865D01*
X137075211Y-86334420D01*
X137067563Y-86338461D01*
X137048001Y-86352874D01*
X137030824Y-86366355D01*
X136967298Y-86413651D01*
X136891407Y-86464727D01*
X136807355Y-86516977D01*
X136719345Y-86567792D01*
X136631578Y-86614562D01*
X136627754Y-86616504D01*
X136440229Y-86704229D01*
X136255349Y-86775674D01*
X136070516Y-86831525D01*
X135883132Y-86872465D01*
X135690600Y-86899179D01*
X135507983Y-86911733D01*
X135447273Y-86913794D01*
X135402209Y-86914139D01*
X135370701Y-86911893D01*
X135350659Y-86906178D01*
X135339992Y-86896119D01*
X135336612Y-86880840D01*
X135338426Y-86859464D01*
X135339210Y-86854831D01*
X135400787Y-86854831D01*
X135527759Y-86848582D01*
X135585228Y-86845121D01*
X135647516Y-86840331D01*
X135707070Y-86834850D01*
X135755815Y-86829380D01*
X135955104Y-86795309D01*
X136151907Y-86744391D01*
X136346939Y-86676384D01*
X136540914Y-86591047D01*
X136688352Y-86514294D01*
X136762209Y-86472544D01*
X136826725Y-86434159D01*
X136885143Y-86396806D01*
X136940702Y-86358155D01*
X136996646Y-86315874D01*
X137056214Y-86267631D01*
X137122648Y-86211094D01*
X137181750Y-86159357D01*
X137317486Y-86027983D01*
X137443351Y-85882634D01*
X137558586Y-85724575D01*
X137662431Y-85555070D01*
X137754126Y-85375386D01*
X137832911Y-85186786D01*
X137898027Y-84990537D01*
X137910656Y-84945676D01*
X137934165Y-84859393D01*
X137871656Y-84801686D01*
X137834952Y-84770652D01*
X137793311Y-84739775D01*
X137754392Y-84714646D01*
X137745810Y-84709822D01*
X137682472Y-84675665D01*
X137619190Y-84699122D01*
X137588046Y-84709545D01*
X137544415Y-84722632D01*
X137493103Y-84737013D01*
X137438916Y-84751320D01*
X137413219Y-84757778D01*
X137299816Y-84786074D01*
X137201518Y-84811415D01*
X137116064Y-84834547D01*
X137041194Y-84856221D01*
X136974647Y-84877184D01*
X136914164Y-84898185D01*
X136857483Y-84919973D01*
X136802345Y-84943296D01*
X136746488Y-84968902D01*
X136687653Y-84997541D01*
X136684581Y-84999071D01*
X136518037Y-85091976D01*
X136361134Y-85199626D01*
X136214080Y-85321723D01*
X136077083Y-85457968D01*
X135950351Y-85608063D01*
X135834092Y-85771710D01*
X135728513Y-85948611D01*
X135633822Y-86138468D01*
X135550228Y-86340983D01*
X135477938Y-86555858D01*
X135417161Y-86782793D01*
X135405492Y-86833694D01*
X135400787Y-86854831D01*
X135339210Y-86854831D01*
X135341399Y-86841899D01*
X135350935Y-86795669D01*
X135364887Y-86736980D01*
X135382062Y-86670218D01*
X135401265Y-86599771D01*
X135421302Y-86530026D01*
X135440980Y-86465370D01*
X135458119Y-86413046D01*
X135541212Y-86196562D01*
X135637786Y-85991370D01*
X135747737Y-85797657D01*
X135870960Y-85615609D01*
X135982158Y-85474782D01*
X136114498Y-85331716D01*
X136258040Y-85202389D01*
X136412832Y-85086768D01*
X136578924Y-84984819D01*
X136756364Y-84896510D01*
X136945203Y-84821807D01*
X136954388Y-84818620D01*
X137009201Y-84800266D01*
X137063255Y-84783436D01*
X137120080Y-84767165D01*
X137183205Y-84750490D01*
X137256159Y-84732448D01*
X137342472Y-84712075D01*
X137356857Y-84708743D01*
X137408542Y-84696463D01*
X137458012Y-84684115D01*
X137500931Y-84672821D01*
X137532961Y-84663708D01*
X137543296Y-84660403D01*
X137590139Y-84644335D01*
X137570681Y-84640254D01*
X137741065Y-84640254D01*
X137795106Y-84667921D01*
X137831472Y-84689441D01*
X137870492Y-84716940D01*
X137897203Y-84738814D01*
X137920873Y-84759412D01*
X137938946Y-84773839D01*
X137947935Y-84779335D01*
X137948260Y-84779245D01*
X137950684Y-84769827D01*
X137954785Y-84746732D01*
X137959898Y-84713885D01*
X137963326Y-84690065D01*
X137970783Y-84621261D01*
X137975300Y-84541558D01*
X137976968Y-84448619D01*
X137976218Y-84357786D01*
X137975035Y-84291200D01*
X137958504Y-84337706D01*
X137925057Y-84416059D01*
X137882424Y-84485767D01*
X137826970Y-84552555D01*
X137812295Y-84567824D01*
X137741065Y-84640254D01*
X137570681Y-84640254D01*
X137541310Y-84634094D01*
X137436976Y-84616151D01*
X137335312Y-84607243D01*
X137232801Y-84607532D01*
X137125925Y-84617179D01*
X137011165Y-84636345D01*
X136890085Y-84663906D01*
X136808324Y-84685968D01*
X136731911Y-84710009D01*
X136656308Y-84737748D01*
X136576976Y-84770906D01*
X136489377Y-84811205D01*
X136444875Y-84832702D01*
X136273852Y-84924411D01*
X136108341Y-85029840D01*
X135946984Y-85149999D01*
X135788424Y-85285899D01*
X135632288Y-85437537D01*
X135576083Y-85497310D01*
X135516131Y-85565056D01*
X135451474Y-85641960D01*
X135381156Y-85729210D01*
X135304219Y-85827991D01*
X135219707Y-85939491D01*
X135131237Y-86058677D01*
X135051085Y-86173991D01*
X134969554Y-86303370D01*
X134888453Y-86443415D01*
X134809590Y-86590722D01*
X134734773Y-86741892D01*
X134665809Y-86893521D01*
X134604507Y-87042209D01*
X134594127Y-87069182D01*
X134578926Y-87110118D01*
X134562166Y-87156832D01*
X134544894Y-87206222D01*
X134528156Y-87255185D01*
X134512997Y-87300616D01*
X134500463Y-87339411D01*
X134491599Y-87368469D01*
X134487451Y-87384684D01*
X134487273Y-87386343D01*
X133988380Y-87386343D01*
X133930699Y-87372171D01*
X133820550Y-87338851D01*
X133753577Y-87314838D01*
X133700880Y-87293141D01*
X133665189Y-87274684D01*
X133646266Y-87258477D01*
X133645483Y-87253592D01*
X133763860Y-87253592D01*
X133794861Y-87266808D01*
X133843551Y-87284670D01*
X133905993Y-87303187D01*
X133978240Y-87321554D01*
X134056348Y-87338967D01*
X134136371Y-87354623D01*
X134214363Y-87367716D01*
X134286381Y-87377443D01*
X134348478Y-87382999D01*
X134369009Y-87383858D01*
X134423867Y-87385189D01*
X134438370Y-87334140D01*
X134467989Y-87238548D01*
X134505763Y-87130805D01*
X134550519Y-87013869D01*
X134601088Y-86890700D01*
X134656298Y-86764256D01*
X134709835Y-86648313D01*
X134770882Y-86519582D01*
X134689004Y-86605273D01*
X134543828Y-86749089D01*
X134398121Y-86877348D01*
X134252866Y-86989210D01*
X134181828Y-87037997D01*
X134134043Y-87067817D01*
X134076094Y-87101390D01*
X134012445Y-87136358D01*
X133947558Y-87170361D01*
X133885895Y-87201041D01*
X133831921Y-87226037D01*
X133803739Y-87237859D01*
X133763860Y-87253592D01*
X133645483Y-87253592D01*
X133643871Y-87243531D01*
X133657765Y-87228854D01*
X133687710Y-87213457D01*
X133725647Y-87199051D01*
X133883463Y-87135204D01*
X134039006Y-87054606D01*
X134192605Y-86957039D01*
X134344590Y-86842282D01*
X134495288Y-86710118D01*
X134572050Y-86635646D01*
X134675308Y-86528815D01*
X134691501Y-86510704D01*
X134771369Y-86510704D01*
X134775808Y-86515143D01*
X134780247Y-86510704D01*
X134775808Y-86506265D01*
X134771369Y-86510704D01*
X134691501Y-86510704D01*
X134767487Y-86425716D01*
X134852863Y-86321160D01*
X134935709Y-86209957D01*
X135004064Y-86111193D01*
X135117806Y-85946947D01*
X135228268Y-85797559D01*
X135337254Y-85660871D01*
X135446569Y-85534729D01*
X135558016Y-85416977D01*
X135673398Y-85305458D01*
X135694280Y-85286286D01*
X135851375Y-85149418D01*
X136005122Y-85028554D01*
X136157242Y-84922682D01*
X136309457Y-84830789D01*
X136463487Y-84751861D01*
X136621055Y-84684887D01*
X136783882Y-84628854D01*
X136839947Y-84612341D01*
X136973771Y-84578086D01*
X137096578Y-84554653D01*
X137211398Y-84542004D01*
X137321264Y-84540103D01*
X137429206Y-84548913D01*
X137538256Y-84568395D01*
X137651444Y-84598513D01*
X137663513Y-84602235D01*
X137673813Y-84603150D01*
X137686121Y-84598361D01*
X137702906Y-84586042D01*
X137726638Y-84564366D01*
X137759785Y-84531507D01*
X137761518Y-84529757D01*
X137820734Y-84463766D01*
X137865063Y-84399064D01*
X137896483Y-84331387D01*
X137916972Y-84256473D01*
X137928509Y-84170058D01*
X137928525Y-84169871D01*
X137928476Y-84105599D01*
X137917020Y-84040280D01*
X137893263Y-83969922D01*
X137873973Y-83926240D01*
X137849100Y-83877261D01*
X137820816Y-83829061D01*
X137787768Y-83779983D01*
X137748603Y-83728365D01*
X137701970Y-83672549D01*
X137646515Y-83610875D01*
X137580886Y-83541685D01*
X137503729Y-83463317D01*
X137465874Y-83425594D01*
X137366544Y-83325872D01*
X137279668Y-83235814D01*
X137204010Y-83153772D01*
X137138334Y-83078102D01*
X137081404Y-83007159D01*
X137031984Y-82939296D01*
X136988838Y-82872869D01*
X136950731Y-82806232D01*
X136916426Y-82737740D01*
X136884688Y-82665748D01*
X136872358Y-82635408D01*
X136822127Y-82486715D01*
X136789183Y-82337094D01*
X136773566Y-82187357D01*
X136775320Y-82038314D01*
X136794484Y-81890776D01*
X136827306Y-81757800D01*
X136859774Y-81668262D01*
X136902229Y-81577333D01*
X136951971Y-81489755D01*
X137006297Y-81410269D01*
X137062508Y-81343616D01*
X137064387Y-81341666D01*
X137083098Y-81321311D01*
X137094731Y-81306621D01*
X137096855Y-81301429D01*
X137087107Y-81298676D01*
X137063614Y-81293256D01*
X137030044Y-81285988D01*
X136995312Y-81278760D01*
X136943244Y-81268063D01*
X136882995Y-81255614D01*
X136823758Y-81243315D01*
X136793111Y-81236922D01*
X136688568Y-81215061D01*
X136584478Y-81254818D01*
X136507723Y-81282471D01*
X136437541Y-81304480D01*
X136376475Y-81320160D01*
X136327069Y-81328829D01*
X136303272Y-81330383D01*
X136240044Y-81323428D01*
X136174244Y-81304221D01*
X136112521Y-81275247D01*
X136063619Y-81240849D01*
X136034620Y-81208932D01*
X136007432Y-81167956D01*
X135986112Y-81124878D01*
X135975115Y-81089081D01*
X135975001Y-81056278D01*
X136033540Y-81056278D01*
X136041902Y-81101942D01*
X136067300Y-81148542D01*
X136098763Y-81184891D01*
X136153717Y-81227273D01*
X136216921Y-81254841D01*
X136286012Y-81267022D01*
X136358632Y-81263239D01*
X136391607Y-81256235D01*
X136435997Y-81244577D01*
X136391074Y-81240116D01*
X136375853Y-81237163D01*
X136449314Y-81237163D01*
X136453753Y-81241602D01*
X136458192Y-81237163D01*
X136453753Y-81232724D01*
X136449314Y-81237163D01*
X136375853Y-81237163D01*
X136354453Y-81233011D01*
X136317048Y-81220619D01*
X136306510Y-81215857D01*
X136266827Y-81188452D01*
X136240601Y-81154549D01*
X136228073Y-81117197D01*
X136229158Y-81088220D01*
X136288547Y-81088220D01*
X136289266Y-81109779D01*
X136302707Y-81133602D01*
X136325202Y-81155127D01*
X136353079Y-81169796D01*
X136354612Y-81170287D01*
X136374401Y-81173383D01*
X136405182Y-81174860D01*
X136442414Y-81174887D01*
X136481556Y-81173633D01*
X136518069Y-81171266D01*
X136547413Y-81167956D01*
X136565047Y-81163870D01*
X136567522Y-81162381D01*
X136567311Y-81151953D01*
X136553768Y-81136774D01*
X136530027Y-81118744D01*
X136499219Y-81099762D01*
X136464476Y-81081728D01*
X136428930Y-81066543D01*
X136395714Y-81056105D01*
X136390327Y-81054898D01*
X136345876Y-81050894D01*
X136312881Y-81059467D01*
X136292035Y-81080393D01*
X136288547Y-81088220D01*
X136229158Y-81088220D01*
X136229486Y-81079446D01*
X136245082Y-81044346D01*
X136275103Y-81014947D01*
X136289853Y-81006158D01*
X136323184Y-80996175D01*
X136365195Y-80993627D01*
X136408455Y-80998476D01*
X136437132Y-81006896D01*
X136471509Y-81020773D01*
X136444875Y-80998497D01*
X136389612Y-80960387D01*
X136330007Y-80933404D01*
X136268925Y-80917756D01*
X136209232Y-80913650D01*
X136153794Y-80921295D01*
X136105478Y-80940898D01*
X136068411Y-80971209D01*
X136042335Y-81012413D01*
X136033540Y-81056278D01*
X135975001Y-81056278D01*
X135974944Y-81039712D01*
X135990099Y-80990055D01*
X136018548Y-80943550D01*
X136058257Y-80903634D01*
X136100671Y-80876802D01*
X136145168Y-80862392D01*
X136199885Y-80855755D01*
X136259085Y-80856877D01*
X136317029Y-80865745D01*
X136356095Y-80877425D01*
X136422098Y-80909833D01*
X136489945Y-80956684D01*
X136556132Y-81015489D01*
X136569167Y-81028784D01*
X136616307Y-81077350D01*
X136653120Y-81113689D01*
X136680925Y-81138976D01*
X136701044Y-81154386D01*
X136714798Y-81161094D01*
X136718524Y-81161606D01*
X136732841Y-81163479D01*
X136762718Y-81168791D01*
X136806369Y-81177185D01*
X136862008Y-81188303D01*
X136927849Y-81201788D01*
X137002107Y-81217282D01*
X137082996Y-81234428D01*
X137092833Y-81236530D01*
X137126444Y-81243155D01*
X137147975Y-81245342D01*
X137162537Y-81243097D01*
X137174955Y-81236615D01*
X137189866Y-81224255D01*
X137195067Y-81215604D01*
X137187888Y-81206631D01*
X137167301Y-81188999D01*
X137134728Y-81163806D01*
X137091594Y-81132153D01*
X137039322Y-81095141D01*
X137038150Y-81094324D01*
X137017176Y-81079543D01*
X136985683Y-81057156D01*
X136947561Y-81029936D01*
X136906699Y-81000655D01*
X136896860Y-80993589D01*
X136792635Y-80918696D01*
X136654267Y-80912216D01*
X136556311Y-80904326D01*
X136473077Y-80890075D01*
X136402436Y-80868693D01*
X136356884Y-80846531D01*
X136546972Y-80846531D01*
X136551411Y-80850970D01*
X136555850Y-80846531D01*
X136551411Y-80842092D01*
X136546972Y-80846531D01*
X136356884Y-80846531D01*
X136342256Y-80839414D01*
X136290410Y-80801470D01*
X136257905Y-80769310D01*
X136220703Y-80719917D01*
X136198200Y-80668331D01*
X136188402Y-80609295D01*
X136187891Y-80593190D01*
X136247369Y-80593190D01*
X136255579Y-80640937D01*
X136276477Y-80688535D01*
X136310212Y-80733326D01*
X136322050Y-80745069D01*
X136356782Y-80774916D01*
X136389748Y-80796401D01*
X136428507Y-80813986D01*
X136454993Y-80823601D01*
X136492784Y-80835761D01*
X136514491Y-80840662D01*
X136520243Y-80838276D01*
X136510172Y-80828576D01*
X136491573Y-80816014D01*
X136452919Y-80786351D01*
X136428106Y-80753380D01*
X136413309Y-80711997D01*
X136413157Y-80711341D01*
X136411205Y-80674937D01*
X136467070Y-80674937D01*
X136475582Y-80710985D01*
X136499650Y-80744958D01*
X136537077Y-80774805D01*
X136585663Y-80798476D01*
X136607262Y-80805620D01*
X136655322Y-80819403D01*
X136688479Y-80828081D01*
X136708816Y-80831719D01*
X136718416Y-80830380D01*
X136719363Y-80824129D01*
X136713740Y-80813029D01*
X136711107Y-80808799D01*
X136685068Y-80770368D01*
X136656027Y-80731765D01*
X136627244Y-80696967D01*
X136601979Y-80669948D01*
X136586128Y-80656355D01*
X136555137Y-80641367D01*
X136523622Y-80636207D01*
X136495702Y-80640232D01*
X136475491Y-80652800D01*
X136467108Y-80673268D01*
X136467070Y-80674937D01*
X136411205Y-80674937D01*
X136410849Y-80668298D01*
X136423697Y-80630509D01*
X136449869Y-80601990D01*
X136492279Y-80581833D01*
X136537790Y-80578404D01*
X136584372Y-80591437D01*
X136629991Y-80620662D01*
X136636913Y-80626685D01*
X136656006Y-80642900D01*
X136668479Y-80651507D01*
X136671264Y-80651628D01*
X136665836Y-80638828D01*
X136651525Y-80616781D01*
X136631296Y-80589467D01*
X136608109Y-80560866D01*
X136584929Y-80534959D01*
X136582710Y-80532654D01*
X136538512Y-80496289D01*
X136487252Y-80468929D01*
X136433326Y-80451992D01*
X136381126Y-80446894D01*
X136338418Y-80453875D01*
X136297372Y-80475637D01*
X136268415Y-80507882D01*
X136251698Y-80547953D01*
X136247369Y-80593190D01*
X136187891Y-80593190D01*
X136187596Y-80583870D01*
X136188287Y-80547203D01*
X136191607Y-80521982D01*
X136199069Y-80501934D01*
X136212183Y-80480784D01*
X136212547Y-80480257D01*
X136253921Y-80434466D01*
X136302983Y-80403567D01*
X136357885Y-80387472D01*
X136416778Y-80386096D01*
X136477813Y-80399354D01*
X136539140Y-80427160D01*
X136598910Y-80469427D01*
X136631313Y-80499690D01*
X136665293Y-80538674D01*
X136696602Y-80584005D01*
X136726849Y-80638546D01*
X136757647Y-80705162D01*
X136785764Y-80774192D01*
X136819815Y-80861657D01*
X137027417Y-81011607D01*
X137081559Y-81050399D01*
X137131883Y-81085859D01*
X137176362Y-81116605D01*
X137212971Y-81141258D01*
X137239684Y-81158436D01*
X137254474Y-81166759D01*
X137255745Y-81167218D01*
X137279874Y-81166140D01*
X137290143Y-81159210D01*
X137292845Y-81154724D01*
X137293110Y-81147835D01*
X137290236Y-81137344D01*
X137283519Y-81122048D01*
X137272254Y-81100747D01*
X137255738Y-81072239D01*
X137233268Y-81035324D01*
X137204139Y-80988801D01*
X137167647Y-80931468D01*
X137123090Y-80862125D01*
X137069763Y-80779570D01*
X137047916Y-80745818D01*
X137005697Y-80680618D01*
X136895215Y-80627854D01*
X136849109Y-80605052D01*
X136803730Y-80581243D01*
X136764106Y-80559149D01*
X136735267Y-80541491D01*
X136733786Y-80540494D01*
X136672051Y-80491033D01*
X136622466Y-80435883D01*
X136585324Y-80376947D01*
X136560918Y-80316130D01*
X136549543Y-80255333D01*
X136550777Y-80218051D01*
X136611125Y-80218051D01*
X136611687Y-80247265D01*
X136621534Y-80305819D01*
X136644276Y-80359329D01*
X136681626Y-80411119D01*
X136712726Y-80443687D01*
X136739563Y-80468460D01*
X136764101Y-80489188D01*
X136784359Y-80504578D01*
X136798357Y-80513339D01*
X136804117Y-80514179D01*
X136799656Y-80505806D01*
X136789265Y-80493630D01*
X136757466Y-80448341D01*
X136740047Y-80399512D01*
X136738911Y-80375608D01*
X136798850Y-80375608D01*
X136806903Y-80409493D01*
X136825398Y-80445018D01*
X136837859Y-80461512D01*
X136855977Y-80480391D01*
X136879398Y-80501159D01*
X136905380Y-80521907D01*
X136931188Y-80540729D01*
X136954082Y-80555715D01*
X136971325Y-80564958D01*
X136980177Y-80566550D01*
X136978492Y-80559510D01*
X136974845Y-80547497D01*
X136969763Y-80523296D01*
X136964667Y-80494089D01*
X136950666Y-80432559D01*
X136930549Y-80381441D01*
X136905496Y-80342812D01*
X136876686Y-80318752D01*
X136861916Y-80313000D01*
X136832774Y-80312059D01*
X136812244Y-80324064D01*
X136800783Y-80346189D01*
X136798850Y-80375608D01*
X136738911Y-80375608D01*
X136737721Y-80350568D01*
X136750248Y-80306869D01*
X136773431Y-80272450D01*
X136803817Y-80253276D01*
X136844721Y-80247265D01*
X136845244Y-80247265D01*
X136889400Y-80255241D01*
X136928825Y-80279488D01*
X136964156Y-80320484D01*
X136981545Y-80349362D01*
X137000721Y-80384874D01*
X136995050Y-80349362D01*
X136975300Y-80268697D01*
X136943509Y-80200392D01*
X136899054Y-80143208D01*
X136884001Y-80128795D01*
X136834822Y-80093064D01*
X136786195Y-80074344D01*
X136738994Y-80072741D01*
X136694093Y-80088360D01*
X136671947Y-80103319D01*
X136637999Y-80136746D01*
X136618373Y-80173443D01*
X136611125Y-80218051D01*
X136550777Y-80218051D01*
X136551492Y-80196461D01*
X136567059Y-80141417D01*
X136596538Y-80092105D01*
X136640221Y-80050428D01*
X136656491Y-80039481D01*
X136707503Y-80017892D01*
X136762810Y-80012093D01*
X136819814Y-80021512D01*
X136875920Y-80045575D01*
X136928530Y-80083707D01*
X136949310Y-80104157D01*
X136982225Y-80144112D01*
X137008156Y-80186913D01*
X137027794Y-80235122D01*
X137041828Y-80291300D01*
X137050947Y-80358007D01*
X137055841Y-80437806D01*
X137057135Y-80504727D01*
X137058089Y-80651214D01*
X137102155Y-80717799D01*
X137122166Y-80748356D01*
X137138298Y-80773588D01*
X137148096Y-80789630D01*
X137149770Y-80792784D01*
X137155571Y-80802650D01*
X137169458Y-80824814D01*
X137189783Y-80856725D01*
X137214902Y-80895828D01*
X137243167Y-80939570D01*
X137272935Y-80985399D01*
X137302557Y-81030761D01*
X137330389Y-81073102D01*
X137334257Y-81078959D01*
X137351402Y-81103981D01*
X137363310Y-81116764D01*
X137374259Y-81120058D01*
X137388527Y-81116616D01*
X137391314Y-81115656D01*
X137409652Y-81106756D01*
X137414671Y-81094256D01*
X137413170Y-81082982D01*
X137410051Y-81066681D01*
X137404451Y-81036326D01*
X137396994Y-80995344D01*
X137388307Y-80947165D01*
X137381413Y-80908677D01*
X137370703Y-80849047D01*
X137359292Y-80786099D01*
X137348280Y-80725863D01*
X137338766Y-80674369D01*
X137335267Y-80655653D01*
X137316072Y-80553556D01*
X137222277Y-80455022D01*
X137155454Y-80380416D01*
X137103434Y-80311971D01*
X137065210Y-80247764D01*
X137039776Y-80185871D01*
X137026125Y-80124369D01*
X137023013Y-80074143D01*
X137025550Y-80049866D01*
X137080283Y-80049866D01*
X137081916Y-80082592D01*
X137082741Y-80092671D01*
X137087886Y-80132920D01*
X137097230Y-80169056D01*
X137112993Y-80208476D01*
X137125237Y-80234306D01*
X137141982Y-80266831D01*
X137156553Y-80292260D01*
X137166851Y-80307069D01*
X137169938Y-80309411D01*
X137171681Y-80302669D01*
X137165687Y-80286145D01*
X137164222Y-80283218D01*
X137156328Y-80258904D01*
X137151446Y-80226444D01*
X137151031Y-80217055D01*
X137212823Y-80217055D01*
X137215768Y-80245542D01*
X137225571Y-80276535D01*
X137243686Y-80313380D01*
X137271565Y-80359424D01*
X137280830Y-80373677D01*
X137323192Y-80438142D01*
X137329376Y-80393752D01*
X137332637Y-80361640D01*
X137335151Y-80320831D01*
X137336338Y-80281882D01*
X137334435Y-80227595D01*
X137326815Y-80188109D01*
X137312771Y-80161191D01*
X137293123Y-80145373D01*
X137262571Y-80136455D01*
X137238346Y-80143502D01*
X137221587Y-80165496D01*
X137213433Y-80201421D01*
X137212823Y-80217055D01*
X137151031Y-80217055D01*
X137150677Y-80209067D01*
X137157845Y-80159363D01*
X137179606Y-80119662D01*
X137216341Y-80089321D01*
X137224574Y-80084804D01*
X137249941Y-80073928D01*
X137270963Y-80072394D01*
X137291411Y-80077140D01*
X137330626Y-80097703D01*
X137364403Y-80132794D01*
X137390062Y-80179397D01*
X137395393Y-80193997D01*
X137411424Y-80242826D01*
X137419385Y-80207314D01*
X137423321Y-80172692D01*
X137423230Y-80127987D01*
X137419569Y-80080294D01*
X137412795Y-80036710D01*
X137406955Y-80013995D01*
X137390721Y-79980360D01*
X137365308Y-79945117D01*
X137335941Y-79914644D01*
X137310979Y-79896840D01*
X137287159Y-79888008D01*
X137255799Y-79880570D01*
X137243065Y-79878550D01*
X137214197Y-79876327D01*
X137193204Y-79880649D01*
X137170695Y-79893910D01*
X137163994Y-79898712D01*
X137133087Y-79928832D01*
X137105819Y-79969577D01*
X137102800Y-79975355D01*
X137089501Y-80003406D01*
X137082403Y-80025857D01*
X137080283Y-80049866D01*
X137025550Y-80049866D01*
X137030532Y-80002198D01*
X137052237Y-79939936D01*
X137087602Y-79888227D01*
X137136099Y-79847943D01*
X137171011Y-79829735D01*
X137224089Y-79815809D01*
X137277106Y-79819491D01*
G37*
D12*
%TO.C,R4*%
X132736000Y-68253436D02*
X132736000Y-68037764D01*
X133456000Y-68253436D02*
X133456000Y-68037764D01*
%TO.C,C5*%
X134895000Y-80156164D02*
X134895000Y-80371836D01*
X135615000Y-80156164D02*
X135615000Y-80371836D01*
%TO.C,R5*%
X132635164Y-78761000D02*
X132850836Y-78761000D01*
X132635164Y-79481000D02*
X132850836Y-79481000D01*
%TO.C,C4*%
X137024164Y-69617000D02*
X137239836Y-69617000D01*
X137024164Y-70337000D02*
X137239836Y-70337000D01*
%TO.C,C7*%
X133244000Y-65794836D02*
X133244000Y-65579164D01*
X133964000Y-65794836D02*
X133964000Y-65579164D01*
%TO.C,C11*%
X135022000Y-82375836D02*
X135022000Y-82160164D01*
X135742000Y-82375836D02*
X135742000Y-82160164D01*
%TO.C,C2*%
X138294164Y-75459000D02*
X138509836Y-75459000D01*
X138294164Y-76179000D02*
X138509836Y-76179000D01*
%TO.C,J2*%
X124865000Y-46990000D02*
X124865000Y-95360000D01*
X122105000Y-44340000D02*
X123485000Y-44340000D01*
X122105000Y-45720000D02*
X122105000Y-44340000D01*
X122105000Y-46990000D02*
X124865000Y-46990000D01*
X122105000Y-46990000D02*
X122105000Y-95360000D01*
X122105000Y-95360000D02*
X124865000Y-95360000D01*
%TO.C,J3*%
X142645000Y-46990000D02*
X142645000Y-95360000D01*
X139885000Y-44340000D02*
X141265000Y-44340000D01*
X139885000Y-45720000D02*
X139885000Y-44340000D01*
X139885000Y-46990000D02*
X142645000Y-46990000D01*
X139885000Y-46990000D02*
X139885000Y-95360000D01*
X139885000Y-95360000D02*
X142645000Y-95360000D01*
%TO.C,C9*%
X126881836Y-76941000D02*
X126666164Y-76941000D01*
X126881836Y-76221000D02*
X126666164Y-76221000D01*
%TD*%
M02*
