%TF.GenerationSoftware,KiCad,Pcbnew,9.0.7*%
%TF.CreationDate,2026-03-14T16:29:57-05:00*%
%TF.ProjectId,RP2040 Devboard,52503230-3430-4204-9465-76626f617264,rev?*%
%TF.SameCoordinates,Original*%
%TF.FileFunction,Copper,L2,Bot*%
%TF.FilePolarity,Positive*%
%FSLAX46Y46*%
G04 Gerber Fmt 4.6, Leading zero omitted, Abs format (unit mm)*
G04 Created by KiCad (PCBNEW 9.0.7) date 2026-03-14 16:29:58*
%MOMM*%
%LPD*%
G01*
G04 APERTURE LIST*
%TA.AperFunction,HeatsinkPad*%
%ADD10O,1.000000X2.100000*%
%TD*%
%TA.AperFunction,HeatsinkPad*%
%ADD11O,1.000000X1.600000*%
%TD*%
%TA.AperFunction,ComponentPad*%
%ADD12R,1.700000X1.700000*%
%TD*%
%TA.AperFunction,ComponentPad*%
%ADD13C,1.700000*%
%TD*%
%TA.AperFunction,ViaPad*%
%ADD14C,0.600000*%
%TD*%
%TA.AperFunction,Conductor*%
%ADD15C,0.200000*%
%TD*%
G04 APERTURE END LIST*
D10*
%TO.P,J1,S1,SHIELD*%
%TO.N,GND*%
X136695000Y-49980000D03*
D11*
X136695000Y-45800000D03*
D10*
X128055000Y-49980000D03*
D11*
X128055000Y-45800000D03*
%TD*%
D12*
%TO.P,J4,1,Pin_1*%
%TO.N,SWCLK*%
X129835000Y-93740000D03*
D13*
%TO.P,J4,2,Pin_2*%
%TO.N,GND*%
X132375000Y-93740000D03*
%TO.P,J4,3,Pin_3*%
%TO.N,SWD*%
X134915000Y-93740000D03*
%TD*%
D12*
%TO.P,J2,1,Pin_1*%
%TO.N,GPIO0*%
X123485000Y-45720000D03*
D13*
%TO.P,J2,2,Pin_2*%
%TO.N,GPIO1*%
X123485000Y-48260000D03*
%TO.P,J2,3,Pin_3*%
%TO.N,GND*%
X123485000Y-50800000D03*
%TO.P,J2,4,Pin_4*%
%TO.N,GPIO2*%
X123485000Y-53340000D03*
%TO.P,J2,5,Pin_5*%
%TO.N,GPIO3*%
X123485000Y-55880000D03*
%TO.P,J2,6,Pin_6*%
%TO.N,GPIO4*%
X123485000Y-58420000D03*
%TO.P,J2,7,Pin_7*%
%TO.N,GND*%
X123485000Y-60960000D03*
%TO.P,J2,8,Pin_8*%
%TO.N,GPIO5*%
X123485000Y-63500000D03*
%TO.P,J2,9,Pin_9*%
%TO.N,GPIO6*%
X123485000Y-66040000D03*
%TO.P,J2,10,Pin_10*%
%TO.N,GPIO7*%
X123485000Y-68580000D03*
%TO.P,J2,11,Pin_11*%
%TO.N,GPIO8*%
X123485000Y-71120000D03*
%TO.P,J2,12,Pin_12*%
%TO.N,GPIO9*%
X123485000Y-73660000D03*
%TO.P,J2,13,Pin_13*%
%TO.N,GND*%
X123485000Y-76200000D03*
%TO.P,J2,14,Pin_14*%
%TO.N,GPIO10*%
X123485000Y-78740000D03*
%TO.P,J2,15,Pin_15*%
%TO.N,GPIO11*%
X123485000Y-81280000D03*
%TO.P,J2,16,Pin_16*%
%TO.N,GPIO12*%
X123485000Y-83820000D03*
%TO.P,J2,17,Pin_17*%
%TO.N,GPIO13*%
X123485000Y-86360000D03*
%TO.P,J2,18,Pin_18*%
%TO.N,GND*%
X123485000Y-88900000D03*
%TO.P,J2,19,Pin_19*%
%TO.N,GPIO14*%
X123485000Y-91440000D03*
%TO.P,J2,20,Pin_20*%
%TO.N,GPIO15*%
X123485000Y-93980000D03*
%TD*%
D12*
%TO.P,J3,1,Pin_1*%
%TO.N,VBUS*%
X141265000Y-45720000D03*
D13*
%TO.P,J3,2,Pin_2*%
%TO.N,GPIO29_ADC3*%
X141265000Y-48260000D03*
%TO.P,J3,3,Pin_3*%
%TO.N,GND*%
X141265000Y-50800000D03*
%TO.P,J3,4,Pin_4*%
%TO.N,GPIO28_ADC2*%
X141265000Y-53340000D03*
%TO.P,J3,5,Pin_5*%
%TO.N,+3V3*%
X141265000Y-55880000D03*
%TO.P,J3,6,Pin_6*%
%TO.N,GPIO27_ADC1*%
X141265000Y-58420000D03*
%TO.P,J3,7,Pin_7*%
%TO.N,GPIO26_ADC0*%
X141265000Y-60960000D03*
%TO.P,J3,8,Pin_8*%
%TO.N,GND*%
X141265000Y-63500000D03*
%TO.P,J3,9,Pin_9*%
%TO.N,GPIO24*%
X141265000Y-66040000D03*
%TO.P,J3,10,Pin_10*%
%TO.N,GPIO23*%
X141265000Y-68580000D03*
%TO.P,J3,11,Pin_11*%
%TO.N,GPIO22*%
X141265000Y-71120000D03*
%TO.P,J3,12,Pin_12*%
%TO.N,GPIO21*%
X141265000Y-73660000D03*
%TO.P,J3,13,Pin_13*%
%TO.N,GND*%
X141265000Y-76200000D03*
%TO.P,J3,14,Pin_14*%
%TO.N,RUN*%
X141265000Y-78740000D03*
%TO.P,J3,15,Pin_15*%
%TO.N,GPIO20*%
X141265000Y-81280000D03*
%TO.P,J3,16,Pin_16*%
%TO.N,GPIO19*%
X141265000Y-83820000D03*
%TO.P,J3,17,Pin_17*%
%TO.N,GPIO18*%
X141265000Y-86360000D03*
%TO.P,J3,18,Pin_18*%
%TO.N,GND*%
X141265000Y-88900000D03*
%TO.P,J3,19,Pin_19*%
%TO.N,GPIO17*%
X141265000Y-91440000D03*
%TO.P,J3,20,Pin_20*%
%TO.N,GPIO16*%
X141265000Y-93980000D03*
%TD*%
D14*
%TO.N,GND*%
X134747000Y-87884000D03*
X128143000Y-89408000D03*
X131318000Y-84201000D03*
X131531000Y-80723000D03*
X122809000Y-74930000D03*
X122809000Y-77470000D03*
X125349000Y-77851000D03*
X126294000Y-76581000D03*
%TO.N,+3V3*%
X127254000Y-76581000D03*
%TO.N,GND*%
X130000000Y-81000000D03*
X135382000Y-81788000D03*
X135255000Y-80744000D03*
%TO.N,+1V1*%
X135382000Y-82748000D03*
%TO.N,GND*%
X139192000Y-76073000D03*
%TO.N,+3V3*%
X137922000Y-75819000D03*
X137033000Y-68961000D03*
X130048000Y-71374000D03*
X129921000Y-74930000D03*
X133731000Y-57150000D03*
X131953000Y-57150000D03*
X133203735Y-66783735D03*
X132745592Y-69586121D03*
X134620000Y-75438000D03*
%TO.N,GND*%
X131953000Y-87122000D03*
X132892800Y-65278000D03*
X132715000Y-62611000D03*
X129032000Y-66040000D03*
X135509000Y-67564000D03*
X141935200Y-64770000D03*
X139319000Y-77470000D03*
X133545000Y-61595000D03*
X127381000Y-69342000D03*
X131220000Y-53660000D03*
X133299200Y-94538800D03*
X122834400Y-52070000D03*
X141935200Y-77419200D03*
X131699000Y-90170000D03*
X139319000Y-52324000D03*
X133350000Y-72771000D03*
X138684000Y-48514000D03*
X131699000Y-47625000D03*
X134112000Y-64516000D03*
X135625000Y-52324000D03*
X125349000Y-87503000D03*
X128277500Y-59067500D03*
X133807200Y-82245200D03*
X129032000Y-56134000D03*
X122834400Y-49530000D03*
X131318000Y-73850000D03*
X136779000Y-53848000D03*
X133350000Y-74930000D03*
X128981200Y-50901600D03*
X132334000Y-74930000D03*
X129052500Y-54902500D03*
X138430000Y-46228000D03*
X141935200Y-74930000D03*
X134239000Y-46482000D03*
X128143000Y-86868000D03*
X122783600Y-87630000D03*
X141986000Y-62230000D03*
X129342000Y-64135000D03*
X135255000Y-55118000D03*
X136525000Y-67056000D03*
X130175000Y-67691000D03*
X127758866Y-67059134D03*
X132375000Y-73850000D03*
X122783600Y-90170000D03*
X132334000Y-72771000D03*
X131318000Y-72771000D03*
X127000000Y-92964000D03*
X131572000Y-55372000D03*
X125095000Y-52197000D03*
X127508000Y-51816000D03*
X128219200Y-61849000D03*
X125476000Y-48768000D03*
X131445000Y-76351000D03*
X133350000Y-73914000D03*
X134264400Y-83972400D03*
X131318000Y-74930000D03*
X142036800Y-49580800D03*
X132080000Y-60325000D03*
%TO.N,GPIO0*%
X127327500Y-59005858D03*
X126604000Y-68199000D03*
%TO.N,GPIO2*%
X125857000Y-58420000D03*
X126604000Y-71690369D03*
%TO.N,GPIO3*%
X126604000Y-72538896D03*
%TO.N,GPIO4*%
X126604000Y-73421000D03*
%TO.N,GPIO1*%
X126530339Y-59073225D03*
X127127000Y-71085000D03*
%TO.N,GPIO29_ADC3*%
X138049000Y-62992000D03*
X138303000Y-56550000D03*
X134989265Y-71636466D03*
X138303000Y-57750000D03*
%TO.N,RUN*%
X134493000Y-76327000D03*
X137795000Y-89535000D03*
X139319000Y-80899000D03*
%TO.N,GPIO27_ADC1*%
X139804235Y-61572235D03*
X138084000Y-72601273D03*
%TO.N,GPIO26_ADC0*%
X138465000Y-63675334D03*
X138465000Y-67564000D03*
%TO.N,GPIO28_ADC2*%
X139319000Y-56388000D03*
X138023990Y-71803525D03*
%TO.N,SWD*%
X133477000Y-84709000D03*
X133731000Y-75950002D03*
%TO.N,SWCLK*%
X132969000Y-76200000D03*
X130048000Y-85979000D03*
%TO.N,+1V1*%
X130753897Y-71750444D03*
X134570742Y-78765527D03*
%TD*%
D15*
%TO.N,SWD*%
X132359057Y-85826943D02*
X133477000Y-84709000D01*
X131445000Y-85826943D02*
X132359057Y-85826943D01*
X131348114Y-85730057D02*
X131445000Y-85826943D01*
X130649000Y-85730057D02*
X131348114Y-85730057D01*
X130449000Y-85530057D02*
X130649000Y-85730057D01*
X130449000Y-85304900D02*
X130449000Y-85530057D01*
X129413000Y-84268900D02*
X130449000Y-85304900D01*
X129413000Y-83721843D02*
X129413000Y-84268900D01*
X127929000Y-82237843D02*
X129413000Y-83721843D01*
X127929000Y-79064000D02*
X127929000Y-82237843D01*
X128126000Y-78867000D02*
X127929000Y-79064000D01*
X132607528Y-76688472D02*
X130429000Y-78867000D01*
X133217943Y-76801000D02*
X132720057Y-76801000D01*
X133570000Y-76448943D02*
X133217943Y-76801000D01*
X130429000Y-78867000D02*
X128126000Y-78867000D01*
X133568945Y-75950002D02*
X133570000Y-75951057D01*
X133570000Y-75951057D02*
X133570000Y-76448943D01*
X132720057Y-76801000D02*
X132607528Y-76688472D01*
X133731000Y-75950002D02*
X133568945Y-75950002D01*
%TO.N,SWCLK*%
X127528000Y-78897900D02*
X127528000Y-81661000D01*
X128066900Y-78359000D02*
X127528000Y-78897900D01*
X129794000Y-78359000D02*
X128066900Y-78359000D01*
X132046000Y-76200000D02*
X132969000Y-76200000D01*
X131693943Y-76952000D02*
X132046000Y-76599943D01*
X131201000Y-76952000D02*
X131693943Y-76952000D01*
X129794000Y-78359000D02*
X131201000Y-76952000D01*
X132046000Y-76599943D02*
X132046000Y-76200000D01*
X127528000Y-82403943D02*
X127528000Y-81601000D01*
X128905000Y-83780943D02*
X127528000Y-82403943D01*
X128905000Y-84328000D02*
X128905000Y-83780943D01*
X130048000Y-85471000D02*
X128905000Y-84328000D01*
X130048000Y-85979000D02*
X130048000Y-85471000D01*
%TO.N,+1V1*%
X129692400Y-72811941D02*
X130753897Y-71750444D01*
X130169943Y-74329000D02*
X129692400Y-74329000D01*
X130522000Y-74681057D02*
X130169943Y-74329000D01*
X130522000Y-75178943D02*
X130522000Y-74681057D01*
X130169943Y-75531000D02*
X130522000Y-75178943D01*
X129887100Y-75531000D02*
X130169943Y-75531000D01*
X129692400Y-75725700D02*
X129887100Y-75531000D01*
X129692400Y-76166400D02*
X129692400Y-75725700D01*
X127127000Y-78731800D02*
X129692400Y-76166400D01*
X127127000Y-82677000D02*
X127127000Y-78731800D01*
X128143000Y-83693000D02*
X127127000Y-82677000D01*
X128143000Y-84200900D02*
X128143000Y-83693000D01*
X129447000Y-85504900D02*
X128143000Y-84200900D01*
X129447000Y-86227943D02*
X129447000Y-85504900D01*
X129799057Y-86580000D02*
X129447000Y-86227943D01*
X130649000Y-86227943D02*
X130296943Y-86580000D01*
X133189000Y-86227943D02*
X130649000Y-86227943D01*
X135094000Y-84322943D02*
X133189000Y-86227943D01*
X135094000Y-83825057D02*
X135094000Y-84322943D01*
X135382000Y-83537057D02*
X135094000Y-83825057D01*
X129692400Y-74329000D02*
X129692400Y-72811941D01*
X135382000Y-82748000D02*
X135382000Y-83537057D01*
X130296943Y-86580000D02*
X129799057Y-86580000D01*
%TO.N,+3V3*%
X127254000Y-75946000D02*
X127254000Y-76581000D01*
X127508000Y-75692000D02*
X127254000Y-75946000D01*
%TO.N,+1V1*%
X136200000Y-82748000D02*
X135382000Y-82748000D01*
X136505000Y-82443000D02*
X136200000Y-82748000D01*
X136505000Y-79482000D02*
X136505000Y-82443000D01*
X135788527Y-78765527D02*
X136505000Y-79482000D01*
X134570742Y-78765527D02*
X135788527Y-78765527D01*
%TO.N,+3V3*%
X137922000Y-75819000D02*
X135001000Y-75819000D01*
X135001000Y-75819000D02*
X134620000Y-75438000D01*
X133223000Y-59690000D02*
X136652000Y-63119000D01*
X136652000Y-68580000D02*
X137033000Y-68961000D01*
X129159000Y-75692000D02*
X129921000Y-74930000D01*
X137126000Y-66807057D02*
X137126000Y-67304943D01*
X127508000Y-75692000D02*
X129159000Y-75692000D01*
X137126000Y-67304943D02*
X136773943Y-67657000D01*
X133223000Y-57150000D02*
X133223000Y-59690000D01*
X136652000Y-63119000D02*
X136652000Y-66455000D01*
X133223000Y-57150000D02*
X131953000Y-57150000D01*
X136652000Y-67657000D02*
X136652000Y-68580000D01*
X130048000Y-71374000D02*
X131806472Y-69615528D01*
X133731000Y-57150000D02*
X133223000Y-57150000D01*
X133203735Y-69186793D02*
X132775000Y-69615528D01*
X133203735Y-66783735D02*
X133203735Y-69186793D01*
X136773943Y-67657000D02*
X136652000Y-67657000D01*
X136652000Y-66455000D02*
X136773943Y-66455000D01*
X132775000Y-69615528D02*
X131806472Y-69615528D01*
X136773943Y-66455000D02*
X137126000Y-66807057D01*
%TO.N,GPIO0*%
X127327500Y-62610763D02*
X127327500Y-59005858D01*
X126604000Y-63334263D02*
X127327500Y-62610763D01*
X126604000Y-68199000D02*
X126604000Y-63334263D01*
%TO.N,GPIO2*%
X125577696Y-70664065D02*
X125577696Y-62614900D01*
X125577696Y-62614900D02*
X125783063Y-62409533D01*
X125783063Y-62409533D02*
X125783063Y-58493937D01*
X125783063Y-58493937D02*
X125857000Y-58420000D01*
X126604000Y-71690369D02*
X125577696Y-70664065D01*
%TO.N,GPIO3*%
X126604000Y-72538896D02*
X125115000Y-71049896D01*
X125115000Y-57510000D02*
X123485000Y-55880000D01*
X125115000Y-71049896D02*
X125115000Y-57510000D01*
%TO.N,GPIO4*%
X124714000Y-59649000D02*
X123485000Y-58420000D01*
X124968000Y-73025000D02*
X124714000Y-72771000D01*
X126604000Y-73421000D02*
X126208000Y-73025000D01*
X126208000Y-73025000D02*
X124968000Y-73025000D01*
X124714000Y-72771000D02*
X124714000Y-59649000D01*
%TO.N,GPIO1*%
X125978696Y-69936696D02*
X125978696Y-63062430D01*
X126128500Y-70086500D02*
X125978696Y-69936696D01*
X127127000Y-71085000D02*
X126128500Y-70086500D01*
X126732563Y-62308563D02*
X126732563Y-59275449D01*
X126732563Y-59275449D02*
X126530339Y-59073225D01*
X125978696Y-63062430D02*
X126732563Y-62308563D01*
%TO.N,GPIO29_ADC3*%
X137795000Y-63246000D02*
X138049000Y-62992000D01*
X137795000Y-67783000D02*
X137795000Y-63246000D01*
X138303000Y-57750000D02*
X138303000Y-56550000D01*
X137922000Y-70104000D02*
X138084000Y-69942000D01*
X138084000Y-68072000D02*
X137795000Y-67783000D01*
X138084000Y-69942000D02*
X138084000Y-68072000D01*
X136521731Y-70104000D02*
X137922000Y-70104000D01*
X134989265Y-71636466D02*
X136521731Y-70104000D01*
%TO.N,RUN*%
X136906000Y-78740000D02*
X136906000Y-88646000D01*
X136906000Y-78740000D02*
X134493000Y-76327000D01*
X136906000Y-88646000D02*
X137795000Y-89535000D01*
X139319000Y-80686000D02*
X141265000Y-78740000D01*
X139319000Y-80899000D02*
X139319000Y-80686000D01*
%TO.N,GPIO27_ADC1*%
X139827000Y-72771000D02*
X139867735Y-72730265D01*
X139867735Y-64770000D02*
X139867735Y-61635735D01*
X138084000Y-72601273D02*
X138634727Y-73152000D01*
X139867735Y-61635735D02*
X139804235Y-61572235D01*
X139446000Y-73152000D02*
X139827000Y-72771000D01*
X139867735Y-72730265D02*
X139867735Y-64770000D01*
X138634727Y-73152000D02*
X139446000Y-73152000D01*
%TO.N,GPIO26_ADC0*%
X138465000Y-67564000D02*
X138465000Y-63675334D01*
%TO.N,GPIO28_ADC2*%
X138023990Y-71803525D02*
X138229465Y-72009000D01*
X138229465Y-72009000D02*
X139065000Y-72009000D01*
X139065000Y-72009000D02*
X139065000Y-56642000D01*
X139065000Y-56642000D02*
X139319000Y-56388000D01*
%TD*%
%TA.AperFunction,Conductor*%
%TO.N,GND*%
G36*
X134003808Y-76966883D02*
G01*
X134029365Y-76979963D01*
X134113814Y-77036390D01*
X134113827Y-77036397D01*
X134259498Y-77096735D01*
X134259503Y-77096737D01*
X134324147Y-77109595D01*
X134414849Y-77127638D01*
X134476760Y-77160023D01*
X134478339Y-77161574D01*
X135270111Y-77953346D01*
X135280723Y-77972782D01*
X135295224Y-77989516D01*
X135297140Y-78002847D01*
X135303596Y-78014669D01*
X135302016Y-78036755D01*
X135305168Y-78058674D01*
X135299572Y-78070925D01*
X135298612Y-78084361D01*
X135285341Y-78102087D01*
X135276143Y-78122230D01*
X135264811Y-78129512D01*
X135256740Y-78140294D01*
X135235994Y-78148031D01*
X135217365Y-78160004D01*
X135195446Y-78163155D01*
X135191276Y-78164711D01*
X135182430Y-78165027D01*
X135150508Y-78165027D01*
X135083469Y-78145342D01*
X135081617Y-78144129D01*
X134949927Y-78056136D01*
X134949914Y-78056129D01*
X134804243Y-77995791D01*
X134804231Y-77995788D01*
X134649587Y-77965027D01*
X134649584Y-77965027D01*
X134491900Y-77965027D01*
X134491897Y-77965027D01*
X134337252Y-77995788D01*
X134337240Y-77995791D01*
X134191569Y-78056129D01*
X134191556Y-78056136D01*
X134060453Y-78143737D01*
X134060449Y-78143740D01*
X133948955Y-78255234D01*
X133948952Y-78255238D01*
X133861351Y-78386341D01*
X133861344Y-78386354D01*
X133801006Y-78532025D01*
X133801003Y-78532037D01*
X133770242Y-78686680D01*
X133770242Y-78844373D01*
X133801003Y-78999016D01*
X133801006Y-78999028D01*
X133861344Y-79144699D01*
X133861351Y-79144712D01*
X133948952Y-79275815D01*
X133948955Y-79275819D01*
X134060449Y-79387313D01*
X134060453Y-79387316D01*
X134191556Y-79474917D01*
X134191569Y-79474924D01*
X134311164Y-79524461D01*
X134337245Y-79535264D01*
X134491895Y-79566026D01*
X134491898Y-79566027D01*
X134491900Y-79566027D01*
X134649586Y-79566027D01*
X134649587Y-79566026D01*
X134804239Y-79535264D01*
X134949921Y-79474921D01*
X134961027Y-79467500D01*
X135081617Y-79386925D01*
X135148295Y-79366047D01*
X135150508Y-79366027D01*
X135488430Y-79366027D01*
X135555469Y-79385712D01*
X135576111Y-79402346D01*
X135868181Y-79694416D01*
X135901666Y-79755739D01*
X135904500Y-79782097D01*
X135904500Y-81912392D01*
X135884815Y-81979431D01*
X135832011Y-82025186D01*
X135762853Y-82035130D01*
X135733048Y-82026953D01*
X135615501Y-81978264D01*
X135615489Y-81978261D01*
X135460845Y-81947500D01*
X135460842Y-81947500D01*
X135303158Y-81947500D01*
X135303155Y-81947500D01*
X135148510Y-81978261D01*
X135148498Y-81978264D01*
X135002827Y-82038602D01*
X135002814Y-82038609D01*
X134871711Y-82126210D01*
X134871707Y-82126213D01*
X134760213Y-82237707D01*
X134760210Y-82237711D01*
X134672609Y-82368814D01*
X134672602Y-82368827D01*
X134612264Y-82514498D01*
X134612261Y-82514510D01*
X134581500Y-82669153D01*
X134581500Y-82826846D01*
X134612261Y-82981489D01*
X134612264Y-82981501D01*
X134672602Y-83127172D01*
X134672608Y-83127183D01*
X134724230Y-83204441D01*
X134731869Y-83228840D01*
X134743232Y-83251738D01*
X134742134Y-83261624D01*
X134745107Y-83271118D01*
X134738343Y-83295770D01*
X134735523Y-83321181D01*
X134728500Y-83331652D01*
X134726622Y-83338498D01*
X134717408Y-83351472D01*
X134713354Y-83356466D01*
X134613480Y-83456341D01*
X134572013Y-83528165D01*
X134567102Y-83536669D01*
X134567100Y-83536673D01*
X134534423Y-83593271D01*
X134534423Y-83593272D01*
X134493499Y-83746000D01*
X134493499Y-83746002D01*
X134493499Y-83914103D01*
X134493500Y-83914116D01*
X134493500Y-84022845D01*
X134473815Y-84089884D01*
X134457181Y-84110527D01*
X134313858Y-84253849D01*
X134252535Y-84287333D01*
X134182843Y-84282349D01*
X134126910Y-84240477D01*
X134123085Y-84235073D01*
X134098789Y-84198711D01*
X134098787Y-84198708D01*
X133987292Y-84087213D01*
X133987288Y-84087210D01*
X133856185Y-83999609D01*
X133856172Y-83999602D01*
X133710501Y-83939264D01*
X133710489Y-83939261D01*
X133555845Y-83908500D01*
X133555842Y-83908500D01*
X133398158Y-83908500D01*
X133398155Y-83908500D01*
X133243510Y-83939261D01*
X133243498Y-83939264D01*
X133097827Y-83999602D01*
X133097814Y-83999609D01*
X132966711Y-84087210D01*
X132966707Y-84087213D01*
X132855213Y-84198707D01*
X132855210Y-84198711D01*
X132767609Y-84329814D01*
X132767602Y-84329827D01*
X132707264Y-84475498D01*
X132707261Y-84475508D01*
X132676361Y-84630850D01*
X132643976Y-84692761D01*
X132642425Y-84694339D01*
X132146641Y-85190124D01*
X132085318Y-85223609D01*
X132058960Y-85226443D01*
X131710054Y-85226443D01*
X131694566Y-85222293D01*
X131680821Y-85222948D01*
X131648058Y-85209832D01*
X131630018Y-85199417D01*
X131579899Y-85170480D01*
X131427171Y-85129556D01*
X131269057Y-85129556D01*
X131261461Y-85129556D01*
X131261445Y-85129557D01*
X131112756Y-85129557D01*
X131045717Y-85109872D01*
X131005370Y-85067559D01*
X130976253Y-85017129D01*
X130976251Y-85017126D01*
X130951959Y-84975051D01*
X130929520Y-84936184D01*
X130817716Y-84824380D01*
X130817715Y-84824379D01*
X130813385Y-84820049D01*
X130813374Y-84820039D01*
X130049819Y-84056484D01*
X130035115Y-84029556D01*
X130018523Y-84003738D01*
X130017631Y-83997537D01*
X130016334Y-83995161D01*
X130013500Y-83968803D01*
X130013500Y-83810902D01*
X130013501Y-83810889D01*
X130013501Y-83642788D01*
X130013501Y-83642786D01*
X129972577Y-83490058D01*
X129927641Y-83412227D01*
X129897318Y-83359706D01*
X129893522Y-83353130D01*
X129893521Y-83353129D01*
X129893520Y-83353127D01*
X129781716Y-83241323D01*
X129781715Y-83241322D01*
X129777385Y-83236992D01*
X129777374Y-83236982D01*
X128565819Y-82025427D01*
X128532334Y-81964104D01*
X128529500Y-81937746D01*
X128529500Y-79591500D01*
X128549185Y-79524461D01*
X128601989Y-79478706D01*
X128653500Y-79467500D01*
X130342331Y-79467500D01*
X130342347Y-79467501D01*
X130349943Y-79467501D01*
X130508054Y-79467501D01*
X130508057Y-79467501D01*
X130660785Y-79426577D01*
X130722357Y-79391028D01*
X130797716Y-79347520D01*
X130909520Y-79235716D01*
X130909520Y-79235714D01*
X130919724Y-79225511D01*
X130919728Y-79225506D01*
X132707415Y-77437819D01*
X132768738Y-77404334D01*
X132795096Y-77401500D01*
X132799117Y-77401500D01*
X133131274Y-77401500D01*
X133131290Y-77401501D01*
X133138886Y-77401501D01*
X133296997Y-77401501D01*
X133297000Y-77401501D01*
X133449728Y-77360577D01*
X133518769Y-77320716D01*
X133586659Y-77281520D01*
X133698463Y-77169716D01*
X133698464Y-77169714D01*
X133872795Y-76995382D01*
X133934116Y-76961899D01*
X134003808Y-76966883D01*
G37*
%TD.AperFunction*%
%TA.AperFunction,Conductor*%
G36*
X127123099Y-44870185D02*
G01*
X127168854Y-44922989D01*
X127178798Y-44992147D01*
X127170621Y-45021953D01*
X127093429Y-45208310D01*
X127093427Y-45208318D01*
X127055000Y-45401504D01*
X127055000Y-45550000D01*
X127755000Y-45550000D01*
X127755000Y-46050000D01*
X127055000Y-46050000D01*
X127055000Y-46198495D01*
X127093427Y-46391681D01*
X127093430Y-46391693D01*
X127168807Y-46573671D01*
X127168814Y-46573684D01*
X127278248Y-46737462D01*
X127278251Y-46737466D01*
X127417533Y-46876748D01*
X127417537Y-46876751D01*
X127581315Y-46986185D01*
X127581328Y-46986192D01*
X127763308Y-47061569D01*
X127805000Y-47069862D01*
X127805000Y-46266988D01*
X127814940Y-46284205D01*
X127870795Y-46340060D01*
X127939204Y-46379556D01*
X128015504Y-46400000D01*
X128094496Y-46400000D01*
X128170796Y-46379556D01*
X128239205Y-46340060D01*
X128295060Y-46284205D01*
X128305000Y-46266988D01*
X128305000Y-47069862D01*
X128346690Y-47061569D01*
X128346692Y-47061569D01*
X128528671Y-46986192D01*
X128528684Y-46986185D01*
X128692462Y-46876751D01*
X128692466Y-46876748D01*
X128831748Y-46737466D01*
X128831751Y-46737462D01*
X128941185Y-46573684D01*
X128941192Y-46573671D01*
X129016569Y-46391693D01*
X129016572Y-46391681D01*
X129054999Y-46198495D01*
X129055000Y-46198492D01*
X129055000Y-46050000D01*
X128355000Y-46050000D01*
X128355000Y-45550000D01*
X129055000Y-45550000D01*
X129055000Y-45401508D01*
X129054999Y-45401504D01*
X129016572Y-45208318D01*
X129016570Y-45208310D01*
X128939379Y-45021953D01*
X128931910Y-44952483D01*
X128963185Y-44890004D01*
X129023274Y-44854352D01*
X129053940Y-44850500D01*
X135696060Y-44850500D01*
X135763099Y-44870185D01*
X135808854Y-44922989D01*
X135818798Y-44992147D01*
X135810621Y-45021953D01*
X135733429Y-45208310D01*
X135733427Y-45208318D01*
X135695000Y-45401504D01*
X135695000Y-45550000D01*
X136395000Y-45550000D01*
X136395000Y-46050000D01*
X135695000Y-46050000D01*
X135695000Y-46198495D01*
X135733427Y-46391681D01*
X135733430Y-46391693D01*
X135808807Y-46573671D01*
X135808814Y-46573684D01*
X135918248Y-46737462D01*
X135918251Y-46737466D01*
X136057533Y-46876748D01*
X136057537Y-46876751D01*
X136221315Y-46986185D01*
X136221328Y-46986192D01*
X136403308Y-47061569D01*
X136445000Y-47069862D01*
X136445000Y-46266988D01*
X136454940Y-46284205D01*
X136510795Y-46340060D01*
X136579204Y-46379556D01*
X136655504Y-46400000D01*
X136734496Y-46400000D01*
X136810796Y-46379556D01*
X136879205Y-46340060D01*
X136935060Y-46284205D01*
X136945000Y-46266988D01*
X136945000Y-47069862D01*
X136986690Y-47061569D01*
X136986692Y-47061569D01*
X137168671Y-46986192D01*
X137168684Y-46986185D01*
X137332462Y-46876751D01*
X137332466Y-46876748D01*
X137471748Y-46737466D01*
X137471751Y-46737462D01*
X137581185Y-46573684D01*
X137581192Y-46573671D01*
X137656569Y-46391693D01*
X137656572Y-46391681D01*
X137694999Y-46198495D01*
X137695000Y-46198492D01*
X137695000Y-46050000D01*
X136995000Y-46050000D01*
X136995000Y-45550000D01*
X137695000Y-45550000D01*
X137695000Y-45401508D01*
X137694999Y-45401504D01*
X137656572Y-45208318D01*
X137656570Y-45208310D01*
X137579379Y-45021953D01*
X137571910Y-44952483D01*
X137603185Y-44890004D01*
X137663274Y-44854352D01*
X137693940Y-44850500D01*
X139790500Y-44850500D01*
X139857539Y-44870185D01*
X139903294Y-44922989D01*
X139914500Y-44974500D01*
X139914500Y-46617870D01*
X139914501Y-46617876D01*
X139920908Y-46677483D01*
X139971202Y-46812328D01*
X139971206Y-46812335D01*
X140057452Y-46927544D01*
X140057455Y-46927547D01*
X140172664Y-47013793D01*
X140172671Y-47013797D01*
X140304082Y-47062810D01*
X140360016Y-47104681D01*
X140384433Y-47170145D01*
X140369582Y-47238418D01*
X140348431Y-47266673D01*
X140234889Y-47380215D01*
X140109951Y-47552179D01*
X140013444Y-47741585D01*
X139947753Y-47943760D01*
X139914500Y-48153713D01*
X139914500Y-48366286D01*
X139947753Y-48576239D01*
X140013444Y-48778414D01*
X140109951Y-48967820D01*
X140234890Y-49139786D01*
X140385213Y-49290109D01*
X140557179Y-49415048D01*
X140557181Y-49415049D01*
X140557184Y-49415051D01*
X140566493Y-49419794D01*
X140617290Y-49467766D01*
X140634087Y-49535587D01*
X140611552Y-49601722D01*
X140566505Y-49640760D01*
X140557446Y-49645376D01*
X140557440Y-49645380D01*
X140503282Y-49684727D01*
X140503282Y-49684728D01*
X141135591Y-50317037D01*
X141072007Y-50334075D01*
X140957993Y-50399901D01*
X140864901Y-50492993D01*
X140799075Y-50607007D01*
X140782037Y-50670591D01*
X140149728Y-50038282D01*
X140149727Y-50038282D01*
X140110380Y-50092439D01*
X140013904Y-50281782D01*
X139948242Y-50483869D01*
X139948242Y-50483872D01*
X139915000Y-50693753D01*
X139915000Y-50906246D01*
X139948242Y-51116127D01*
X139948242Y-51116130D01*
X140013904Y-51318217D01*
X140110375Y-51507550D01*
X140149728Y-51561716D01*
X140782037Y-50929408D01*
X140799075Y-50992993D01*
X140864901Y-51107007D01*
X140957993Y-51200099D01*
X141072007Y-51265925D01*
X141135590Y-51282962D01*
X140503282Y-51915269D01*
X140503282Y-51915270D01*
X140557452Y-51954626D01*
X140557451Y-51954626D01*
X140566495Y-51959234D01*
X140617292Y-52007208D01*
X140634087Y-52075029D01*
X140611550Y-52141164D01*
X140566499Y-52180202D01*
X140557182Y-52184949D01*
X140385213Y-52309890D01*
X140234890Y-52460213D01*
X140109951Y-52632179D01*
X140013444Y-52821585D01*
X139947753Y-53023760D01*
X139914500Y-53233713D01*
X139914500Y-53446286D01*
X139947753Y-53656239D01*
X140013444Y-53858414D01*
X140109951Y-54047820D01*
X140234890Y-54219786D01*
X140385213Y-54370109D01*
X140557182Y-54495050D01*
X140565946Y-54499516D01*
X140616742Y-54547491D01*
X140633536Y-54615312D01*
X140610998Y-54681447D01*
X140565946Y-54720484D01*
X140557182Y-54724949D01*
X140385213Y-54849890D01*
X140234890Y-55000213D01*
X140109951Y-55172179D01*
X140013444Y-55361585D01*
X139947753Y-55563759D01*
X139937722Y-55627094D01*
X139907792Y-55690228D01*
X139848481Y-55727159D01*
X139778618Y-55726161D01*
X139746359Y-55710798D01*
X139698183Y-55678608D01*
X139698172Y-55678602D01*
X139552501Y-55618264D01*
X139552489Y-55618261D01*
X139397845Y-55587500D01*
X139397842Y-55587500D01*
X139240158Y-55587500D01*
X139240155Y-55587500D01*
X139085510Y-55618261D01*
X139085498Y-55618264D01*
X138939827Y-55678602D01*
X138939814Y-55678609D01*
X138808714Y-55766208D01*
X138777629Y-55797292D01*
X138716305Y-55830775D01*
X138646613Y-55825789D01*
X138642498Y-55824169D01*
X138536501Y-55780264D01*
X138536489Y-55780261D01*
X138381845Y-55749500D01*
X138381842Y-55749500D01*
X138224158Y-55749500D01*
X138224155Y-55749500D01*
X138069510Y-55780261D01*
X138069498Y-55780264D01*
X137923827Y-55840602D01*
X137923814Y-55840609D01*
X137792711Y-55928210D01*
X137792707Y-55928213D01*
X137681213Y-56039707D01*
X137681210Y-56039711D01*
X137593609Y-56170814D01*
X137593602Y-56170827D01*
X137533264Y-56316498D01*
X137533261Y-56316510D01*
X137502500Y-56471153D01*
X137502500Y-56628846D01*
X137533261Y-56783489D01*
X137533264Y-56783501D01*
X137593602Y-56929172D01*
X137593609Y-56929185D01*
X137681602Y-57060874D01*
X137687252Y-57078920D01*
X137697477Y-57094830D01*
X137701928Y-57125789D01*
X137702480Y-57127551D01*
X137702500Y-57129765D01*
X137702500Y-57170234D01*
X137682815Y-57237273D01*
X137681602Y-57239125D01*
X137593609Y-57370814D01*
X137593602Y-57370827D01*
X137533264Y-57516498D01*
X137533261Y-57516510D01*
X137502500Y-57671153D01*
X137502500Y-57828846D01*
X137533261Y-57983489D01*
X137533264Y-57983501D01*
X137593602Y-58129172D01*
X137593609Y-58129185D01*
X137681210Y-58260288D01*
X137681213Y-58260292D01*
X137792707Y-58371786D01*
X137792711Y-58371789D01*
X137923814Y-58459390D01*
X137923827Y-58459397D01*
X138069498Y-58519735D01*
X138069503Y-58519737D01*
X138224153Y-58550499D01*
X138224156Y-58550500D01*
X138340500Y-58550500D01*
X138407539Y-58570185D01*
X138453294Y-58622989D01*
X138464500Y-58674500D01*
X138464500Y-62112072D01*
X138444815Y-62179111D01*
X138392011Y-62224866D01*
X138322853Y-62234810D01*
X138293048Y-62226633D01*
X138282501Y-62222264D01*
X138282489Y-62222261D01*
X138127845Y-62191500D01*
X138127842Y-62191500D01*
X137970158Y-62191500D01*
X137970155Y-62191500D01*
X137815510Y-62222261D01*
X137815498Y-62222264D01*
X137669827Y-62282602D01*
X137669814Y-62282609D01*
X137538711Y-62370210D01*
X137538707Y-62370213D01*
X137427213Y-62481707D01*
X137427210Y-62481711D01*
X137339609Y-62612814D01*
X137339606Y-62612821D01*
X137309707Y-62685002D01*
X137289117Y-62710551D01*
X137269457Y-62736815D01*
X137267305Y-62737617D01*
X137265865Y-62739405D01*
X137234735Y-62749765D01*
X137203993Y-62761232D01*
X137201749Y-62760743D01*
X137199571Y-62761469D01*
X137167787Y-62753356D01*
X137135720Y-62746381D01*
X137133268Y-62744545D01*
X137131871Y-62744189D01*
X137107469Y-62725233D01*
X137020716Y-62638480D01*
X137020713Y-62638478D01*
X133859819Y-59477584D01*
X133826334Y-59416261D01*
X133823500Y-59389903D01*
X133823500Y-58049547D01*
X133843185Y-57982508D01*
X133895989Y-57936753D01*
X133923305Y-57927930D01*
X133964497Y-57919737D01*
X134110179Y-57859394D01*
X134241289Y-57771789D01*
X134352789Y-57660289D01*
X134440394Y-57529179D01*
X134500737Y-57383497D01*
X134531500Y-57228842D01*
X134531500Y-57071158D01*
X134531500Y-57071155D01*
X134531499Y-57071153D01*
X134525206Y-57039516D01*
X134500737Y-56916503D01*
X134498087Y-56910105D01*
X134440397Y-56770827D01*
X134440390Y-56770814D01*
X134352789Y-56639711D01*
X134352786Y-56639707D01*
X134241292Y-56528213D01*
X134241288Y-56528210D01*
X134110185Y-56440609D01*
X134110172Y-56440602D01*
X133964501Y-56380264D01*
X133964489Y-56380261D01*
X133809845Y-56349500D01*
X133809842Y-56349500D01*
X133652158Y-56349500D01*
X133652155Y-56349500D01*
X133497510Y-56380261D01*
X133497498Y-56380264D01*
X133351827Y-56440602D01*
X133351814Y-56440609D01*
X133220125Y-56528602D01*
X133153447Y-56549480D01*
X133151234Y-56549500D01*
X132532766Y-56549500D01*
X132465727Y-56529815D01*
X132463875Y-56528602D01*
X132332185Y-56440609D01*
X132332172Y-56440602D01*
X132186501Y-56380264D01*
X132186489Y-56380261D01*
X132031845Y-56349500D01*
X132031842Y-56349500D01*
X131874158Y-56349500D01*
X131874155Y-56349500D01*
X131719510Y-56380261D01*
X131719498Y-56380264D01*
X131573827Y-56440602D01*
X131573814Y-56440609D01*
X131442711Y-56528210D01*
X131442707Y-56528213D01*
X131331213Y-56639707D01*
X131331210Y-56639711D01*
X131243609Y-56770814D01*
X131243602Y-56770827D01*
X131183264Y-56916498D01*
X131183261Y-56916510D01*
X131152500Y-57071153D01*
X131152500Y-57228846D01*
X131183261Y-57383489D01*
X131183264Y-57383501D01*
X131243602Y-57529172D01*
X131243609Y-57529185D01*
X131331210Y-57660288D01*
X131331213Y-57660292D01*
X131442707Y-57771786D01*
X131442711Y-57771789D01*
X131573814Y-57859390D01*
X131573827Y-57859397D01*
X131675687Y-57901588D01*
X131719503Y-57919737D01*
X131860499Y-57947783D01*
X131874153Y-57950499D01*
X131874156Y-57950500D01*
X131874158Y-57950500D01*
X132031844Y-57950500D01*
X132031845Y-57950499D01*
X132186497Y-57919737D01*
X132332179Y-57859394D01*
X132429609Y-57794292D01*
X132496286Y-57773415D01*
X132563666Y-57791899D01*
X132610357Y-57843878D01*
X132622500Y-57897395D01*
X132622500Y-59603330D01*
X132622499Y-59603348D01*
X132622499Y-59769054D01*
X132622498Y-59769054D01*
X132630994Y-59800760D01*
X132663423Y-59921785D01*
X132663424Y-59921786D01*
X132668104Y-59929894D01*
X132668106Y-59929896D01*
X132742477Y-60058712D01*
X132742481Y-60058717D01*
X132861349Y-60177585D01*
X132861355Y-60177590D01*
X136015181Y-63331416D01*
X136048666Y-63392739D01*
X136051500Y-63419097D01*
X136051500Y-66375943D01*
X136051500Y-66534057D01*
X136055835Y-66550233D01*
X136092423Y-66686783D01*
X136092426Y-66686790D01*
X136171475Y-66823709D01*
X136171479Y-66823714D01*
X136171480Y-66823716D01*
X136283284Y-66935520D01*
X136283285Y-66935521D01*
X136283287Y-66935522D01*
X136305961Y-66948613D01*
X136354177Y-66999180D01*
X136367400Y-67067787D01*
X136341432Y-67132652D01*
X136305961Y-67163387D01*
X136283287Y-67176477D01*
X136283282Y-67176481D01*
X136171481Y-67288282D01*
X136171475Y-67288290D01*
X136092426Y-67425209D01*
X136092423Y-67425216D01*
X136051500Y-67577943D01*
X136051500Y-68493330D01*
X136051499Y-68493348D01*
X136051499Y-68659054D01*
X136051498Y-68659054D01*
X136051499Y-68659057D01*
X136091828Y-68809566D01*
X136092423Y-68811784D01*
X136092424Y-68811787D01*
X136094072Y-68814642D01*
X136094076Y-68814649D01*
X136096056Y-68818077D01*
X136171480Y-68948716D01*
X136207125Y-68984361D01*
X136213945Y-68994599D01*
X136220825Y-69016683D01*
X136231911Y-69036985D01*
X136232362Y-69039151D01*
X136263261Y-69194491D01*
X136263264Y-69194501D01*
X136323602Y-69340172D01*
X136323608Y-69340183D01*
X136339254Y-69363599D01*
X136343264Y-69376409D01*
X136351507Y-69387003D01*
X136353501Y-69409101D01*
X136360131Y-69430277D01*
X136356579Y-69443221D01*
X136357786Y-69456590D01*
X136347516Y-69476257D01*
X136341646Y-69497657D01*
X136330950Y-69507985D01*
X136325447Y-69518525D01*
X136307020Y-69531093D01*
X136297591Y-69540198D01*
X136290394Y-69544302D01*
X136289946Y-69544423D01*
X136270745Y-69555509D01*
X136270451Y-69555678D01*
X136270291Y-69555770D01*
X136153021Y-69623475D01*
X136153013Y-69623481D01*
X134974604Y-70801891D01*
X134913281Y-70835376D01*
X134911115Y-70835827D01*
X134755773Y-70866727D01*
X134755763Y-70866730D01*
X134610092Y-70927068D01*
X134610079Y-70927075D01*
X134478976Y-71014676D01*
X134478972Y-71014679D01*
X134367478Y-71126173D01*
X134367475Y-71126177D01*
X134279874Y-71257280D01*
X134279867Y-71257293D01*
X134219529Y-71402964D01*
X134219526Y-71402976D01*
X134188765Y-71557619D01*
X134188765Y-71715312D01*
X134219526Y-71869955D01*
X134219529Y-71869967D01*
X134279867Y-72015638D01*
X134279874Y-72015651D01*
X134367475Y-72146754D01*
X134367478Y-72146758D01*
X134478972Y-72258252D01*
X134478976Y-72258255D01*
X134610079Y-72345856D01*
X134610092Y-72345863D01*
X134755763Y-72406201D01*
X134755768Y-72406203D01*
X134847753Y-72424500D01*
X134910418Y-72436965D01*
X134910421Y-72436966D01*
X134910423Y-72436966D01*
X135068109Y-72436966D01*
X135068110Y-72436965D01*
X135222762Y-72406203D01*
X135368444Y-72345860D01*
X135499554Y-72258255D01*
X135611054Y-72146755D01*
X135698659Y-72015645D01*
X135705226Y-71999792D01*
X135751692Y-71887611D01*
X135759002Y-71869963D01*
X135787901Y-71724678D01*
X135789903Y-71714616D01*
X135822288Y-71652705D01*
X135823783Y-71651182D01*
X136734147Y-70740819D01*
X136795470Y-70707334D01*
X136821828Y-70704500D01*
X137835331Y-70704500D01*
X137835347Y-70704501D01*
X137842943Y-70704501D01*
X138001054Y-70704501D01*
X138001057Y-70704501D01*
X138153785Y-70663577D01*
X138203904Y-70634639D01*
X138278504Y-70591570D01*
X138346402Y-70575100D01*
X138412428Y-70597952D01*
X138455618Y-70652874D01*
X138464500Y-70698959D01*
X138464500Y-70933956D01*
X138444815Y-71000995D01*
X138392011Y-71046750D01*
X138322853Y-71056694D01*
X138293049Y-71048518D01*
X138283577Y-71044594D01*
X138257487Y-71033788D01*
X138257483Y-71033787D01*
X138257479Y-71033786D01*
X138102835Y-71003025D01*
X138102832Y-71003025D01*
X137945148Y-71003025D01*
X137945145Y-71003025D01*
X137790500Y-71033786D01*
X137790488Y-71033789D01*
X137644817Y-71094127D01*
X137644804Y-71094134D01*
X137513701Y-71181735D01*
X137513697Y-71181738D01*
X137402203Y-71293232D01*
X137402200Y-71293236D01*
X137314599Y-71424339D01*
X137314592Y-71424352D01*
X137254254Y-71570023D01*
X137254251Y-71570035D01*
X137223490Y-71724678D01*
X137223490Y-71882371D01*
X137254251Y-72037014D01*
X137254254Y-72037026D01*
X137314593Y-72182699D01*
X137324891Y-72198111D01*
X137345768Y-72264789D01*
X137336349Y-72314452D01*
X137323340Y-72345863D01*
X137314262Y-72367779D01*
X137314260Y-72367784D01*
X137283500Y-72522426D01*
X137283500Y-72680119D01*
X137314261Y-72834762D01*
X137314264Y-72834774D01*
X137374602Y-72980445D01*
X137374609Y-72980458D01*
X137462210Y-73111561D01*
X137462213Y-73111565D01*
X137573707Y-73223059D01*
X137573711Y-73223062D01*
X137704814Y-73310663D01*
X137704827Y-73310670D01*
X137850498Y-73371008D01*
X137850503Y-73371010D01*
X138005158Y-73401773D01*
X138005847Y-73401910D01*
X138067758Y-73434295D01*
X138069337Y-73435846D01*
X138266011Y-73632520D01*
X138266013Y-73632521D01*
X138266017Y-73632524D01*
X138386438Y-73702048D01*
X138402943Y-73711577D01*
X138555670Y-73752501D01*
X138555672Y-73752501D01*
X138721381Y-73752501D01*
X138721397Y-73752500D01*
X139359331Y-73752500D01*
X139359347Y-73752501D01*
X139366943Y-73752501D01*
X139525054Y-73752501D01*
X139525057Y-73752501D01*
X139677785Y-73711577D01*
X139727904Y-73682639D01*
X139730474Y-73681154D01*
X139798373Y-73664679D01*
X139864401Y-73687528D01*
X139907594Y-73742447D01*
X139914952Y-73769141D01*
X139940633Y-73931288D01*
X139947754Y-73976243D01*
X139969376Y-74042789D01*
X140013444Y-74178414D01*
X140109951Y-74367820D01*
X140234890Y-74539786D01*
X140385213Y-74690109D01*
X140557179Y-74815048D01*
X140557181Y-74815049D01*
X140557184Y-74815051D01*
X140566493Y-74819794D01*
X140617290Y-74867766D01*
X140634087Y-74935587D01*
X140611552Y-75001722D01*
X140566505Y-75040760D01*
X140557446Y-75045376D01*
X140557440Y-75045380D01*
X140503282Y-75084727D01*
X140503282Y-75084728D01*
X141135591Y-75717037D01*
X141072007Y-75734075D01*
X140957993Y-75799901D01*
X140864901Y-75892993D01*
X140799075Y-76007007D01*
X140782037Y-76070591D01*
X140149728Y-75438282D01*
X140149727Y-75438282D01*
X140110380Y-75492439D01*
X140013904Y-75681782D01*
X139948242Y-75883869D01*
X139948242Y-75883872D01*
X139915000Y-76093753D01*
X139915000Y-76306246D01*
X139948242Y-76516127D01*
X139948242Y-76516130D01*
X140013904Y-76718217D01*
X140110375Y-76907550D01*
X140149728Y-76961716D01*
X140782037Y-76329408D01*
X140799075Y-76392993D01*
X140864901Y-76507007D01*
X140957993Y-76600099D01*
X141072007Y-76665925D01*
X141135590Y-76682962D01*
X140503282Y-77315269D01*
X140503282Y-77315270D01*
X140557452Y-77354626D01*
X140557451Y-77354626D01*
X140566495Y-77359234D01*
X140617292Y-77407208D01*
X140634087Y-77475029D01*
X140611550Y-77541164D01*
X140566499Y-77580202D01*
X140557182Y-77584949D01*
X140385213Y-77709890D01*
X140234890Y-77860213D01*
X140109951Y-78032179D01*
X140013444Y-78221585D01*
X140013443Y-78221587D01*
X140013443Y-78221588D01*
X139947755Y-78423756D01*
X139947754Y-78423758D01*
X139914500Y-78633713D01*
X139914500Y-78846286D01*
X139947754Y-79056244D01*
X139947754Y-79056247D01*
X139961491Y-79098523D01*
X139963486Y-79168364D01*
X139931241Y-79224522D01*
X139002223Y-80153540D01*
X138962000Y-80180418D01*
X138939820Y-80189606D01*
X138939818Y-80189607D01*
X138808715Y-80277207D01*
X138808707Y-80277213D01*
X138697213Y-80388707D01*
X138697210Y-80388711D01*
X138609609Y-80519814D01*
X138609602Y-80519827D01*
X138549264Y-80665498D01*
X138549261Y-80665510D01*
X138518500Y-80820153D01*
X138518500Y-80977846D01*
X138549261Y-81132489D01*
X138549264Y-81132501D01*
X138609602Y-81278172D01*
X138609609Y-81278185D01*
X138697210Y-81409288D01*
X138697213Y-81409292D01*
X138808707Y-81520786D01*
X138808711Y-81520789D01*
X138939814Y-81608390D01*
X138939827Y-81608397D01*
X139085498Y-81668735D01*
X139085503Y-81668737D01*
X139240153Y-81699499D01*
X139240156Y-81699500D01*
X139240158Y-81699500D01*
X139397844Y-81699500D01*
X139397845Y-81699499D01*
X139552497Y-81668737D01*
X139665166Y-81622067D01*
X139698172Y-81608397D01*
X139698172Y-81608396D01*
X139698179Y-81608394D01*
X139698184Y-81608390D01*
X139698187Y-81608389D01*
X139770276Y-81560220D01*
X139836953Y-81539341D01*
X139904334Y-81557825D01*
X139951024Y-81609803D01*
X139957097Y-81624999D01*
X139981304Y-81699500D01*
X140013444Y-81798414D01*
X140109951Y-81987820D01*
X140234890Y-82159786D01*
X140385213Y-82310109D01*
X140557182Y-82435050D01*
X140565946Y-82439516D01*
X140616742Y-82487491D01*
X140633536Y-82555312D01*
X140610998Y-82621447D01*
X140565946Y-82660484D01*
X140557182Y-82664949D01*
X140385213Y-82789890D01*
X140234890Y-82940213D01*
X140109951Y-83112179D01*
X140013444Y-83301585D01*
X139947753Y-83503760D01*
X139914500Y-83713713D01*
X139914500Y-83926286D01*
X139945997Y-84125155D01*
X139947754Y-84136243D01*
X140010649Y-84329814D01*
X140013444Y-84338414D01*
X140109951Y-84527820D01*
X140234890Y-84699786D01*
X140385213Y-84850109D01*
X140557182Y-84975050D01*
X140565946Y-84979516D01*
X140616742Y-85027491D01*
X140633536Y-85095312D01*
X140610998Y-85161447D01*
X140565946Y-85200484D01*
X140557182Y-85204949D01*
X140385213Y-85329890D01*
X140234890Y-85480213D01*
X140109951Y-85652179D01*
X140013444Y-85841585D01*
X139947753Y-86043760D01*
X139914500Y-86253713D01*
X139914500Y-86466286D01*
X139935148Y-86596656D01*
X139947754Y-86676243D01*
X139997207Y-86828444D01*
X140013444Y-86878414D01*
X140109951Y-87067820D01*
X140234890Y-87239786D01*
X140385213Y-87390109D01*
X140557179Y-87515048D01*
X140557181Y-87515049D01*
X140557184Y-87515051D01*
X140566493Y-87519794D01*
X140617290Y-87567766D01*
X140634087Y-87635587D01*
X140611552Y-87701722D01*
X140566505Y-87740760D01*
X140557446Y-87745376D01*
X140557440Y-87745380D01*
X140503282Y-87784727D01*
X140503282Y-87784728D01*
X141135591Y-88417037D01*
X141072007Y-88434075D01*
X140957993Y-88499901D01*
X140864901Y-88592993D01*
X140799075Y-88707007D01*
X140782037Y-88770591D01*
X140149728Y-88138282D01*
X140149727Y-88138282D01*
X140110380Y-88192439D01*
X140013904Y-88381782D01*
X139948242Y-88583869D01*
X139948242Y-88583872D01*
X139915000Y-88793753D01*
X139915000Y-89006246D01*
X139948242Y-89216127D01*
X139948242Y-89216130D01*
X140013904Y-89418217D01*
X140110375Y-89607550D01*
X140149728Y-89661716D01*
X140782037Y-89029408D01*
X140799075Y-89092993D01*
X140864901Y-89207007D01*
X140957993Y-89300099D01*
X141072007Y-89365925D01*
X141135590Y-89382962D01*
X140503282Y-90015269D01*
X140503282Y-90015270D01*
X140557452Y-90054626D01*
X140557451Y-90054626D01*
X140566495Y-90059234D01*
X140617292Y-90107208D01*
X140634087Y-90175029D01*
X140611550Y-90241164D01*
X140566499Y-90280202D01*
X140557182Y-90284949D01*
X140385213Y-90409890D01*
X140234890Y-90560213D01*
X140109951Y-90732179D01*
X140013444Y-90921585D01*
X139947753Y-91123760D01*
X139914500Y-91333713D01*
X139914500Y-91546286D01*
X139947753Y-91756239D01*
X140013444Y-91958414D01*
X140109951Y-92147820D01*
X140234890Y-92319786D01*
X140385213Y-92470109D01*
X140557182Y-92595050D01*
X140565946Y-92599516D01*
X140616742Y-92647491D01*
X140633536Y-92715312D01*
X140610998Y-92781447D01*
X140565946Y-92820484D01*
X140557182Y-92824949D01*
X140385213Y-92949890D01*
X140234890Y-93100213D01*
X140109951Y-93272179D01*
X140013444Y-93461585D01*
X139947753Y-93663760D01*
X139946104Y-93674174D01*
X139914500Y-93873713D01*
X139914500Y-94086287D01*
X139947754Y-94296243D01*
X139997003Y-94447816D01*
X140013444Y-94498414D01*
X140100466Y-94669205D01*
X140113362Y-94737875D01*
X140087086Y-94802615D01*
X140029979Y-94842872D01*
X139989981Y-94849500D01*
X136014758Y-94849500D01*
X135947719Y-94829815D01*
X135901964Y-94777011D01*
X135892020Y-94707853D01*
X135921045Y-94644297D01*
X135927077Y-94637819D01*
X135945104Y-94619792D01*
X135945106Y-94619788D01*
X135945109Y-94619786D01*
X136070048Y-94447820D01*
X136070050Y-94447817D01*
X136070051Y-94447816D01*
X136166557Y-94258412D01*
X136232246Y-94056243D01*
X136265500Y-93846287D01*
X136265500Y-93633713D01*
X136232246Y-93423757D01*
X136166557Y-93221588D01*
X136070051Y-93032184D01*
X136070049Y-93032181D01*
X136070048Y-93032179D01*
X135945109Y-92860213D01*
X135794786Y-92709890D01*
X135622820Y-92584951D01*
X135433414Y-92488444D01*
X135433413Y-92488443D01*
X135433412Y-92488443D01*
X135231243Y-92422754D01*
X135231241Y-92422753D01*
X135231240Y-92422753D01*
X135069957Y-92397208D01*
X135021287Y-92389500D01*
X134808713Y-92389500D01*
X134760042Y-92397208D01*
X134598760Y-92422753D01*
X134396585Y-92488444D01*
X134207179Y-92584951D01*
X134035213Y-92709890D01*
X133884890Y-92860213D01*
X133759949Y-93032182D01*
X133755202Y-93041499D01*
X133707227Y-93092293D01*
X133639405Y-93109087D01*
X133573271Y-93086548D01*
X133534234Y-93041495D01*
X133529626Y-93032452D01*
X133490270Y-92978282D01*
X133490269Y-92978282D01*
X132857962Y-93610590D01*
X132840925Y-93547007D01*
X132775099Y-93432993D01*
X132682007Y-93339901D01*
X132567993Y-93274075D01*
X132504409Y-93257037D01*
X133136716Y-92624728D01*
X133082550Y-92585375D01*
X132893217Y-92488904D01*
X132691129Y-92423242D01*
X132481246Y-92390000D01*
X132268754Y-92390000D01*
X132058872Y-92423242D01*
X132058869Y-92423242D01*
X131856782Y-92488904D01*
X131667439Y-92585380D01*
X131613282Y-92624727D01*
X131613282Y-92624728D01*
X132245591Y-93257037D01*
X132182007Y-93274075D01*
X132067993Y-93339901D01*
X131974901Y-93432993D01*
X131909075Y-93547007D01*
X131892037Y-93610591D01*
X131221818Y-92940372D01*
X131188333Y-92879049D01*
X131188330Y-92879036D01*
X131185499Y-92866015D01*
X131185499Y-92842128D01*
X131179091Y-92782517D01*
X131145165Y-92691557D01*
X131128798Y-92647673D01*
X131128793Y-92647664D01*
X131042547Y-92532455D01*
X131042544Y-92532452D01*
X130927335Y-92446206D01*
X130927328Y-92446202D01*
X130792482Y-92395908D01*
X130792483Y-92395908D01*
X130732883Y-92389501D01*
X130732881Y-92389500D01*
X130732873Y-92389500D01*
X130732864Y-92389500D01*
X128937129Y-92389500D01*
X128937123Y-92389501D01*
X128877516Y-92395908D01*
X128742671Y-92446202D01*
X128742664Y-92446206D01*
X128627455Y-92532452D01*
X128627452Y-92532455D01*
X128541206Y-92647664D01*
X128541202Y-92647671D01*
X128490908Y-92782517D01*
X128484501Y-92842116D01*
X128484500Y-92842135D01*
X128484500Y-94637870D01*
X128484501Y-94637876D01*
X128491738Y-94705196D01*
X128490342Y-94705345D01*
X128487050Y-94766756D01*
X128446182Y-94823427D01*
X128381163Y-94849007D01*
X128370114Y-94849500D01*
X124760019Y-94849500D01*
X124692980Y-94829815D01*
X124647225Y-94777011D01*
X124637281Y-94707853D01*
X124649534Y-94669205D01*
X124674714Y-94619786D01*
X124736557Y-94498412D01*
X124802246Y-94296243D01*
X124835500Y-94086287D01*
X124835500Y-93873713D01*
X124802246Y-93663757D01*
X124736557Y-93461588D01*
X124640051Y-93272184D01*
X124640049Y-93272181D01*
X124640048Y-93272179D01*
X124515109Y-93100213D01*
X124364786Y-92949890D01*
X124192820Y-92824951D01*
X124192115Y-92824591D01*
X124184054Y-92820485D01*
X124133259Y-92772512D01*
X124116463Y-92704692D01*
X124138999Y-92638556D01*
X124184054Y-92599515D01*
X124192816Y-92595051D01*
X124278977Y-92532452D01*
X124364786Y-92470109D01*
X124364788Y-92470106D01*
X124364792Y-92470104D01*
X124515104Y-92319792D01*
X124515106Y-92319788D01*
X124515109Y-92319786D01*
X124640048Y-92147820D01*
X124640047Y-92147820D01*
X124640051Y-92147816D01*
X124736557Y-91958412D01*
X124802246Y-91756243D01*
X124835500Y-91546287D01*
X124835500Y-91333713D01*
X124802246Y-91123757D01*
X124736557Y-90921588D01*
X124640051Y-90732184D01*
X124640049Y-90732181D01*
X124640048Y-90732179D01*
X124515109Y-90560213D01*
X124364786Y-90409890D01*
X124192817Y-90284949D01*
X124183504Y-90280204D01*
X124132707Y-90232230D01*
X124115912Y-90164409D01*
X124138449Y-90098274D01*
X124183507Y-90059232D01*
X124192555Y-90054622D01*
X124246716Y-90015270D01*
X124246717Y-90015270D01*
X123614408Y-89382962D01*
X123677993Y-89365925D01*
X123792007Y-89300099D01*
X123885099Y-89207007D01*
X123950925Y-89092993D01*
X123967962Y-89029408D01*
X124600270Y-89661717D01*
X124600270Y-89661716D01*
X124639622Y-89607554D01*
X124736095Y-89418217D01*
X124801757Y-89216130D01*
X124801757Y-89216127D01*
X124835000Y-89006246D01*
X124835000Y-88793753D01*
X124801757Y-88583872D01*
X124801757Y-88583869D01*
X124736095Y-88381782D01*
X124639624Y-88192449D01*
X124600270Y-88138282D01*
X124600269Y-88138282D01*
X123967962Y-88770590D01*
X123950925Y-88707007D01*
X123885099Y-88592993D01*
X123792007Y-88499901D01*
X123677993Y-88434075D01*
X123614409Y-88417037D01*
X124246716Y-87784728D01*
X124192547Y-87745373D01*
X124192547Y-87745372D01*
X124183500Y-87740763D01*
X124132706Y-87692788D01*
X124115912Y-87624966D01*
X124138451Y-87558832D01*
X124183508Y-87519793D01*
X124192816Y-87515051D01*
X124281096Y-87450912D01*
X124364786Y-87390109D01*
X124364788Y-87390106D01*
X124364792Y-87390104D01*
X124515104Y-87239792D01*
X124515106Y-87239788D01*
X124515109Y-87239786D01*
X124640048Y-87067820D01*
X124640047Y-87067820D01*
X124640051Y-87067816D01*
X124736557Y-86878412D01*
X124802246Y-86676243D01*
X124835500Y-86466287D01*
X124835500Y-86253713D01*
X124802246Y-86043757D01*
X124736557Y-85841588D01*
X124640051Y-85652184D01*
X124640049Y-85652181D01*
X124640048Y-85652179D01*
X124515109Y-85480213D01*
X124364786Y-85329890D01*
X124192820Y-85204951D01*
X124192115Y-85204591D01*
X124184054Y-85200485D01*
X124133259Y-85152512D01*
X124116463Y-85084692D01*
X124138999Y-85018556D01*
X124184054Y-84979515D01*
X124192816Y-84975051D01*
X124214789Y-84959086D01*
X124364786Y-84850109D01*
X124364788Y-84850106D01*
X124364792Y-84850104D01*
X124515104Y-84699792D01*
X124515106Y-84699788D01*
X124515109Y-84699786D01*
X124640048Y-84527820D01*
X124640047Y-84527820D01*
X124640051Y-84527816D01*
X124736557Y-84338412D01*
X124802246Y-84136243D01*
X124835500Y-83926287D01*
X124835500Y-83713713D01*
X124802246Y-83503757D01*
X124736557Y-83301588D01*
X124640051Y-83112184D01*
X124640049Y-83112181D01*
X124640048Y-83112179D01*
X124515109Y-82940213D01*
X124364786Y-82789890D01*
X124192820Y-82664951D01*
X124192115Y-82664591D01*
X124184054Y-82660485D01*
X124133259Y-82612512D01*
X124116463Y-82544692D01*
X124138999Y-82478556D01*
X124184054Y-82439515D01*
X124192816Y-82435051D01*
X124268921Y-82379758D01*
X124364786Y-82310109D01*
X124364788Y-82310106D01*
X124364792Y-82310104D01*
X124515104Y-82159792D01*
X124515106Y-82159788D01*
X124515109Y-82159786D01*
X124640048Y-81987820D01*
X124640047Y-81987820D01*
X124640051Y-81987816D01*
X124736557Y-81798412D01*
X124802246Y-81596243D01*
X124835500Y-81386287D01*
X124835500Y-81173713D01*
X124802246Y-80963757D01*
X124736557Y-80761588D01*
X124640051Y-80572184D01*
X124640049Y-80572181D01*
X124640048Y-80572179D01*
X124515109Y-80400213D01*
X124364786Y-80249890D01*
X124192820Y-80124951D01*
X124192115Y-80124591D01*
X124184054Y-80120485D01*
X124133259Y-80072512D01*
X124116463Y-80004692D01*
X124138999Y-79938556D01*
X124184054Y-79899515D01*
X124192816Y-79895051D01*
X124268921Y-79839758D01*
X124364786Y-79770109D01*
X124364788Y-79770106D01*
X124364792Y-79770104D01*
X124515104Y-79619792D01*
X124515106Y-79619788D01*
X124515109Y-79619786D01*
X124640048Y-79447820D01*
X124640047Y-79447820D01*
X124640051Y-79447816D01*
X124736557Y-79258412D01*
X124802246Y-79056243D01*
X124835500Y-78846287D01*
X124835500Y-78633713D01*
X124802246Y-78423757D01*
X124736557Y-78221588D01*
X124640051Y-78032184D01*
X124640049Y-78032181D01*
X124640048Y-78032179D01*
X124515109Y-77860213D01*
X124364786Y-77709890D01*
X124192817Y-77584949D01*
X124183504Y-77580204D01*
X124132707Y-77532230D01*
X124115912Y-77464409D01*
X124138449Y-77398274D01*
X124183507Y-77359232D01*
X124192555Y-77354622D01*
X124246716Y-77315270D01*
X124246717Y-77315270D01*
X123614408Y-76682962D01*
X123677993Y-76665925D01*
X123792007Y-76600099D01*
X123885099Y-76507007D01*
X123950925Y-76392993D01*
X123967962Y-76329408D01*
X124600270Y-76961717D01*
X124600270Y-76961716D01*
X124639622Y-76907554D01*
X124736095Y-76718217D01*
X124801757Y-76516130D01*
X124801757Y-76516129D01*
X124803971Y-76502153D01*
X126453500Y-76502153D01*
X126453500Y-76659846D01*
X126484261Y-76814489D01*
X126484264Y-76814501D01*
X126544602Y-76960172D01*
X126544609Y-76960185D01*
X126632210Y-77091288D01*
X126632213Y-77091292D01*
X126743707Y-77202786D01*
X126743711Y-77202789D01*
X126874814Y-77290390D01*
X126874827Y-77290397D01*
X126948025Y-77320716D01*
X127020503Y-77350737D01*
X127175153Y-77381499D01*
X127175156Y-77381500D01*
X127328702Y-77381500D01*
X127395741Y-77401185D01*
X127441496Y-77453989D01*
X127451440Y-77523147D01*
X127422415Y-77586703D01*
X127416383Y-77593181D01*
X126646481Y-78363082D01*
X126646479Y-78363084D01*
X126633045Y-78386354D01*
X126611451Y-78423757D01*
X126567423Y-78500015D01*
X126526499Y-78652743D01*
X126526499Y-78652745D01*
X126526499Y-78820846D01*
X126526500Y-78820859D01*
X126526500Y-82590330D01*
X126526499Y-82590348D01*
X126526499Y-82756054D01*
X126526498Y-82756054D01*
X126526499Y-82756057D01*
X126549790Y-82842980D01*
X126567424Y-82908787D01*
X126581615Y-82933366D01*
X126581616Y-82933368D01*
X126646477Y-83045712D01*
X126646481Y-83045717D01*
X126765349Y-83164585D01*
X126765355Y-83164590D01*
X127506181Y-83905416D01*
X127520884Y-83932343D01*
X127537477Y-83958162D01*
X127538368Y-83964362D01*
X127539666Y-83966739D01*
X127542500Y-83993097D01*
X127542500Y-84114230D01*
X127542499Y-84114248D01*
X127542499Y-84279954D01*
X127542498Y-84279954D01*
X127542499Y-84279957D01*
X127583423Y-84432685D01*
X127583424Y-84432686D01*
X127597912Y-84457782D01*
X127597913Y-84457783D01*
X127662475Y-84569609D01*
X127662481Y-84569617D01*
X127781349Y-84688485D01*
X127781355Y-84688490D01*
X128810181Y-85717316D01*
X128843666Y-85778639D01*
X128846500Y-85804997D01*
X128846500Y-86141273D01*
X128846499Y-86141291D01*
X128846499Y-86306997D01*
X128846498Y-86306997D01*
X128846499Y-86307000D01*
X128887423Y-86459728D01*
X128887424Y-86459730D01*
X128887423Y-86459730D01*
X128891210Y-86466288D01*
X128891211Y-86466289D01*
X128966477Y-86596655D01*
X128966478Y-86596656D01*
X128966480Y-86596659D01*
X129078284Y-86708463D01*
X129078285Y-86708464D01*
X129430341Y-87060520D01*
X129567272Y-87139577D01*
X129720000Y-87180501D01*
X129720003Y-87180501D01*
X129885711Y-87180501D01*
X129885727Y-87180500D01*
X130210274Y-87180500D01*
X130210290Y-87180501D01*
X130217886Y-87180501D01*
X130375997Y-87180501D01*
X130376000Y-87180501D01*
X130528728Y-87139577D01*
X130578847Y-87110639D01*
X130665659Y-87060520D01*
X130777463Y-86948716D01*
X130777464Y-86948714D01*
X130861418Y-86864761D01*
X130922742Y-86831277D01*
X130949099Y-86828443D01*
X133102331Y-86828443D01*
X133102347Y-86828444D01*
X133109943Y-86828444D01*
X133268054Y-86828444D01*
X133268057Y-86828444D01*
X133420785Y-86787520D01*
X133470904Y-86758582D01*
X133557716Y-86708463D01*
X133669520Y-86596659D01*
X133669520Y-86596657D01*
X133679728Y-86586450D01*
X133679730Y-86586447D01*
X135452506Y-84813671D01*
X135452511Y-84813667D01*
X135462714Y-84803463D01*
X135462716Y-84803463D01*
X135574520Y-84691659D01*
X135609628Y-84630850D01*
X135650657Y-84559786D01*
X135650659Y-84559780D01*
X135653577Y-84554728D01*
X135694501Y-84402000D01*
X135694501Y-84243886D01*
X135694501Y-84236291D01*
X135694500Y-84236273D01*
X135694500Y-84125155D01*
X135714185Y-84058116D01*
X135730819Y-84037474D01*
X135788689Y-83979603D01*
X135862520Y-83905773D01*
X135941577Y-83768841D01*
X135982501Y-83616114D01*
X135982501Y-83472500D01*
X135985051Y-83463814D01*
X135983763Y-83454853D01*
X135994741Y-83430812D01*
X136002186Y-83405461D01*
X136009026Y-83399533D01*
X136012788Y-83391297D01*
X136035022Y-83377007D01*
X136054990Y-83359706D01*
X136065504Y-83357418D01*
X136071566Y-83353523D01*
X136106501Y-83348500D01*
X136113331Y-83348500D01*
X136113347Y-83348501D01*
X136181500Y-83348501D01*
X136248539Y-83368186D01*
X136294294Y-83420990D01*
X136305500Y-83472501D01*
X136305500Y-88559330D01*
X136305499Y-88559348D01*
X136305499Y-88725054D01*
X136305498Y-88725054D01*
X136323906Y-88793753D01*
X136346423Y-88877785D01*
X136354620Y-88891983D01*
X136375358Y-88927900D01*
X136375359Y-88927904D01*
X136375360Y-88927904D01*
X136425479Y-89014714D01*
X136425481Y-89014717D01*
X136544349Y-89133585D01*
X136544355Y-89133590D01*
X136960425Y-89549660D01*
X136993910Y-89610983D01*
X136994361Y-89613149D01*
X137025261Y-89768491D01*
X137025264Y-89768501D01*
X137085602Y-89914172D01*
X137085609Y-89914185D01*
X137173210Y-90045288D01*
X137173213Y-90045292D01*
X137284707Y-90156786D01*
X137284711Y-90156789D01*
X137415814Y-90244390D01*
X137415827Y-90244397D01*
X137513730Y-90284949D01*
X137561503Y-90304737D01*
X137716153Y-90335499D01*
X137716156Y-90335500D01*
X137716158Y-90335500D01*
X137873844Y-90335500D01*
X137873845Y-90335499D01*
X138028497Y-90304737D01*
X138174179Y-90244394D01*
X138305289Y-90156789D01*
X138416789Y-90045289D01*
X138504394Y-89914179D01*
X138564737Y-89768497D01*
X138595500Y-89613842D01*
X138595500Y-89456158D01*
X138595500Y-89456155D01*
X138595499Y-89456153D01*
X138564738Y-89301510D01*
X138564737Y-89301503D01*
X138564735Y-89301498D01*
X138504397Y-89155827D01*
X138504390Y-89155814D01*
X138416789Y-89024711D01*
X138416786Y-89024707D01*
X138305292Y-88913213D01*
X138305288Y-88913210D01*
X138273520Y-88891983D01*
X138174185Y-88825609D01*
X138174172Y-88825602D01*
X138028501Y-88765264D01*
X138028491Y-88765261D01*
X137873149Y-88734361D01*
X137811238Y-88701976D01*
X137809660Y-88700425D01*
X137542819Y-88433584D01*
X137509334Y-88372261D01*
X137506500Y-88345903D01*
X137506500Y-78660942D01*
X137499606Y-78635216D01*
X137499605Y-78635213D01*
X137483681Y-78575782D01*
X137465577Y-78508216D01*
X137465576Y-78508213D01*
X137386524Y-78371290D01*
X137386521Y-78371286D01*
X137386520Y-78371284D01*
X137274716Y-78259480D01*
X137274715Y-78259479D01*
X137270385Y-78255149D01*
X137270374Y-78255139D01*
X135646416Y-76631181D01*
X135612931Y-76569858D01*
X135617915Y-76500166D01*
X135659787Y-76444233D01*
X135725251Y-76419816D01*
X135734097Y-76419500D01*
X137342234Y-76419500D01*
X137409273Y-76439185D01*
X137411125Y-76440398D01*
X137542814Y-76528390D01*
X137542827Y-76528397D01*
X137675338Y-76583284D01*
X137688503Y-76588737D01*
X137843153Y-76619499D01*
X137843156Y-76619500D01*
X137843158Y-76619500D01*
X138000844Y-76619500D01*
X138000845Y-76619499D01*
X138155497Y-76588737D01*
X138284951Y-76535116D01*
X138301172Y-76528397D01*
X138301172Y-76528396D01*
X138301179Y-76528394D01*
X138432289Y-76440789D01*
X138543789Y-76329289D01*
X138631394Y-76198179D01*
X138691737Y-76052497D01*
X138722500Y-75897842D01*
X138722500Y-75740158D01*
X138722500Y-75740155D01*
X138722499Y-75740153D01*
X138702457Y-75639395D01*
X138691737Y-75585503D01*
X138688332Y-75577282D01*
X138631397Y-75439827D01*
X138631390Y-75439814D01*
X138543789Y-75308711D01*
X138543786Y-75308707D01*
X138432292Y-75197213D01*
X138432288Y-75197210D01*
X138301185Y-75109609D01*
X138301172Y-75109602D01*
X138155501Y-75049264D01*
X138155489Y-75049261D01*
X138000845Y-75018500D01*
X138000842Y-75018500D01*
X137843158Y-75018500D01*
X137843155Y-75018500D01*
X137688510Y-75049261D01*
X137688498Y-75049264D01*
X137542827Y-75109602D01*
X137542814Y-75109609D01*
X137411125Y-75197602D01*
X137344447Y-75218480D01*
X137342234Y-75218500D01*
X135478389Y-75218500D01*
X135411350Y-75198815D01*
X135365595Y-75146011D01*
X135363828Y-75141952D01*
X135329397Y-75058827D01*
X135329390Y-75058814D01*
X135241789Y-74927711D01*
X135241786Y-74927707D01*
X135130292Y-74816213D01*
X135130288Y-74816210D01*
X134999185Y-74728609D01*
X134999172Y-74728602D01*
X134853501Y-74668264D01*
X134853489Y-74668261D01*
X134698845Y-74637500D01*
X134698842Y-74637500D01*
X134541158Y-74637500D01*
X134541155Y-74637500D01*
X134386510Y-74668261D01*
X134386498Y-74668264D01*
X134240827Y-74728602D01*
X134240814Y-74728609D01*
X134109711Y-74816210D01*
X134109707Y-74816213D01*
X133998213Y-74927707D01*
X133998207Y-74927715D01*
X133910607Y-75058818D01*
X133910602Y-75058827D01*
X133904750Y-75072956D01*
X133860909Y-75127359D01*
X133794614Y-75149423D01*
X133790190Y-75149502D01*
X133652155Y-75149502D01*
X133497510Y-75180263D01*
X133497498Y-75180266D01*
X133351827Y-75240604D01*
X133351814Y-75240611D01*
X133220714Y-75328210D01*
X133220708Y-75328214D01*
X133179434Y-75369488D01*
X133118110Y-75402972D01*
X133067566Y-75403423D01*
X133047842Y-75399500D01*
X132890158Y-75399500D01*
X132890155Y-75399500D01*
X132735510Y-75430261D01*
X132735498Y-75430264D01*
X132589827Y-75490602D01*
X132589814Y-75490609D01*
X132458125Y-75578602D01*
X132391447Y-75599480D01*
X132389234Y-75599500D01*
X131966943Y-75599500D01*
X131814216Y-75640423D01*
X131814209Y-75640426D01*
X131677290Y-75719475D01*
X131677282Y-75719481D01*
X131565481Y-75831282D01*
X131565475Y-75831290D01*
X131486426Y-75968209D01*
X131486423Y-75968216D01*
X131445500Y-76120943D01*
X131445500Y-76227500D01*
X131425815Y-76294539D01*
X131373011Y-76340294D01*
X131321500Y-76351500D01*
X131121940Y-76351500D01*
X131081019Y-76362464D01*
X131081019Y-76362465D01*
X131048793Y-76371100D01*
X130969214Y-76392423D01*
X130969209Y-76392426D01*
X130832290Y-76471475D01*
X130832282Y-76471481D01*
X130775374Y-76528390D01*
X130720480Y-76583284D01*
X130720478Y-76583286D01*
X130134049Y-77169716D01*
X129581584Y-77722181D01*
X129554656Y-77736884D01*
X129528838Y-77753477D01*
X129522637Y-77754368D01*
X129520261Y-77755666D01*
X129493903Y-77758500D01*
X129248897Y-77758500D01*
X129181858Y-77738815D01*
X129136103Y-77686011D01*
X129126159Y-77616853D01*
X129155184Y-77553297D01*
X129161216Y-77546819D01*
X129357300Y-77350735D01*
X130050906Y-76657127D01*
X130050911Y-76657124D01*
X130061114Y-76646920D01*
X130061116Y-76646920D01*
X130172920Y-76535116D01*
X130251977Y-76398184D01*
X130291260Y-76251577D01*
X130292900Y-76245458D01*
X130292900Y-76209611D01*
X130293349Y-76204348D01*
X130304168Y-76176507D01*
X130312585Y-76147846D01*
X130316690Y-76144288D01*
X130318659Y-76139224D01*
X130342817Y-76121649D01*
X130365389Y-76102091D01*
X130373917Y-76099024D01*
X130375160Y-76098121D01*
X130376674Y-76098033D01*
X130384793Y-76095114D01*
X130401728Y-76090577D01*
X130470651Y-76050784D01*
X130538659Y-76011520D01*
X130650463Y-75899716D01*
X130650464Y-75899714D01*
X131002520Y-75547659D01*
X131081577Y-75410728D01*
X131122501Y-75258000D01*
X131122501Y-75099885D01*
X131122501Y-75092290D01*
X131122500Y-75092272D01*
X131122500Y-74770117D01*
X131122501Y-74770104D01*
X131122501Y-74602002D01*
X131122501Y-74602000D01*
X131081577Y-74449272D01*
X131002520Y-74312341D01*
X130650464Y-73960285D01*
X130650463Y-73960284D01*
X130538659Y-73848480D01*
X130454999Y-73800179D01*
X130442107Y-73792736D01*
X130442106Y-73792735D01*
X130436876Y-73789716D01*
X130401728Y-73769423D01*
X130374947Y-73762247D01*
X130365641Y-73758022D01*
X130346606Y-73741602D01*
X130325143Y-73728519D01*
X130320602Y-73719171D01*
X130312735Y-73712385D01*
X130305599Y-73688282D01*
X130294616Y-73665671D01*
X130292932Y-73645498D01*
X130292900Y-73645390D01*
X130292917Y-73645328D01*
X130292900Y-73645113D01*
X130292900Y-73112038D01*
X130312585Y-73044999D01*
X130329219Y-73024357D01*
X130518814Y-72834762D01*
X130768559Y-72585016D01*
X130829880Y-72551533D01*
X130832047Y-72551082D01*
X130889982Y-72539557D01*
X130987394Y-72520181D01*
X131100063Y-72473511D01*
X131133069Y-72459841D01*
X131133069Y-72459840D01*
X131133076Y-72459838D01*
X131264186Y-72372233D01*
X131375686Y-72260733D01*
X131463291Y-72129623D01*
X131523634Y-71983941D01*
X131554397Y-71829286D01*
X131554397Y-71671602D01*
X131554397Y-71671599D01*
X131554396Y-71671597D01*
X131541646Y-71607501D01*
X131523634Y-71516947D01*
X131523632Y-71516942D01*
X131463294Y-71371271D01*
X131463287Y-71371258D01*
X131375686Y-71240155D01*
X131375683Y-71240151D01*
X131291064Y-71155532D01*
X131257579Y-71094209D01*
X131262563Y-71024517D01*
X131291064Y-70980170D01*
X131636593Y-70634642D01*
X132018888Y-70252347D01*
X132045815Y-70237643D01*
X132071634Y-70221051D01*
X132077834Y-70220159D01*
X132080211Y-70218862D01*
X132106569Y-70216028D01*
X132209837Y-70216028D01*
X132276876Y-70235713D01*
X132278728Y-70236926D01*
X132366413Y-70295515D01*
X132366414Y-70295515D01*
X132366415Y-70295516D01*
X132496714Y-70349487D01*
X132512095Y-70355858D01*
X132666745Y-70386620D01*
X132666748Y-70386621D01*
X132666750Y-70386621D01*
X132824436Y-70386621D01*
X132824437Y-70386620D01*
X132979089Y-70355858D01*
X133124771Y-70295515D01*
X133255881Y-70207910D01*
X133367381Y-70096410D01*
X133454986Y-69965300D01*
X133515329Y-69819618D01*
X133531625Y-69737689D01*
X133564008Y-69675783D01*
X133565560Y-69674202D01*
X133572448Y-69667314D01*
X133572451Y-69667313D01*
X133684255Y-69555509D01*
X133750067Y-69441519D01*
X133763312Y-69418578D01*
X133804236Y-69265850D01*
X133804236Y-69107736D01*
X133804236Y-69100141D01*
X133804235Y-69100123D01*
X133804235Y-67363500D01*
X133823920Y-67296461D01*
X133825133Y-67294609D01*
X133913125Y-67162920D01*
X133913125Y-67162919D01*
X133913129Y-67162914D01*
X133973472Y-67017232D01*
X134004235Y-66862577D01*
X134004235Y-66704893D01*
X134004235Y-66704890D01*
X134004234Y-66704888D01*
X133973473Y-66550245D01*
X133973472Y-66550238D01*
X133966769Y-66534056D01*
X133913132Y-66404562D01*
X133913125Y-66404549D01*
X133825524Y-66273446D01*
X133825521Y-66273442D01*
X133714027Y-66161948D01*
X133714023Y-66161945D01*
X133582920Y-66074344D01*
X133582907Y-66074337D01*
X133437236Y-66013999D01*
X133437224Y-66013996D01*
X133282580Y-65983235D01*
X133282577Y-65983235D01*
X133124893Y-65983235D01*
X133124890Y-65983235D01*
X132970245Y-66013996D01*
X132970233Y-66013999D01*
X132824562Y-66074337D01*
X132824549Y-66074344D01*
X132693446Y-66161945D01*
X132693442Y-66161948D01*
X132581948Y-66273442D01*
X132581945Y-66273446D01*
X132494344Y-66404549D01*
X132494337Y-66404562D01*
X132433999Y-66550233D01*
X132433996Y-66550245D01*
X132403235Y-66704888D01*
X132403235Y-66862581D01*
X132433996Y-67017224D01*
X132433999Y-67017236D01*
X132494337Y-67162907D01*
X132494344Y-67162920D01*
X132582337Y-67294609D01*
X132603215Y-67361286D01*
X132603235Y-67363500D01*
X132603235Y-68696772D01*
X132583550Y-68763811D01*
X132530746Y-68809566D01*
X132515236Y-68815431D01*
X132512092Y-68816384D01*
X132366419Y-68876723D01*
X132366406Y-68876730D01*
X132235303Y-68964331D01*
X132235299Y-68964334D01*
X132220925Y-68978709D01*
X132193997Y-68993412D01*
X132168179Y-69010005D01*
X132161978Y-69010896D01*
X132159602Y-69012194D01*
X132133244Y-69015028D01*
X131893141Y-69015028D01*
X131893125Y-69015027D01*
X131885529Y-69015027D01*
X131727415Y-69015027D01*
X131634806Y-69039842D01*
X131574686Y-69055951D01*
X131531570Y-69080845D01*
X131531569Y-69080845D01*
X131437759Y-69135005D01*
X131437754Y-69135009D01*
X130033339Y-70539425D01*
X129972016Y-70572910D01*
X129969850Y-70573361D01*
X129814508Y-70604261D01*
X129814498Y-70604264D01*
X129668827Y-70664602D01*
X129668814Y-70664609D01*
X129537711Y-70752210D01*
X129537707Y-70752213D01*
X129426213Y-70863707D01*
X129426210Y-70863711D01*
X129338609Y-70994814D01*
X129338602Y-70994827D01*
X129278264Y-71140498D01*
X129278261Y-71140510D01*
X129247500Y-71295153D01*
X129247500Y-71452846D01*
X129278261Y-71607489D01*
X129278264Y-71607501D01*
X129338602Y-71753172D01*
X129338609Y-71753185D01*
X129426210Y-71884288D01*
X129426213Y-71884292D01*
X129510832Y-71968911D01*
X129544317Y-72030234D01*
X129539333Y-72099926D01*
X129510832Y-72144273D01*
X129211881Y-72443223D01*
X129211877Y-72443228D01*
X129193636Y-72474825D01*
X129193635Y-72474827D01*
X129132823Y-72580156D01*
X129091899Y-72732884D01*
X129091899Y-72732886D01*
X129091899Y-72900987D01*
X129091900Y-72901000D01*
X129091900Y-74408056D01*
X129132823Y-74560783D01*
X129132823Y-74560784D01*
X129145718Y-74583119D01*
X129162189Y-74651020D01*
X129159513Y-74671398D01*
X129157152Y-74682285D01*
X129151263Y-74696503D01*
X129120500Y-74851158D01*
X129120500Y-74851299D01*
X129119928Y-74853937D01*
X129103694Y-74883712D01*
X129087977Y-74913759D01*
X129086471Y-74915292D01*
X128946582Y-75055182D01*
X128885262Y-75088666D01*
X128858903Y-75091500D01*
X127587057Y-75091500D01*
X127428942Y-75091500D01*
X127276215Y-75132423D01*
X127259711Y-75141952D01*
X127246632Y-75149503D01*
X127246631Y-75149502D01*
X127139287Y-75211477D01*
X127139282Y-75211481D01*
X126773481Y-75577282D01*
X126773479Y-75577285D01*
X126760665Y-75599480D01*
X126737621Y-75639394D01*
X126694423Y-75714215D01*
X126653499Y-75866943D01*
X126653499Y-75866945D01*
X126653499Y-76001235D01*
X126633814Y-76068274D01*
X126632601Y-76070126D01*
X126544609Y-76201814D01*
X126544602Y-76201827D01*
X126484264Y-76347498D01*
X126484261Y-76347510D01*
X126453500Y-76502153D01*
X124803971Y-76502153D01*
X124808008Y-76476667D01*
X124808008Y-76476666D01*
X124835000Y-76306246D01*
X124835000Y-76093753D01*
X124801757Y-75883872D01*
X124801757Y-75883869D01*
X124736095Y-75681782D01*
X124639624Y-75492449D01*
X124600270Y-75438282D01*
X124600269Y-75438282D01*
X123967962Y-76070590D01*
X123950925Y-76007007D01*
X123885099Y-75892993D01*
X123792007Y-75799901D01*
X123677993Y-75734075D01*
X123614409Y-75717037D01*
X124246716Y-75084728D01*
X124192547Y-75045373D01*
X124192547Y-75045372D01*
X124183500Y-75040763D01*
X124132706Y-74992788D01*
X124115912Y-74924966D01*
X124138451Y-74858832D01*
X124183508Y-74819793D01*
X124192816Y-74815051D01*
X124311794Y-74728609D01*
X124364786Y-74690109D01*
X124364788Y-74690106D01*
X124364792Y-74690104D01*
X124515104Y-74539792D01*
X124515106Y-74539788D01*
X124515109Y-74539786D01*
X124640048Y-74367820D01*
X124640047Y-74367820D01*
X124640051Y-74367816D01*
X124736557Y-74178412D01*
X124802246Y-73976243D01*
X124835500Y-73766287D01*
X124835500Y-73749500D01*
X124855185Y-73682461D01*
X124907989Y-73636706D01*
X124959500Y-73625500D01*
X125739398Y-73625500D01*
X125806437Y-73645185D01*
X125852192Y-73697989D01*
X125853959Y-73702048D01*
X125894602Y-73800172D01*
X125894609Y-73800185D01*
X125982210Y-73931288D01*
X125982213Y-73931292D01*
X126093707Y-74042786D01*
X126093711Y-74042789D01*
X126224814Y-74130390D01*
X126224827Y-74130397D01*
X126340752Y-74178414D01*
X126370503Y-74190737D01*
X126525153Y-74221499D01*
X126525156Y-74221500D01*
X126525158Y-74221500D01*
X126682844Y-74221500D01*
X126682845Y-74221499D01*
X126837497Y-74190737D01*
X126983179Y-74130394D01*
X127114289Y-74042789D01*
X127225789Y-73931289D01*
X127313394Y-73800179D01*
X127373737Y-73654497D01*
X127404500Y-73499842D01*
X127404500Y-73342158D01*
X127404500Y-73342155D01*
X127404499Y-73342153D01*
X127380810Y-73223062D01*
X127373737Y-73187503D01*
X127342283Y-73111565D01*
X127313396Y-73041825D01*
X127311569Y-73038407D01*
X127311152Y-73036408D01*
X127311063Y-73036192D01*
X127311104Y-73036174D01*
X127297323Y-72970005D01*
X127311569Y-72921489D01*
X127313390Y-72918080D01*
X127313394Y-72918075D01*
X127373737Y-72772393D01*
X127404500Y-72617738D01*
X127404500Y-72460054D01*
X127404500Y-72460051D01*
X127404499Y-72460049D01*
X127387031Y-72372233D01*
X127373737Y-72305399D01*
X127355236Y-72260733D01*
X127314375Y-72162084D01*
X127311278Y-72133281D01*
X127305316Y-72104928D01*
X127307328Y-72096542D01*
X127306906Y-72092615D01*
X127313058Y-72070493D01*
X127313691Y-72068828D01*
X127373737Y-71923866D01*
X127379013Y-71897339D01*
X127382719Y-71887611D01*
X127397800Y-71867753D01*
X127409360Y-71845652D01*
X127420187Y-71838276D01*
X127424977Y-71831970D01*
X127434606Y-71828454D01*
X127451142Y-71817190D01*
X127506179Y-71794394D01*
X127637289Y-71706789D01*
X127748789Y-71595289D01*
X127836394Y-71464179D01*
X127896737Y-71318497D01*
X127927500Y-71163842D01*
X127927500Y-71006158D01*
X127927500Y-71006155D01*
X127927499Y-71006153D01*
X127925245Y-70994821D01*
X127896737Y-70851503D01*
X127896735Y-70851498D01*
X127836397Y-70705827D01*
X127836390Y-70705814D01*
X127748789Y-70574711D01*
X127748786Y-70574707D01*
X127637292Y-70463213D01*
X127637288Y-70463210D01*
X127506185Y-70375609D01*
X127506172Y-70375602D01*
X127360501Y-70315264D01*
X127360491Y-70315261D01*
X127205149Y-70284361D01*
X127143238Y-70251976D01*
X127141660Y-70250425D01*
X126615515Y-69724280D01*
X126582030Y-69662957D01*
X126579196Y-69636599D01*
X126579196Y-69121880D01*
X126598881Y-69054841D01*
X126651685Y-69009086D01*
X126679005Y-69000263D01*
X126682841Y-68999500D01*
X126682842Y-68999500D01*
X126837497Y-68968737D01*
X126983179Y-68908394D01*
X127114289Y-68820789D01*
X127225789Y-68709289D01*
X127313394Y-68578179D01*
X127373737Y-68432497D01*
X127404500Y-68277842D01*
X127404500Y-68120158D01*
X127404500Y-68120155D01*
X127404499Y-68120153D01*
X127373737Y-67965503D01*
X127373735Y-67965498D01*
X127313397Y-67819827D01*
X127313390Y-67819814D01*
X127225398Y-67688125D01*
X127204520Y-67621447D01*
X127204500Y-67619234D01*
X127204500Y-63634360D01*
X127224185Y-63567321D01*
X127240819Y-63546679D01*
X127480491Y-63307007D01*
X127808020Y-62979479D01*
X127887077Y-62842547D01*
X127928001Y-62689820D01*
X127928001Y-62531705D01*
X127928001Y-62524110D01*
X127928000Y-62524092D01*
X127928000Y-59585623D01*
X127947685Y-59518584D01*
X127948898Y-59516732D01*
X128036890Y-59385043D01*
X128036890Y-59385042D01*
X128036894Y-59385037D01*
X128097237Y-59239355D01*
X128128000Y-59084700D01*
X128128000Y-58927016D01*
X128128000Y-58927013D01*
X128127999Y-58927011D01*
X128097238Y-58772368D01*
X128097237Y-58772361D01*
X128056702Y-58674500D01*
X128036897Y-58626685D01*
X128036890Y-58626672D01*
X127949289Y-58495569D01*
X127949286Y-58495565D01*
X127837792Y-58384071D01*
X127837788Y-58384068D01*
X127706685Y-58296467D01*
X127706672Y-58296460D01*
X127561001Y-58236122D01*
X127560989Y-58236119D01*
X127406345Y-58205358D01*
X127406342Y-58205358D01*
X127248658Y-58205358D01*
X127248655Y-58205358D01*
X127094010Y-58236119D01*
X127093998Y-58236122D01*
X126948328Y-58296460D01*
X126948315Y-58296467D01*
X126926337Y-58311152D01*
X126924053Y-58311867D01*
X126922451Y-58313645D01*
X126890870Y-58322255D01*
X126859658Y-58332027D01*
X126856634Y-58331589D01*
X126855042Y-58332024D01*
X126844727Y-58329868D01*
X126820211Y-58326323D01*
X126815019Y-58324688D01*
X126763836Y-58303488D01*
X126719971Y-58294762D01*
X126713531Y-58292735D01*
X126689889Y-58276884D01*
X126664667Y-58263690D01*
X126661243Y-58257678D01*
X126655498Y-58253826D01*
X126644179Y-58227712D01*
X126630093Y-58202974D01*
X126629158Y-58198676D01*
X126626737Y-58186503D01*
X126592463Y-58103757D01*
X126566397Y-58040827D01*
X126566390Y-58040814D01*
X126478789Y-57909711D01*
X126478786Y-57909707D01*
X126367292Y-57798213D01*
X126367288Y-57798210D01*
X126236185Y-57710609D01*
X126236172Y-57710602D01*
X126090501Y-57650264D01*
X126090489Y-57650261D01*
X125935845Y-57619500D01*
X125935842Y-57619500D01*
X125839500Y-57619500D01*
X125838645Y-57619249D01*
X125837788Y-57619488D01*
X125805169Y-57609419D01*
X125772461Y-57599815D01*
X125771878Y-57599143D01*
X125771026Y-57598880D01*
X125749003Y-57572743D01*
X125726706Y-57547011D01*
X125726389Y-57545905D01*
X125726005Y-57545449D01*
X125725300Y-57542099D01*
X125716530Y-57511450D01*
X125715500Y-57503509D01*
X125715500Y-57430943D01*
X125699390Y-57370821D01*
X125674577Y-57278215D01*
X125652346Y-57239711D01*
X125627829Y-57197246D01*
X125627828Y-57197244D01*
X125600552Y-57150000D01*
X125595520Y-57141284D01*
X125483716Y-57029480D01*
X125483715Y-57029479D01*
X125479385Y-57025149D01*
X125479374Y-57025139D01*
X124818757Y-56364522D01*
X124785272Y-56303199D01*
X124788507Y-56238523D01*
X124802246Y-56196243D01*
X124835500Y-55986287D01*
X124835500Y-55773713D01*
X124802246Y-55563757D01*
X124736557Y-55361588D01*
X124640051Y-55172184D01*
X124640049Y-55172181D01*
X124640048Y-55172179D01*
X124515109Y-55000213D01*
X124364786Y-54849890D01*
X124192820Y-54724951D01*
X124192115Y-54724591D01*
X124184054Y-54720485D01*
X124133259Y-54672512D01*
X124116463Y-54604692D01*
X124138999Y-54538556D01*
X124184054Y-54499515D01*
X124192816Y-54495051D01*
X124268921Y-54439758D01*
X124364786Y-54370109D01*
X124364788Y-54370106D01*
X124364792Y-54370104D01*
X124515104Y-54219792D01*
X124515106Y-54219788D01*
X124515109Y-54219786D01*
X124640048Y-54047820D01*
X124640047Y-54047820D01*
X124640051Y-54047816D01*
X124736557Y-53858412D01*
X124802246Y-53656243D01*
X124835500Y-53446287D01*
X124835500Y-53233713D01*
X124802246Y-53023757D01*
X124736557Y-52821588D01*
X124640051Y-52632184D01*
X124640049Y-52632181D01*
X124640048Y-52632179D01*
X124515109Y-52460213D01*
X124364786Y-52309890D01*
X124192817Y-52184949D01*
X124183504Y-52180204D01*
X124132707Y-52132230D01*
X124115912Y-52064409D01*
X124138449Y-51998274D01*
X124183507Y-51959232D01*
X124192555Y-51954622D01*
X124246716Y-51915270D01*
X124246717Y-51915270D01*
X123614408Y-51282962D01*
X123677993Y-51265925D01*
X123792007Y-51200099D01*
X123885099Y-51107007D01*
X123950925Y-50992993D01*
X123967962Y-50929408D01*
X124600270Y-51561717D01*
X124600270Y-51561716D01*
X124639622Y-51507554D01*
X124736095Y-51318217D01*
X124801757Y-51116130D01*
X124801757Y-51116127D01*
X124835000Y-50906246D01*
X124835000Y-50693753D01*
X124801757Y-50483872D01*
X124801757Y-50483869D01*
X124736094Y-50281780D01*
X124712225Y-50234934D01*
X124712224Y-50234933D01*
X124639624Y-50092449D01*
X124600270Y-50038282D01*
X124600269Y-50038282D01*
X123967962Y-50670590D01*
X123950925Y-50607007D01*
X123885099Y-50492993D01*
X123792007Y-50399901D01*
X123677993Y-50334075D01*
X123614409Y-50317037D01*
X124246716Y-49684728D01*
X124192547Y-49645373D01*
X124192547Y-49645372D01*
X124183500Y-49640763D01*
X124132706Y-49592788D01*
X124115912Y-49524966D01*
X124138451Y-49458832D01*
X124183508Y-49419793D01*
X124192816Y-49415051D01*
X124307804Y-49331508D01*
X124307810Y-49331504D01*
X127055000Y-49331504D01*
X127055000Y-49730000D01*
X127755000Y-49730000D01*
X127755000Y-50230000D01*
X127055000Y-50230000D01*
X127055000Y-50628495D01*
X127093427Y-50821681D01*
X127093430Y-50821693D01*
X127168807Y-51003671D01*
X127168814Y-51003684D01*
X127278248Y-51167462D01*
X127278251Y-51167466D01*
X127417533Y-51306748D01*
X127417537Y-51306751D01*
X127581315Y-51416185D01*
X127581328Y-51416192D01*
X127763308Y-51491569D01*
X127805000Y-51499862D01*
X127805000Y-50696988D01*
X127814940Y-50714205D01*
X127870795Y-50770060D01*
X127939204Y-50809556D01*
X128015504Y-50830000D01*
X128094496Y-50830000D01*
X128170796Y-50809556D01*
X128239205Y-50770060D01*
X128295060Y-50714205D01*
X128305000Y-50696988D01*
X128305000Y-51499862D01*
X128346690Y-51491569D01*
X128346692Y-51491569D01*
X128528671Y-51416192D01*
X128528684Y-51416185D01*
X128692462Y-51306751D01*
X128692466Y-51306748D01*
X128831748Y-51167466D01*
X128831751Y-51167462D01*
X128941185Y-51003684D01*
X128941192Y-51003671D01*
X129016569Y-50821693D01*
X129016572Y-50821681D01*
X129054999Y-50628495D01*
X129055000Y-50628492D01*
X129055000Y-50230000D01*
X128355000Y-50230000D01*
X128355000Y-49730000D01*
X128910536Y-49730000D01*
X128977575Y-49749685D01*
X129017923Y-49792000D01*
X129024482Y-49803361D01*
X129024484Y-49803364D01*
X129024485Y-49803365D01*
X129131635Y-49910515D01*
X129262865Y-49986281D01*
X129409234Y-50025500D01*
X129409236Y-50025500D01*
X129560764Y-50025500D01*
X129560766Y-50025500D01*
X129707135Y-49986281D01*
X129838365Y-49910515D01*
X129945515Y-49803365D01*
X130021281Y-49672135D01*
X130060500Y-49525766D01*
X130060500Y-49374234D01*
X134689500Y-49374234D01*
X134689500Y-49525766D01*
X134703294Y-49577246D01*
X134728719Y-49672136D01*
X134766602Y-49737750D01*
X134804485Y-49803365D01*
X134911635Y-49910515D01*
X135042865Y-49986281D01*
X135189234Y-50025500D01*
X135189236Y-50025500D01*
X135340764Y-50025500D01*
X135340766Y-50025500D01*
X135487135Y-49986281D01*
X135618365Y-49910515D01*
X135725515Y-49803365D01*
X135732077Y-49792000D01*
X135782644Y-49743784D01*
X135839464Y-49730000D01*
X136395000Y-49730000D01*
X136395000Y-50230000D01*
X135695000Y-50230000D01*
X135695000Y-50628495D01*
X135733427Y-50821681D01*
X135733430Y-50821693D01*
X135808807Y-51003671D01*
X135808814Y-51003684D01*
X135918248Y-51167462D01*
X135918251Y-51167466D01*
X136057533Y-51306748D01*
X136057537Y-51306751D01*
X136221315Y-51416185D01*
X136221328Y-51416192D01*
X136403308Y-51491569D01*
X136445000Y-51499862D01*
X136445000Y-50696988D01*
X136454940Y-50714205D01*
X136510795Y-50770060D01*
X136579204Y-50809556D01*
X136655504Y-50830000D01*
X136734496Y-50830000D01*
X136810796Y-50809556D01*
X136879205Y-50770060D01*
X136935060Y-50714205D01*
X136945000Y-50696988D01*
X136945000Y-51499862D01*
X136986690Y-51491569D01*
X136986692Y-51491569D01*
X137168671Y-51416192D01*
X137168684Y-51416185D01*
X137332462Y-51306751D01*
X137332466Y-51306748D01*
X137471748Y-51167466D01*
X137471751Y-51167462D01*
X137581185Y-51003684D01*
X137581192Y-51003671D01*
X137656569Y-50821693D01*
X137656572Y-50821681D01*
X137687800Y-50664690D01*
X137694999Y-50628494D01*
X137695000Y-50628492D01*
X137695000Y-50230000D01*
X136995000Y-50230000D01*
X136995000Y-49730000D01*
X137695000Y-49730000D01*
X137695000Y-49331508D01*
X137694999Y-49331504D01*
X137656572Y-49138318D01*
X137656569Y-49138306D01*
X137581192Y-48956328D01*
X137581185Y-48956315D01*
X137471751Y-48792537D01*
X137471748Y-48792533D01*
X137332466Y-48653251D01*
X137332462Y-48653248D01*
X137168684Y-48543814D01*
X137168671Y-48543807D01*
X136986691Y-48468429D01*
X136986683Y-48468427D01*
X136945000Y-48460135D01*
X136945000Y-49263011D01*
X136935060Y-49245795D01*
X136879205Y-49189940D01*
X136810796Y-49150444D01*
X136734496Y-49130000D01*
X136655504Y-49130000D01*
X136579204Y-49150444D01*
X136510795Y-49189940D01*
X136454940Y-49245795D01*
X136445000Y-49263011D01*
X136445000Y-48460136D01*
X136444999Y-48460135D01*
X136403316Y-48468427D01*
X136403308Y-48468429D01*
X136221328Y-48543807D01*
X136221315Y-48543814D01*
X136057537Y-48653248D01*
X136057533Y-48653251D01*
X135918248Y-48792536D01*
X135805427Y-48961387D01*
X135804003Y-48960435D01*
X135760742Y-49004451D01*
X135692600Y-49019892D01*
X135626927Y-48996041D01*
X135624907Y-48994306D01*
X135624811Y-48994432D01*
X135618367Y-48989487D01*
X135618365Y-48989485D01*
X135552750Y-48951602D01*
X135487136Y-48913719D01*
X135413950Y-48894109D01*
X135340766Y-48874500D01*
X135189234Y-48874500D01*
X135042863Y-48913719D01*
X134911635Y-48989485D01*
X134911632Y-48989487D01*
X134804487Y-49096632D01*
X134804485Y-49096635D01*
X134728719Y-49227863D01*
X134705585Y-49314204D01*
X134689500Y-49374234D01*
X130060500Y-49374234D01*
X130021281Y-49227865D01*
X129945515Y-49096635D01*
X129838365Y-48989485D01*
X129772750Y-48951602D01*
X129707136Y-48913719D01*
X129633950Y-48894109D01*
X129560766Y-48874500D01*
X129409234Y-48874500D01*
X129262863Y-48913719D01*
X129131635Y-48989485D01*
X129125189Y-48994432D01*
X129123099Y-48991709D01*
X129075217Y-49017466D01*
X129005558Y-49012043D01*
X128949888Y-48969821D01*
X128944299Y-48960976D01*
X128831751Y-48792537D01*
X128831748Y-48792533D01*
X128692466Y-48653251D01*
X128692462Y-48653248D01*
X128528684Y-48543814D01*
X128528671Y-48543807D01*
X128346691Y-48468429D01*
X128346683Y-48468427D01*
X128305000Y-48460135D01*
X128305000Y-49263011D01*
X128295060Y-49245795D01*
X128239205Y-49189940D01*
X128170796Y-49150444D01*
X128094496Y-49130000D01*
X128015504Y-49130000D01*
X127939204Y-49150444D01*
X127870795Y-49189940D01*
X127814940Y-49245795D01*
X127805000Y-49263011D01*
X127805000Y-48460136D01*
X127804999Y-48460135D01*
X127763316Y-48468427D01*
X127763308Y-48468429D01*
X127581328Y-48543807D01*
X127581315Y-48543814D01*
X127417537Y-48653248D01*
X127417533Y-48653251D01*
X127278251Y-48792533D01*
X127278248Y-48792537D01*
X127168814Y-48956315D01*
X127168807Y-48956328D01*
X127093430Y-49138306D01*
X127093427Y-49138318D01*
X127055000Y-49331504D01*
X124307810Y-49331504D01*
X124364786Y-49290109D01*
X124364788Y-49290106D01*
X124364792Y-49290104D01*
X124515104Y-49139792D01*
X124515106Y-49139788D01*
X124515109Y-49139786D01*
X124640048Y-48967820D01*
X124640047Y-48967820D01*
X124640051Y-48967816D01*
X124736557Y-48778412D01*
X124802246Y-48576243D01*
X124835500Y-48366287D01*
X124835500Y-48153713D01*
X124802246Y-47943757D01*
X124736557Y-47741588D01*
X124640051Y-47552184D01*
X124640049Y-47552181D01*
X124640048Y-47552179D01*
X124515109Y-47380213D01*
X124401569Y-47266673D01*
X124368084Y-47205350D01*
X124373068Y-47135658D01*
X124414940Y-47079725D01*
X124445915Y-47062810D01*
X124577331Y-47013796D01*
X124692546Y-46927546D01*
X124778796Y-46812331D01*
X124829091Y-46677483D01*
X124835500Y-46617873D01*
X124835499Y-45550000D01*
X124835499Y-44974500D01*
X124855183Y-44907461D01*
X124907987Y-44861706D01*
X124959499Y-44850500D01*
X127056060Y-44850500D01*
X127123099Y-44870185D01*
G37*
%TD.AperFunction*%
%TA.AperFunction,Conductor*%
G36*
X133490270Y-94501717D02*
G01*
X133490270Y-94501716D01*
X133529622Y-94447555D01*
X133534232Y-94438507D01*
X133582205Y-94387709D01*
X133650025Y-94370912D01*
X133716161Y-94393447D01*
X133755204Y-94438504D01*
X133759949Y-94447817D01*
X133884890Y-94619786D01*
X133902923Y-94637819D01*
X133936408Y-94699142D01*
X133931424Y-94768834D01*
X133889552Y-94824767D01*
X133824088Y-94849184D01*
X133815242Y-94849500D01*
X133182308Y-94849500D01*
X133115269Y-94829815D01*
X133094627Y-94813181D01*
X132504408Y-94222962D01*
X132567993Y-94205925D01*
X132682007Y-94140099D01*
X132775099Y-94047007D01*
X132840925Y-93932993D01*
X132857962Y-93869409D01*
X133490270Y-94501717D01*
G37*
%TD.AperFunction*%
%TA.AperFunction,Conductor*%
G36*
X142338181Y-89619627D02*
G01*
X142371666Y-89680950D01*
X142374500Y-89707308D01*
X142374500Y-90340242D01*
X142354815Y-90407281D01*
X142302011Y-90453036D01*
X142232853Y-90462980D01*
X142169297Y-90433955D01*
X142162819Y-90427923D01*
X142144786Y-90409890D01*
X141972817Y-90284949D01*
X141963504Y-90280204D01*
X141912707Y-90232230D01*
X141895912Y-90164409D01*
X141918449Y-90098274D01*
X141963507Y-90059232D01*
X141972555Y-90054622D01*
X142026716Y-90015270D01*
X142026717Y-90015270D01*
X141394408Y-89382962D01*
X141457993Y-89365925D01*
X141572007Y-89300099D01*
X141665099Y-89207007D01*
X141730925Y-89092993D01*
X141747962Y-89029408D01*
X142338181Y-89619627D01*
G37*
%TD.AperFunction*%
%TA.AperFunction,Conductor*%
G36*
X123019075Y-89092993D02*
G01*
X123084901Y-89207007D01*
X123177993Y-89300099D01*
X123292007Y-89365925D01*
X123355590Y-89382962D01*
X122723282Y-90015269D01*
X122723282Y-90015270D01*
X122777452Y-90054626D01*
X122777451Y-90054626D01*
X122786495Y-90059234D01*
X122837292Y-90107208D01*
X122854087Y-90175029D01*
X122831550Y-90241164D01*
X122786499Y-90280202D01*
X122777182Y-90284949D01*
X122605213Y-90409890D01*
X122605209Y-90409894D01*
X122587181Y-90427923D01*
X122525858Y-90461408D01*
X122456166Y-90456424D01*
X122400233Y-90414552D01*
X122375816Y-90349088D01*
X122375500Y-90340242D01*
X122375500Y-89707308D01*
X122395185Y-89640269D01*
X122411819Y-89619627D01*
X123002037Y-89029408D01*
X123019075Y-89092993D01*
G37*
%TD.AperFunction*%
%TA.AperFunction,Conductor*%
G36*
X122580703Y-87366045D02*
G01*
X122587181Y-87372077D01*
X122605213Y-87390109D01*
X122777179Y-87515048D01*
X122777181Y-87515049D01*
X122777184Y-87515051D01*
X122786493Y-87519794D01*
X122837290Y-87567766D01*
X122854087Y-87635587D01*
X122831552Y-87701722D01*
X122786505Y-87740760D01*
X122777446Y-87745376D01*
X122777440Y-87745380D01*
X122723282Y-87784727D01*
X122723282Y-87784728D01*
X123355591Y-88417037D01*
X123292007Y-88434075D01*
X123177993Y-88499901D01*
X123084901Y-88592993D01*
X123019075Y-88707007D01*
X123002037Y-88770591D01*
X122411819Y-88180373D01*
X122378334Y-88119050D01*
X122375500Y-88092692D01*
X122375500Y-87459758D01*
X122395185Y-87392719D01*
X122447989Y-87346964D01*
X122517147Y-87337020D01*
X122580703Y-87366045D01*
G37*
%TD.AperFunction*%
%TA.AperFunction,Conductor*%
G36*
X142293834Y-87343576D02*
G01*
X142349767Y-87385448D01*
X142374184Y-87450912D01*
X142374500Y-87459758D01*
X142374500Y-88092692D01*
X142354815Y-88159731D01*
X142338181Y-88180373D01*
X141747962Y-88770591D01*
X141730925Y-88707007D01*
X141665099Y-88592993D01*
X141572007Y-88499901D01*
X141457993Y-88434075D01*
X141394409Y-88417037D01*
X142026716Y-87784728D01*
X141972547Y-87745373D01*
X141972547Y-87745372D01*
X141963500Y-87740763D01*
X141912706Y-87692788D01*
X141895912Y-87624966D01*
X141918451Y-87558832D01*
X141963508Y-87519793D01*
X141972816Y-87515051D01*
X142061096Y-87450912D01*
X142144786Y-87390109D01*
X142144788Y-87390106D01*
X142144792Y-87390104D01*
X142162819Y-87372077D01*
X142224142Y-87338592D01*
X142293834Y-87343576D01*
G37*
%TD.AperFunction*%
%TA.AperFunction,Conductor*%
G36*
X142338181Y-76919627D02*
G01*
X142371666Y-76980950D01*
X142374500Y-77007308D01*
X142374500Y-77640242D01*
X142354815Y-77707281D01*
X142302011Y-77753036D01*
X142232853Y-77762980D01*
X142169297Y-77733955D01*
X142162819Y-77727923D01*
X142144786Y-77709890D01*
X141972817Y-77584949D01*
X141963504Y-77580204D01*
X141912707Y-77532230D01*
X141895912Y-77464409D01*
X141918449Y-77398274D01*
X141963507Y-77359232D01*
X141972555Y-77354622D01*
X142026716Y-77315270D01*
X142026717Y-77315270D01*
X141394408Y-76682962D01*
X141457993Y-76665925D01*
X141572007Y-76600099D01*
X141665099Y-76507007D01*
X141730925Y-76392993D01*
X141747962Y-76329408D01*
X142338181Y-76919627D01*
G37*
%TD.AperFunction*%
%TA.AperFunction,Conductor*%
G36*
X123019075Y-76392993D02*
G01*
X123084901Y-76507007D01*
X123177993Y-76600099D01*
X123292007Y-76665925D01*
X123355590Y-76682962D01*
X122723282Y-77315269D01*
X122723282Y-77315270D01*
X122777452Y-77354626D01*
X122777451Y-77354626D01*
X122786495Y-77359234D01*
X122837292Y-77407208D01*
X122854087Y-77475029D01*
X122831550Y-77541164D01*
X122786499Y-77580202D01*
X122777182Y-77584949D01*
X122605213Y-77709890D01*
X122605209Y-77709894D01*
X122587181Y-77727923D01*
X122525858Y-77761408D01*
X122456166Y-77756424D01*
X122400233Y-77714552D01*
X122375816Y-77649088D01*
X122375500Y-77640242D01*
X122375500Y-77007308D01*
X122395185Y-76940269D01*
X122411819Y-76919627D01*
X123002037Y-76329408D01*
X123019075Y-76392993D01*
G37*
%TD.AperFunction*%
%TA.AperFunction,Conductor*%
G36*
X122580703Y-74666045D02*
G01*
X122587181Y-74672077D01*
X122605213Y-74690109D01*
X122777179Y-74815048D01*
X122777181Y-74815049D01*
X122777184Y-74815051D01*
X122786493Y-74819794D01*
X122837290Y-74867766D01*
X122854087Y-74935587D01*
X122831552Y-75001722D01*
X122786505Y-75040760D01*
X122777446Y-75045376D01*
X122777440Y-75045380D01*
X122723282Y-75084727D01*
X122723282Y-75084728D01*
X123355591Y-75717037D01*
X123292007Y-75734075D01*
X123177993Y-75799901D01*
X123084901Y-75892993D01*
X123019075Y-76007007D01*
X123002037Y-76070591D01*
X122411819Y-75480373D01*
X122378334Y-75419050D01*
X122375500Y-75392692D01*
X122375500Y-74759758D01*
X122395185Y-74692719D01*
X122447989Y-74646964D01*
X122517147Y-74637020D01*
X122580703Y-74666045D01*
G37*
%TD.AperFunction*%
%TA.AperFunction,Conductor*%
G36*
X142293834Y-74643576D02*
G01*
X142349767Y-74685448D01*
X142374184Y-74750912D01*
X142374500Y-74759758D01*
X142374500Y-75392692D01*
X142354815Y-75459731D01*
X142338181Y-75480373D01*
X141747962Y-76070591D01*
X141730925Y-76007007D01*
X141665099Y-75892993D01*
X141572007Y-75799901D01*
X141457993Y-75734075D01*
X141394409Y-75717037D01*
X142026716Y-75084728D01*
X141972547Y-75045373D01*
X141972547Y-75045372D01*
X141963500Y-75040763D01*
X141912706Y-74992788D01*
X141895912Y-74924966D01*
X141918451Y-74858832D01*
X141963508Y-74819793D01*
X141972816Y-74815051D01*
X142091794Y-74728609D01*
X142144786Y-74690109D01*
X142144788Y-74690106D01*
X142144792Y-74690104D01*
X142162819Y-74672077D01*
X142224142Y-74638592D01*
X142293834Y-74643576D01*
G37*
%TD.AperFunction*%
%TA.AperFunction,Conductor*%
G36*
X142338181Y-64219627D02*
G01*
X142371666Y-64280950D01*
X142374500Y-64307308D01*
X142374500Y-64940242D01*
X142354815Y-65007281D01*
X142302011Y-65053036D01*
X142232853Y-65062980D01*
X142169297Y-65033955D01*
X142162819Y-65027923D01*
X142144786Y-65009890D01*
X141972817Y-64884949D01*
X141963504Y-64880204D01*
X141912707Y-64832230D01*
X141895912Y-64764409D01*
X141918449Y-64698274D01*
X141963507Y-64659232D01*
X141972555Y-64654622D01*
X142026716Y-64615270D01*
X142026717Y-64615270D01*
X141394409Y-63982962D01*
X141457993Y-63965925D01*
X141572007Y-63900099D01*
X141665099Y-63807007D01*
X141730925Y-63692993D01*
X141747962Y-63629408D01*
X142338181Y-64219627D01*
G37*
%TD.AperFunction*%
%TA.AperFunction,Conductor*%
G36*
X142293834Y-61943576D02*
G01*
X142349767Y-61985448D01*
X142374184Y-62050912D01*
X142374500Y-62059758D01*
X142374500Y-62692692D01*
X142354815Y-62759731D01*
X142338181Y-62780373D01*
X141747962Y-63370591D01*
X141730925Y-63307007D01*
X141665099Y-63192993D01*
X141572007Y-63099901D01*
X141457993Y-63034075D01*
X141394407Y-63017036D01*
X142026716Y-62384728D01*
X141972547Y-62345373D01*
X141972547Y-62345372D01*
X141963500Y-62340763D01*
X141912706Y-62292788D01*
X141895912Y-62224966D01*
X141918451Y-62158832D01*
X141963508Y-62119793D01*
X141972816Y-62115051D01*
X142061765Y-62050426D01*
X142144786Y-61990109D01*
X142144788Y-61990106D01*
X142144792Y-61990104D01*
X142162819Y-61972077D01*
X142224142Y-61938592D01*
X142293834Y-61943576D01*
G37*
%TD.AperFunction*%
%TA.AperFunction,Conductor*%
G36*
X123019075Y-61152993D02*
G01*
X123084901Y-61267007D01*
X123177993Y-61360099D01*
X123292007Y-61425925D01*
X123355589Y-61442962D01*
X122723282Y-62075269D01*
X122723282Y-62075270D01*
X122777452Y-62114626D01*
X122777451Y-62114626D01*
X122786495Y-62119234D01*
X122837292Y-62167208D01*
X122854087Y-62235029D01*
X122831550Y-62301164D01*
X122786499Y-62340202D01*
X122777182Y-62344949D01*
X122605213Y-62469890D01*
X122605209Y-62469894D01*
X122587181Y-62487923D01*
X122525858Y-62521408D01*
X122456166Y-62516424D01*
X122400233Y-62474552D01*
X122375816Y-62409088D01*
X122375500Y-62400242D01*
X122375500Y-61767308D01*
X122395185Y-61700269D01*
X122411819Y-61679627D01*
X123002037Y-61089408D01*
X123019075Y-61152993D01*
G37*
%TD.AperFunction*%
%TA.AperFunction,Conductor*%
G36*
X122580703Y-59426045D02*
G01*
X122587181Y-59432077D01*
X122605213Y-59450109D01*
X122777179Y-59575048D01*
X122777181Y-59575049D01*
X122777184Y-59575051D01*
X122786493Y-59579794D01*
X122837290Y-59627766D01*
X122854087Y-59695587D01*
X122831552Y-59761722D01*
X122786505Y-59800760D01*
X122777446Y-59805376D01*
X122777440Y-59805380D01*
X122723282Y-59844727D01*
X122723282Y-59844728D01*
X123355591Y-60477037D01*
X123292007Y-60494075D01*
X123177993Y-60559901D01*
X123084901Y-60652993D01*
X123019075Y-60767007D01*
X123002037Y-60830591D01*
X122411819Y-60240373D01*
X122378334Y-60179050D01*
X122375500Y-60152692D01*
X122375500Y-59519758D01*
X122395185Y-59452719D01*
X122447989Y-59406964D01*
X122517147Y-59397020D01*
X122580703Y-59426045D01*
G37*
%TD.AperFunction*%
%TA.AperFunction,Conductor*%
G36*
X142338181Y-51519627D02*
G01*
X142371666Y-51580950D01*
X142374500Y-51607308D01*
X142374500Y-52240242D01*
X142354815Y-52307281D01*
X142302011Y-52353036D01*
X142232853Y-52362980D01*
X142169297Y-52333955D01*
X142162819Y-52327923D01*
X142144786Y-52309890D01*
X141972817Y-52184949D01*
X141963504Y-52180204D01*
X141912707Y-52132230D01*
X141895912Y-52064409D01*
X141918449Y-51998274D01*
X141963507Y-51959232D01*
X141972555Y-51954622D01*
X142026716Y-51915270D01*
X142026717Y-51915270D01*
X141394408Y-51282962D01*
X141457993Y-51265925D01*
X141572007Y-51200099D01*
X141665099Y-51107007D01*
X141730925Y-50992993D01*
X141747962Y-50929408D01*
X142338181Y-51519627D01*
G37*
%TD.AperFunction*%
%TA.AperFunction,Conductor*%
G36*
X123019075Y-50992993D02*
G01*
X123084901Y-51107007D01*
X123177993Y-51200099D01*
X123292007Y-51265925D01*
X123355590Y-51282962D01*
X122723282Y-51915269D01*
X122723282Y-51915270D01*
X122777452Y-51954626D01*
X122777451Y-51954626D01*
X122786495Y-51959234D01*
X122837292Y-52007208D01*
X122854087Y-52075029D01*
X122831550Y-52141164D01*
X122786499Y-52180202D01*
X122777182Y-52184949D01*
X122605213Y-52309890D01*
X122605209Y-52309894D01*
X122587181Y-52327923D01*
X122525858Y-52361408D01*
X122456166Y-52356424D01*
X122400233Y-52314552D01*
X122375816Y-52249088D01*
X122375500Y-52240242D01*
X122375500Y-51607308D01*
X122395185Y-51540269D01*
X122411819Y-51519627D01*
X123002037Y-50929408D01*
X123019075Y-50992993D01*
G37*
%TD.AperFunction*%
%TA.AperFunction,Conductor*%
G36*
X122580703Y-49266045D02*
G01*
X122587181Y-49272077D01*
X122605213Y-49290109D01*
X122777179Y-49415048D01*
X122777181Y-49415049D01*
X122777184Y-49415051D01*
X122786493Y-49419794D01*
X122837290Y-49467766D01*
X122854087Y-49535587D01*
X122831552Y-49601722D01*
X122786505Y-49640760D01*
X122777446Y-49645376D01*
X122777440Y-49645380D01*
X122723282Y-49684727D01*
X122723282Y-49684728D01*
X123355591Y-50317037D01*
X123292007Y-50334075D01*
X123177993Y-50399901D01*
X123084901Y-50492993D01*
X123019075Y-50607007D01*
X123002037Y-50670591D01*
X122411819Y-50080373D01*
X122378334Y-50019050D01*
X122375500Y-49992692D01*
X122375500Y-49359758D01*
X122395185Y-49292719D01*
X122447989Y-49246964D01*
X122517147Y-49237020D01*
X122580703Y-49266045D01*
G37*
%TD.AperFunction*%
%TA.AperFunction,Conductor*%
G36*
X142293834Y-49243576D02*
G01*
X142349767Y-49285448D01*
X142374184Y-49350912D01*
X142374500Y-49359758D01*
X142374500Y-49992692D01*
X142354815Y-50059731D01*
X142338181Y-50080373D01*
X141747962Y-50670591D01*
X141730925Y-50607007D01*
X141665099Y-50492993D01*
X141572007Y-50399901D01*
X141457993Y-50334075D01*
X141394409Y-50317037D01*
X142026716Y-49684728D01*
X141972547Y-49645373D01*
X141972547Y-49645372D01*
X141963500Y-49640763D01*
X141912706Y-49592788D01*
X141895912Y-49524966D01*
X141918451Y-49458832D01*
X141963508Y-49419793D01*
X141972816Y-49415051D01*
X142087804Y-49331508D01*
X142144786Y-49290109D01*
X142144788Y-49290106D01*
X142144792Y-49290104D01*
X142162819Y-49272077D01*
X142224142Y-49238592D01*
X142293834Y-49243576D01*
G37*
%TD.AperFunction*%
%TD*%
M02*
