M48
; DRILL file {KiCad 9.0.7} date 2026-03-14T16:30:00-0500
; FORMAT={-:-/ absolute / metric / decimal}
; #@! TF.CreationDate,2026-03-14T16:30:00-05:00
; #@! TF.GenerationSoftware,Kicad,Pcbnew,9.0.7
; #@! TF.FileFunction,Plated,1,2,PTH
FMAT,2
METRIC
; #@! TA.AperFunction,Plated,PTH,ViaDrill
T1C0.300
; #@! TA.AperFunction,Plated,PTH,ComponentDrill
T2C0.600
; #@! TA.AperFunction,Plated,PTH,ComponentDrill
T3C1.000
%
G90
G05
T1
X122.784Y-87.63
X122.784Y-90.17
X122.809Y-74.93
X122.809Y-77.47
X122.834Y-49.53
X122.834Y-52.07
X125.095Y-52.197
X125.349Y-77.851
X125.349Y-87.503
X125.476Y-48.768
X125.857Y-58.42
X126.294Y-76.581
X126.53Y-59.073
X126.604Y-68.199
X126.604Y-71.69
X126.604Y-72.539
X126.604Y-73.421
X127.0Y-92.964
X127.127Y-71.085
X127.254Y-76.581
X127.328Y-59.006
X127.381Y-69.342
X127.508Y-51.816
X127.759Y-67.059
X128.143Y-86.868
X128.143Y-89.408
X128.219Y-61.849
X128.278Y-59.067
X128.981Y-50.902
X129.032Y-56.134
X129.032Y-66.04
X129.052Y-54.902
X129.342Y-64.135
X129.921Y-74.93
X130.0Y-81.0
X130.048Y-71.374
X130.048Y-85.979
X130.175Y-67.691
X130.754Y-71.75
X131.22Y-53.66
X131.318Y-72.771
X131.318Y-73.85
X131.318Y-74.93
X131.318Y-84.201
X131.445Y-76.351
X131.531Y-80.723
X131.572Y-55.372
X131.699Y-47.625
X131.699Y-90.17
X131.953Y-57.15
X131.953Y-87.122
X132.08Y-60.325
X132.334Y-72.771
X132.334Y-74.93
X132.375Y-73.85
X132.715Y-62.611
X132.746Y-69.586
X132.893Y-65.278
X132.969Y-76.2
X133.204Y-66.784
X133.299Y-94.539
X133.35Y-72.771
X133.35Y-73.914
X133.35Y-74.93
X133.477Y-84.709
X133.545Y-61.595
X133.731Y-57.15
X133.731Y-75.95
X133.807Y-82.245
X134.112Y-64.516
X134.239Y-46.482
X134.264Y-83.972
X134.493Y-76.327
X134.571Y-78.766
X134.62Y-75.438
X134.747Y-87.884
X134.989Y-71.636
X135.255Y-55.118
X135.255Y-80.744
X135.382Y-81.788
X135.382Y-82.748
X135.509Y-67.564
X135.625Y-52.324
X136.525Y-67.056
X136.779Y-53.848
X137.033Y-68.961
X137.795Y-89.535
X137.922Y-75.819
X138.024Y-71.804
X138.049Y-62.992
X138.084Y-72.601
X138.303Y-56.55
X138.303Y-57.75
X138.43Y-46.228
X138.465Y-63.675
X138.465Y-67.564
X138.684Y-48.514
X139.192Y-76.073
X139.319Y-52.324
X139.319Y-56.388
X139.319Y-77.47
X139.319Y-80.899
X139.804Y-61.572
X141.935Y-64.77
X141.935Y-74.93
X141.935Y-77.419
X141.986Y-62.23
X142.037Y-49.581
T3
X123.485Y-45.72
X123.485Y-48.26
X123.485Y-50.8
X123.485Y-53.34
X123.485Y-55.88
X123.485Y-58.42
X123.485Y-60.96
X123.485Y-63.5
X123.485Y-66.04
X123.485Y-68.58
X123.485Y-71.12
X123.485Y-73.66
X123.485Y-76.2
X123.485Y-78.74
X123.485Y-81.28
X123.485Y-83.82
X123.485Y-86.36
X123.485Y-88.9
X123.485Y-91.44
X123.485Y-93.98
X129.835Y-93.74
X132.375Y-93.74
X134.915Y-93.74
X141.265Y-45.72
X141.265Y-48.26
X141.265Y-50.8
X141.265Y-53.34
X141.265Y-55.88
X141.265Y-58.42
X141.265Y-60.96
X141.265Y-63.5
X141.265Y-66.04
X141.265Y-68.58
X141.265Y-71.12
X141.265Y-73.66
X141.265Y-76.2
X141.265Y-78.74
X141.265Y-81.28
X141.265Y-83.82
X141.265Y-86.36
X141.265Y-88.9
X141.265Y-91.44
X141.265Y-93.98
T2
X128.055Y-46.1G85X128.055Y-45.5
G05
X128.055Y-50.53G85X128.055Y-49.43
G05
X136.695Y-46.1G85X136.695Y-45.5
G05
X136.695Y-50.53G85X136.695Y-49.43
G05
M30
