%TF.GenerationSoftware,KiCad,Pcbnew,9.0.7*%
%TF.CreationDate,2026-03-14T16:29:58-05:00*%
%TF.ProjectId,RP2040 Devboard,52503230-3430-4204-9465-76626f617264,rev?*%
%TF.SameCoordinates,Original*%
%TF.FileFunction,Paste,Top*%
%TF.FilePolarity,Positive*%
%FSLAX46Y46*%
G04 Gerber Fmt 4.6, Leading zero omitted, Abs format (unit mm)*
G04 Created by KiCad (PCBNEW 9.0.7) date 2026-03-14 16:29:58*
%MOMM*%
%LPD*%
G01*
G04 APERTURE LIST*
G04 Aperture macros list*
%AMRoundRect*
0 Rectangle with rounded corners*
0 $1 Rounding radius*
0 $2 $3 $4 $5 $6 $7 $8 $9 X,Y pos of 4 corners*
0 Add a 4 corners polygon primitive as box body*
4,1,4,$2,$3,$4,$5,$6,$7,$8,$9,$2,$3,0*
0 Add four circle primitives for the rounded corners*
1,1,$1+$1,$2,$3*
1,1,$1+$1,$4,$5*
1,1,$1+$1,$6,$7*
1,1,$1+$1,$8,$9*
0 Add four rect primitives between the rounded corners*
20,1,$1+$1,$2,$3,$4,$5,0*
20,1,$1+$1,$4,$5,$6,$7,0*
20,1,$1+$1,$6,$7,$8,$9,0*
20,1,$1+$1,$8,$9,$2,$3,0*%
G04 Aperture macros list end*
%ADD10RoundRect,0.140000X0.170000X-0.140000X0.170000X0.140000X-0.170000X0.140000X-0.170000X-0.140000X0*%
%ADD11RoundRect,0.140000X-0.170000X0.140000X-0.170000X-0.140000X0.170000X-0.140000X0.170000X0.140000X0*%
%ADD12RoundRect,0.150000X-0.150000X0.512500X-0.150000X-0.512500X0.150000X-0.512500X0.150000X0.512500X0*%
%ADD13RoundRect,0.225000X0.225000X0.250000X-0.225000X0.250000X-0.225000X-0.250000X0.225000X-0.250000X0*%
%ADD14RoundRect,0.140000X0.140000X0.170000X-0.140000X0.170000X-0.140000X-0.170000X0.140000X-0.170000X0*%
%ADD15R,0.600000X1.450000*%
%ADD16R,0.300000X1.450000*%
%ADD17RoundRect,0.200000X0.200000X0.800000X-0.200000X0.800000X-0.200000X-0.800000X0.200000X-0.800000X0*%
%ADD18RoundRect,0.250000X0.450000X0.350000X-0.450000X0.350000X-0.450000X-0.350000X0.450000X-0.350000X0*%
%ADD19RoundRect,0.225000X-0.225000X-0.250000X0.225000X-0.250000X0.225000X0.250000X-0.225000X0.250000X0*%
%ADD20RoundRect,0.140000X-0.140000X-0.170000X0.140000X-0.170000X0.140000X0.170000X-0.140000X0.170000X0*%
%ADD21RoundRect,0.249999X-0.395001X-0.395001X0.395001X-0.395001X0.395001X0.395001X-0.395001X0.395001X0*%
%ADD22RoundRect,0.050000X-0.387500X-0.050000X0.387500X-0.050000X0.387500X0.050000X-0.387500X0.050000X0*%
%ADD23RoundRect,0.050000X-0.050000X-0.387500X0.050000X-0.387500X0.050000X0.387500X-0.050000X0.387500X0*%
%ADD24RoundRect,0.040000X-0.040000X-0.605000X0.040000X-0.605000X0.040000X0.605000X-0.040000X0.605000X0*%
%ADD25RoundRect,0.062500X-0.387500X-0.062500X0.387500X-0.062500X0.387500X0.062500X-0.387500X0.062500X0*%
G04 APERTURE END LIST*
D10*
%TO.C,C6*%
X134620000Y-65532000D03*
X134620000Y-64572000D03*
%TD*%
%TO.C,C12*%
X132461000Y-66350000D03*
X132461000Y-65390000D03*
%TD*%
%TO.C,C1*%
X136144000Y-68933000D03*
X136144000Y-67973000D03*
%TD*%
D11*
%TO.C,R7*%
X125984000Y-63782000D03*
X125984000Y-64742000D03*
%TD*%
D12*
%TO.C,U2*%
X130002500Y-54902500D03*
X129052500Y-54902500D03*
X128102500Y-54902500D03*
X128102500Y-57177500D03*
X130002500Y-57177500D03*
%TD*%
D13*
%TO.C,C13*%
X129827500Y-59067500D03*
X128277500Y-59067500D03*
%TD*%
D14*
%TO.C,C16*%
X134183000Y-83820000D03*
X133223000Y-83820000D03*
%TD*%
D11*
%TO.C,R2*%
X131220000Y-52700000D03*
X131220000Y-53660000D03*
%TD*%
D15*
%TO.C,J1*%
X135625000Y-50895000D03*
X134825000Y-50895000D03*
D16*
X133625000Y-50895000D03*
X132625000Y-50895000D03*
X132125000Y-50895000D03*
X131125000Y-50895000D03*
D15*
X129925000Y-50895000D03*
X129125000Y-50895000D03*
X129125000Y-50895000D03*
X129925000Y-50895000D03*
D16*
X130625000Y-50895000D03*
X131625000Y-50895000D03*
X133125000Y-50895000D03*
X134125000Y-50895000D03*
D15*
X134825000Y-50895000D03*
X135625000Y-50895000D03*
%TD*%
D17*
%TO.C,SW1*%
X133545000Y-61595000D03*
X129345000Y-61595000D03*
%TD*%
D18*
%TO.C,Y1*%
X133731000Y-80723000D03*
X131531000Y-80723000D03*
X131531000Y-82423000D03*
X133731000Y-82423000D03*
%TD*%
D11*
%TO.C,R1*%
X133770000Y-52720000D03*
X133770000Y-53680000D03*
%TD*%
D10*
%TO.C,R3*%
X134112000Y-68625600D03*
X134112000Y-67665600D03*
%TD*%
D19*
%TO.C,C14*%
X128310000Y-52959000D03*
X129860000Y-52959000D03*
%TD*%
D20*
%TO.C,C3*%
X137033000Y-70993000D03*
X137993000Y-70993000D03*
%TD*%
D10*
%TO.C,C10*%
X135128000Y-69088000D03*
X135128000Y-68128000D03*
%TD*%
D21*
%TO.C,U1*%
X131575000Y-73050000D03*
X131575000Y-74650000D03*
X133175000Y-73050000D03*
X133175000Y-74650000D03*
D22*
X128937500Y-71250000D03*
X128937500Y-71650000D03*
X128937500Y-72050000D03*
X128937500Y-72450000D03*
X128937500Y-72850000D03*
X128937500Y-73250000D03*
X128937500Y-73650000D03*
X128937500Y-74050000D03*
X128937500Y-74450000D03*
X128937500Y-74850000D03*
X128937500Y-75250000D03*
X128937500Y-75650000D03*
X128937500Y-76050000D03*
X128937500Y-76450000D03*
D23*
X129775000Y-77287500D03*
X130175000Y-77287500D03*
X130575000Y-77287500D03*
X130975000Y-77287500D03*
X131375000Y-77287500D03*
X131775000Y-77287500D03*
X132175000Y-77287500D03*
X132575000Y-77287500D03*
X132975000Y-77287500D03*
X133375000Y-77287500D03*
X133775000Y-77287500D03*
X134175000Y-77287500D03*
X134575000Y-77287500D03*
X134975000Y-77287500D03*
D22*
X135812500Y-76450000D03*
X135812500Y-76050000D03*
X135812500Y-75650000D03*
X135812500Y-75250000D03*
X135812500Y-74850000D03*
X135812500Y-74450000D03*
X135812500Y-74050000D03*
X135812500Y-73650000D03*
X135812500Y-73250000D03*
X135812500Y-72850000D03*
X135812500Y-72450000D03*
X135812500Y-72050000D03*
X135812500Y-71650000D03*
X135812500Y-71250000D03*
D23*
X134975000Y-70412500D03*
X134575000Y-70412500D03*
X134175000Y-70412500D03*
X133775000Y-70412500D03*
X133375000Y-70412500D03*
X132975000Y-70412500D03*
X132575000Y-70412500D03*
X132175000Y-70412500D03*
X131775000Y-70412500D03*
X131375000Y-70412500D03*
X130975000Y-70412500D03*
X130575000Y-70412500D03*
X130175000Y-70412500D03*
X129775000Y-70412500D03*
%TD*%
D20*
%TO.C,C17*%
X129342000Y-64135000D03*
X130302000Y-64135000D03*
%TD*%
D14*
%TO.C,R6*%
X128143000Y-64135000D03*
X127183000Y-64135000D03*
%TD*%
%TO.C,C8*%
X128143000Y-69850000D03*
X127183000Y-69850000D03*
%TD*%
D10*
%TO.C,C15*%
X129667000Y-80871000D03*
X129667000Y-79911000D03*
%TD*%
D24*
%TO.C,U3*%
X129032000Y-66040000D03*
D25*
X127607000Y-65290000D03*
X127607000Y-65790000D03*
X127607000Y-66290000D03*
X127607000Y-66790000D03*
X130457000Y-66790000D03*
X130457000Y-66290000D03*
X130457000Y-65790000D03*
X130457000Y-65290000D03*
%TD*%
D10*
%TO.C,R4*%
X133096000Y-68625600D03*
X133096000Y-67665600D03*
%TD*%
D11*
%TO.C,C5*%
X135255000Y-79784000D03*
X135255000Y-80744000D03*
%TD*%
D20*
%TO.C,R5*%
X132263000Y-79121000D03*
X133223000Y-79121000D03*
%TD*%
%TO.C,C4*%
X136652000Y-69977000D03*
X137612000Y-69977000D03*
%TD*%
D10*
%TO.C,C7*%
X133604000Y-66167000D03*
X133604000Y-65207000D03*
%TD*%
%TO.C,C11*%
X135382000Y-82748000D03*
X135382000Y-81788000D03*
%TD*%
D20*
%TO.C,C2*%
X137922000Y-75819000D03*
X138882000Y-75819000D03*
%TD*%
D14*
%TO.C,C9*%
X127254000Y-76581000D03*
X126294000Y-76581000D03*
%TD*%
M02*
